<svg width="29" height="26" viewBox="0 0 29 26" fill="none" xmlns="http://www.w3.org/2000/svg">
<path d="M20.1215 17.8969C19.6794 16.8496 19.0378 15.8984 18.2325 15.0961C17.4296 14.2915 16.4785 13.65 15.4317 13.207C15.4223 13.2023 15.4129 13.2 15.4036 13.1953C16.8637 12.1406 17.8129 10.4227 17.8129 8.48438C17.8129 5.27344 15.2114 2.67188 12.0004 2.67188C8.78949 2.67188 6.18793 5.27344 6.18793 8.48438C6.18793 10.4227 7.13714 12.1406 8.5973 13.1977C8.58792 13.2023 8.57855 13.2047 8.56918 13.2094C7.51918 13.6523 6.57699 14.2875 5.76839 15.0984C4.96381 15.9013 4.32231 16.8524 3.87933 17.8992C3.44415 18.924 3.20944 20.0228 3.18792 21.1359C3.1873 21.161 3.19169 21.1858 3.20083 21.2091C3.20997 21.2324 3.22368 21.2537 3.24116 21.2716C3.25863 21.2895 3.27951 21.3037 3.30257 21.3134C3.32563 21.3231 3.3504 21.3281 3.37542 21.3281H4.78167C4.8848 21.3281 4.96683 21.2461 4.96917 21.1453C5.01605 19.3359 5.74261 17.6414 7.02699 16.357C8.35589 15.0281 10.1207 14.2969 12.0004 14.2969C13.8801 14.2969 15.645 15.0281 16.9739 16.357C18.2582 17.6414 18.9848 19.3359 19.0317 21.1453C19.034 21.2484 19.1161 21.3281 19.2192 21.3281H20.6254C20.6504 21.3281 20.6752 21.3231 20.6983 21.3134C20.7213 21.3037 20.7422 21.2895 20.7597 21.2716C20.7772 21.2537 20.7909 21.2324 20.8 21.2091C20.8092 21.1858 20.8136 21.161 20.8129 21.1359C20.7895 20.0156 20.5575 18.9258 20.1215 17.8969ZM12.0004 12.5156C10.9246 12.5156 9.91214 12.0961 9.15042 11.3344C8.38871 10.5727 7.96918 9.56016 7.96918 8.48438C7.96918 7.40859 8.38871 6.39609 9.15042 5.63437C9.91214 4.87266 10.9246 4.45312 12.0004 4.45312C13.0762 4.45312 14.0887 4.87266 14.8504 5.63437C15.6121 6.39609 16.0317 7.40859 16.0317 8.48438C16.0317 9.56016 15.6121 10.5727 14.8504 11.3344C14.0887 12.0961 13.0762 12.5156 12.0004 12.5156Z" fill="#5E46A1"/>
<path d="M27.7406 20.9437L26.9091 20.2327C26.9484 19.9915 26.9687 19.7452 26.9687 19.4989C26.9687 19.2526 26.9484 19.0063 26.9091 18.7651L27.7406 18.0542C27.8033 18.0005 27.8482 17.929 27.8693 17.8492C27.8904 17.7693 27.8867 17.685 27.8587 17.6073L27.8472 17.5743C27.6183 16.9345 27.2755 16.3414 26.8354 15.8236L26.8126 15.797C26.7592 15.7342 26.688 15.6891 26.6085 15.6675C26.5289 15.646 26.4447 15.6491 26.367 15.6764L25.3348 16.0433C24.954 15.731 24.5287 15.4847 24.0691 15.312L23.8698 14.2329C23.8548 14.1517 23.8154 14.077 23.7569 14.0187C23.6984 13.9605 23.6235 13.9214 23.5423 13.9066L23.508 13.9003C22.8466 13.781 22.1509 13.781 21.4894 13.9003L21.4552 13.9066C21.3739 13.9214 21.299 13.9605 21.2405 14.0187C21.182 14.077 21.1427 14.1517 21.1276 14.2329L20.927 15.3171C20.4711 15.4898 20.0466 15.7359 19.6702 16.0458L18.6304 15.6764C18.5527 15.6489 18.4684 15.6457 18.3888 15.6672C18.3093 15.6888 18.2381 15.734 18.1848 15.797L18.162 15.8236C17.7224 16.3418 17.3797 16.9348 17.1502 17.5743L17.1387 17.6073C17.0816 17.766 17.1286 17.9438 17.2568 18.0542L18.0985 18.7728C18.0592 19.0114 18.0401 19.2552 18.0401 19.4977C18.0401 19.7414 18.0592 19.9852 18.0985 20.2226L17.2568 20.9411C17.1941 20.9948 17.1492 21.0663 17.1281 21.1461C17.107 21.226 17.1107 21.3103 17.1387 21.388L17.1502 21.421C17.38 22.0608 17.7202 22.6512 18.162 23.1717L18.1848 23.1983C18.2382 23.2611 18.3094 23.3062 18.3889 23.3278C18.4685 23.3493 18.5527 23.3462 18.6304 23.3189L19.6702 22.9495C20.0485 23.2605 20.4713 23.5068 20.927 23.6782L21.1276 24.7624C21.1427 24.8436 21.182 24.9183 21.2405 24.9766C21.299 25.0349 21.3739 25.074 21.4552 25.0887L21.4894 25.095C22.1569 25.215 22.8405 25.215 23.508 25.095L23.5423 25.0887C23.6235 25.074 23.6984 25.0349 23.7569 24.9766C23.8154 24.9183 23.8548 24.8436 23.8698 24.7624L24.0691 23.6833C24.5285 23.5111 24.9562 23.264 25.3348 22.9521L26.367 23.3189C26.4447 23.3464 26.529 23.3496 26.6086 23.3281C26.6882 23.3065 26.7593 23.2613 26.8126 23.1983L26.8354 23.1717C27.2772 22.6499 27.6175 22.0608 27.8472 21.421L27.8587 21.388C27.9158 21.2318 27.8688 21.0541 27.7406 20.9437ZM26.0077 18.9149C26.0394 19.1066 26.0559 19.3034 26.0559 19.5002C26.0559 19.697 26.0394 19.8938 26.0077 20.0854L25.9239 20.5945L26.8722 21.4058C26.7285 21.737 26.547 22.0505 26.3314 22.3401L25.1533 21.9225L24.7547 22.25C24.4512 22.4988 24.1136 22.6943 23.7479 22.8314L23.2642 23.013L23.037 24.2444C22.6784 24.2851 22.3164 24.2851 21.9579 24.2444L21.7306 23.0105L21.2508 22.8264C20.8889 22.6893 20.5525 22.4938 20.2516 22.2462L19.853 21.9174L18.6673 22.3389C18.4514 22.0481 18.2712 21.7346 18.1264 21.4045L19.0849 20.5856L19.0024 20.0778C18.972 19.8887 18.9554 19.6932 18.9554 19.5002C18.9554 19.306 18.9707 19.1117 19.0024 18.9226L19.0849 18.4147L18.1264 17.5959C18.2699 17.2646 18.4514 16.9522 18.6673 16.6615L19.853 17.083L20.2516 16.7542C20.5525 16.5066 20.8889 16.3111 21.2508 16.174L21.7319 15.9925L21.9592 14.7585C22.3159 14.7179 22.6803 14.7179 23.0383 14.7585L23.2655 15.9899L23.7492 16.1715C24.1136 16.3086 24.4525 16.5041 24.7559 16.7529L25.1546 17.0805L26.3327 16.6628C26.5485 16.9535 26.7288 17.2671 26.8735 17.5972L25.9252 18.4084L26.0077 18.9149ZM22.5 17.1389C21.266 17.1389 20.2656 18.1393 20.2656 19.3732C20.2656 20.6072 21.266 21.6076 22.5 21.6076C23.734 21.6076 24.7344 20.6072 24.7344 19.3732C24.7344 18.1393 23.734 17.1389 22.5 17.1389ZM23.5054 20.3787C23.3736 20.511 23.2168 20.6158 23.0443 20.6873C22.8717 20.7588 22.6867 20.7954 22.5 20.7951C22.1204 20.7951 21.7636 20.6466 21.4945 20.3787C21.3623 20.2468 21.2574 20.0901 21.1859 19.9176C21.1145 19.745 21.0778 19.56 21.0781 19.3732C21.0781 18.9937 21.2266 18.6369 21.4945 18.3678C21.7636 18.0986 22.1204 17.9514 22.5 17.9514C22.8796 17.9514 23.2363 18.0986 23.5054 18.3678C23.6377 18.4997 23.7426 18.6564 23.814 18.8289C23.8855 19.0015 23.9221 19.1865 23.9219 19.3732C23.9219 19.7528 23.7733 20.1096 23.5054 20.3787Z" fill="white"/>
<path d="M23 16V15.5L22.5 15H21.5L21 15.5V16L20 16.5H19.5L18.5 17V17.5L19 18.5V19.5L18.5 20.5L19 21.5L20 21L21 22L21.5 23H22.5L23 22L24 21.5H25L25.5 20.5L25 19.5V18.5L25.5 17.5L25 16.5H24L23 16Z" fill="white"/>
<path d="M26.0313 20.1106L25.3916 19.5637C25.4219 19.3782 25.4375 19.1887 25.4375 18.9993C25.4375 18.8098 25.4219 18.6204 25.3916 18.4348L26.0313 17.8879C26.0795 17.8466 26.114 17.7916 26.1303 17.7302C26.1465 17.6688 26.1436 17.6039 26.1221 17.5442L26.1133 17.5188C25.9372 17.0266 25.6735 16.5704 25.335 16.1721L25.3174 16.1516C25.2763 16.1033 25.2216 16.0686 25.1604 16.052C25.0992 16.0355 25.0344 16.0379 24.9746 16.0588L24.1807 16.3411C23.8877 16.1008 23.5605 15.9114 23.207 15.7786L23.0537 14.9485C23.0421 14.886 23.0118 14.8286 22.9668 14.7837C22.9218 14.7389 22.8643 14.7088 22.8018 14.6975L22.7754 14.6926C22.2666 14.6008 21.7314 14.6008 21.2227 14.6926L21.1963 14.6975C21.1338 14.7088 21.0762 14.7389 21.0312 14.7837C20.9862 14.8286 20.9559 14.886 20.9443 14.9485L20.79 15.7825C20.4393 15.9153 20.1128 16.1047 19.8232 16.343L19.0234 16.0588C18.9636 16.0377 18.8988 16.0352 18.8376 16.0518C18.7764 16.0684 18.7216 16.1032 18.6807 16.1516L18.6631 16.1721C18.3249 16.5707 18.0613 17.0268 17.8848 17.5188L17.876 17.5442C17.832 17.6663 17.8682 17.803 17.9668 17.8879L18.6143 18.4407C18.584 18.6243 18.5693 18.8118 18.5693 18.9983C18.5693 19.1858 18.584 19.3733 18.6143 19.5559L17.9668 20.1086C17.9186 20.1499 17.884 20.205 17.8678 20.2664C17.8516 20.3278 17.8544 20.3927 17.876 20.4524L17.8848 20.4778C18.0615 20.97 18.3232 21.4241 18.6631 21.8245L18.6807 21.845C18.7217 21.8933 18.7765 21.928 18.8377 21.9445C18.8989 21.9611 18.9636 21.9587 19.0234 21.9377L19.8232 21.6536C20.1143 21.8928 20.4395 22.0823 20.79 22.2141L20.9443 23.0481C20.9559 23.1106 20.9862 23.168 21.0312 23.2128C21.0762 23.2577 21.1338 23.2877 21.1963 23.2991L21.2227 23.304C21.7361 23.3962 22.2619 23.3962 22.7754 23.304L22.8018 23.2991C22.8643 23.2877 22.9218 23.2577 22.9668 23.2128C23.0118 23.168 23.0421 23.1106 23.0537 23.0481L23.207 22.218C23.5604 22.0856 23.8894 21.8955 24.1807 21.6555L24.9746 21.9377C25.0344 21.9589 25.0992 21.9613 25.1605 21.9448C25.2217 21.9282 25.2764 21.8934 25.3174 21.845L25.335 21.8245C25.6748 21.4231 25.9365 20.97 26.1133 20.4778L26.1221 20.4524C26.166 20.3323 26.1299 20.1956 26.0313 20.1106ZM24.6982 18.55C24.7227 18.6975 24.7354 18.8489 24.7354 19.0002C24.7354 19.1516 24.7227 19.303 24.6982 19.4504L24.6338 19.842L25.3633 20.4661C25.2527 20.7208 25.1131 20.962 24.9473 21.1848L24.041 20.8635L23.7344 21.1155C23.501 21.3069 23.2412 21.4573 22.96 21.5627L22.5879 21.7024L22.4131 22.6497C22.1373 22.6809 21.8588 22.6809 21.583 22.6497L21.4082 21.7004L21.0391 21.5588C20.7607 21.4534 20.502 21.303 20.2705 21.1125L19.9639 20.8596L19.0518 21.1838C18.8857 20.9602 18.7471 20.719 18.6357 20.4651L19.373 19.8352L19.3096 19.4446C19.2861 19.2991 19.2734 19.1487 19.2734 19.0002C19.2734 18.8508 19.2852 18.7014 19.3096 18.5559L19.373 18.1653L18.6357 17.5354C18.7461 17.2805 18.8857 17.0403 19.0518 16.8167L19.9639 17.1409L20.2705 16.8879C20.502 16.6975 20.7607 16.5471 21.0391 16.4417L21.4092 16.302L21.584 15.3528C21.8584 15.3215 22.1387 15.3215 22.4141 15.3528L22.5889 16.3L22.9609 16.4397C23.2412 16.5452 23.502 16.6956 23.7354 16.887L24.042 17.1389L24.9482 16.8176C25.1143 17.0413 25.2529 17.2825 25.3643 17.5364L24.6348 18.1604L24.6982 18.55ZM22 17.1838C21.0508 17.1838 20.2813 17.9534 20.2813 18.9026C20.2813 19.8518 21.0508 20.6213 22 20.6213C22.9492 20.6213 23.7188 19.8518 23.7188 18.9026C23.7188 17.9534 22.9492 17.1838 22 17.1838ZM22.7734 19.676C22.672 19.7778 22.5514 19.8584 22.4187 19.9134C22.286 19.9684 22.1437 19.9966 22 19.9963C21.708 19.9963 21.4336 19.8821 21.2266 19.676C21.1248 19.5746 21.0442 19.454 20.9892 19.3213C20.9342 19.1886 20.906 19.0463 20.9063 18.9026C20.9063 18.6106 21.0205 18.3362 21.2266 18.1292C21.4336 17.9221 21.708 17.8088 22 17.8088C22.292 17.8088 22.5664 17.9221 22.7734 18.1292C22.8752 18.2306 22.9558 18.3512 23.0108 18.4839C23.0658 18.6166 23.094 18.7589 23.0938 18.9026C23.0938 19.1946 22.9795 19.469 22.7734 19.676Z" fill="#5E46A1"/>
</svg>
