<svg xmlns="http://www.w3.org/2000/svg" xmlns:xlink="http://www.w3.org/1999/xlink" viewBox="0 0 2191.35 1145.07"><defs><style>.cls-1,.cls-19{fill:none;}.cls-2{clip-path:url(#clip-path);}.cls-3{fill:#78c4e8;}.cls-4{fill:#8fceec;}.cls-5{fill:url(#linear-gradient);}.cls-6{fill:url(#linear-gradient-2);}.cls-7{fill:url(#linear-gradient-3);}.cls-8{fill:url(#linear-gradient-4);}.cls-9{fill:#f3fafd;}.cls-10{fill:#b98d44;}.cls-11{fill:#180733;}.cls-12{fill:#9d6f39;}.cls-13{fill:url(#linear-gradient-5);}.cls-14{opacity:0.8;}.cls-15{fill:#46395c;}.cls-16{fill:#010101;}.cls-17{fill:url(#linear-gradient-6);}.cls-18{fill:#6b617d;}.cls-19{stroke:#fff;stroke-miterlimit:10;}.cls-20{fill:#fff;}</style><clipPath id="clip-path"><rect class="cls-1" x="133.92" y="0.07" width="1920" height="1081"/></clipPath><linearGradient id="linear-gradient" x1="192.92" y1="65.94" x2="787.92" y2="65.94" gradientUnits="userSpaceOnUse"><stop offset="0" stop-color="#75c2e8"/><stop offset="0.2" stop-color="#7cc5e9"/><stop offset="0.47" stop-color="#8ecdec"/><stop offset="0.8" stop-color="#addbf1"/><stop offset="1" stop-color="#c3e5f4"/></linearGradient><linearGradient id="linear-gradient-2" x1="474.8" y1="478.92" x2="747.92" y2="478.92" xlink:href="#linear-gradient"/><linearGradient id="linear-gradient-3" x1="374.92" y1="256.57" x2="2053.92" y2="256.57" gradientUnits="userSpaceOnUse"><stop offset="0" stop-color="#75c2e8"/><stop offset="0.16" stop-color="#7cc5e9"/><stop offset="0.38" stop-color="#8ecdec"/><stop offset="0.64" stop-color="#addbf2"/><stop offset="0.92" stop-color="#d7eef9"/><stop offset="1" stop-color="#e3f3fb"/></linearGradient><linearGradient id="linear-gradient-4" x1="993.48" y1="49.46" x2="2379.46" y2="49.46" gradientTransform="matrix(0.99, -0.17, 0.17, 0.99, 12.07, 272.37)" gradientUnits="userSpaceOnUse"><stop offset="0" stop-color="#cfeaf7"/><stop offset="0.39" stop-color="#d6edf8"/><stop offset="0.93" stop-color="#e8f6fb"/><stop offset="1" stop-color="#ebf7fc"/></linearGradient><linearGradient id="linear-gradient-5" x1="1182.58" y1="865.29" x2="1391.64" y2="926.44" gradientUnits="userSpaceOnUse"><stop offset="0.19" stop-color="#e4bd65"/><stop offset="0.3" stop-color="#e6c16e"/><stop offset="0.49" stop-color="#eccd88"/><stop offset="0.72" stop-color="#f5e1b1"/></linearGradient><linearGradient id="linear-gradient-6" x1="1282.9" y1="904.52" x2="1386.19" y2="855.66" gradientUnits="userSpaceOnUse"><stop offset="0.05" stop-color="#6b617d"/><stop offset="0.13" stop-color="#625875"/><stop offset="0.27" stop-color="#4b3e60"/><stop offset="0.44" stop-color="#25153f"/><stop offset="0.49" stop-color="#180733"/><stop offset="0.6" stop-color="#36274e"/><stop offset="0.76" stop-color="#6b617d"/></linearGradient></defs><title>background404</title><g id="Layer_2" data-name="Layer 2"><g id="Layer_1-2" data-name="Layer 1"><g class="cls-2"><rect class="cls-3" x="133.92" y="0.07" width="1920" height="1080"/><path class="cls-4" d="M1322.94,10.06s-266.52,20-326.49,40-369.8,56.64-369.8,56.64-43.31,6.66-56.64,0S670,70,670,70s203.22-50,276.52-50c26.65,6.66,66.63-20,66.63-20h339.81Z"/><path class="cls-5" d="M787.92,0s-58.27,15.34-82.8,12.27S634.57,36.8,634.57,36.8,607,61.34,545.63,55.21,392.28,70.54,392.28,70.54,297.2,92,257.33,131.88L192.92,88.94S340.14,3.07,377,3.07,787.92,0,787.92,0Z"/><path class="cls-6" d="M522.31,515.63s211.62-25.92,224.57-38.87-99.33,0-99.33,0S626,442.21,604.36,442.21s-47.5,30.23-47.5,30.23H474.8Z"/><path class="cls-7" d="M2053.92,111.52c-147.73-4.21-378.3-1.51-598.62,39.08C1091.23,217.67,712.42,233,712.42,233s-424.51-9.58-321.33,52.7S849.5,319.24,849.5,319.24s812.15,141.81,1006.72,56.53c69.25-30.35,138-55.28,197.7-74.79"/><path class="cls-8" d="M1839.66,1.37,1664.09,51s-366.86,96-461.61,105.77-200.15,11.55-200.15,11.55,5-21.14,202.74-66.84c42.07-7.93,187.71-19.89,291.36-56.87,32.82-11.71,81.33-27.6,135.21-44.5"/><circle class="cls-9" cx="384.92" cy="496.07" r="140"/><path class="cls-10" d="M1244.92,929.36S1092.06,754.19,1055.67,746.9c0,0-131-94.89-152.87-153.28,0,0-72.79-73-131-43.79C764.5,542.53,699,586.32,648,579c0,0-72.79-14.6-101.91,7.29,0,0-123.75,7.3-160.14-109.48-14.56-73-211.1-51.09-211.1-51.09s-29.12,7.3-51,51.09V1068Z"/><path class="cls-10" d="M1178.92,827.26s76.39-138.42,187.5-193.78,222.23-62.29,256.95-110.73,250-96.89,250-96.89,111.11-55.36,173.61,6.92v20.76l6.94,477.53Z"/><path class="cls-11" d="M122.92,929.4H232.39l54.73,11.93L335,934.52l95.78-1.71,150.52,20.45,171-5.11s75.25,13.63,157.35,13.63,184.72,15.34,184.72,15.34,88.95,10.22,184.73,10.22,205.24,6.82,246.29-10.22c0,0,102.63,10.22,205.25-8.52s301-44.31,301-44.31l34.2-10.22v167h-1943Z"/><path class="cls-12" d="M1193.5,902.07s85.08-7.91,93.59-23.72c0,0-102.1,7.91-93.59-15.8h119.12l-8.51-31.62-8.51,15.81-8.51-15.81h-17l-8.51,7.9-17-7.9-8.51,7.9V823h-25.52l-17-15.8L1185,823l-8.51-15.8L1168,823l-8.51-31.61v23.71l-25.52-39.52v39.52l-25.53-63.23V783.5l-17-15.81-8.51-15.8-8.51,23.71-34-31.62-17,15.81L980.78,744v7.91L976,757.07l-12.25-21-9.28,18-24.76-18v23.71l-25.52-39.52v31.62l-25.53-23.72v23.72l-17-31.62V744l-8.5-39.52-17,23.71-17-23.71v15.81l-25.53-23.71v23.71l-17-39.52v39.52l-17-39.52v23.71l-17-23.71v31.61L717,696.56v7.9l-17-23.71v15.81l-25.53-15.81v23.71L649,664.94l-8.51,15.81-17-23.72-8.51,23.72V625.42l-17,55.33-8.51-31.62-17,7.9-8.51-31.61h-17V593.8l-25.53,23.71-17-23.71v15.81L478.78,578l-8.51,39.52-17-31.61-17,23.71V578l-17,15.81L393.69,578v7.91l-25.52-31.62V585.9l-25.53-55.33L317.11,593.8V570.09L291.59,585.9V538.47l-17,39.52-17-31.62L249.05,578l-25.53-39.52v31.62l-34-39.52v23.71L164,530.57v15.8l-34-31.61V902.07Z"/><path class="cls-13" d="M1237.08,807.07h-48.39s-11.16,7.44,22.34,7.44c0,0,22.33,3.72-22.34,7.45,0,0-22.33,0,14.89,18.61,0,0,11.17,7.44-7.44,11.17,0,0-7.45,3.72,7.44,7.44,0,0-33.5-3.72-33.5,7.45s22.34,14.89,22.34,14.89,26,7.44,29.78,26.05c3.72,0-44.67,11.17-22.34,33.5s104.23,3.73,104.23,3.73,55.83-33.51,55.83-52.12-70.72-14.89-70.72-14.89-14.89-3.72-11.17-7.44-22.33,0-22.33,0,3.72,0,3.72-11.17-26.06,0-26.06,0,18.61-22.33,33.5-26.06-11.16-7.44-11.16-7.44S1278,829.4,1278,822s-37.22-7.45-37.22-7.45-14.89,0-7.45-3.72S1237.08,807.07,1237.08,807.07Z"/><path class="cls-12" d="M1304.11,863.13s-52.34,0-29.08-5.82H1222.7s-5.82-5.81,11.63-5.81c0,0-5.82-17.45,40.7-17.45,0,0,0-11.63,17.45,0,0,0,0-11.63,5.82-11.63,0,0,0-11.63,5.81,0,0,0,5.82,5.81,11.63-5.82l5.82-11.63,5.81,17.45s5.82-5.82,17.45-5.82l5.81-11.63,5.82,5.82V793.34l5.81,11.63,5.82-11.63,5.82,5.82V781.71l5.81,11.63,5.82-23.26,5.81,11.63L1403,770.08l5.82,11.63,5.81-11.63,11.63,11.63,5.82-11.63,5.81,17.45s-5.81-11.63,11.64-11.63,11.63,5.81,11.63,5.81l17.44-11.63v5.82l17.45-5.82v5.82l11.63-11.63,5.81,5.81v-5.81l11.63,11.63,11.64-11.63V775.9l5.81-11.63,5.82,17.44,5.81-5.81,11.63,11.63V764.27l5.82,11.63,5.81-11.63,5.82,11.63,5.81-11.63,11.63,5.81,3.4-13.59,2.42-9.67,11.63,11.63,5.82-5.82,17.44,5.82,5.82-23.26,11.63,17.44,5.81-17.44,5.82,11.63,5.81-11.63v11.63l17.45-11.63v11.63l11.63-17.45v5.82l23.26-11.63v5.81l23.26-5.81,5.82,5.81,17.45-11.63,17.44,17.45,11.63-11.63,5.82-11.63,5.81,17.44,5.82-11.63,17.45-11.63,5.81,11.63,17.45-11.63,5.81,11.63,11.63-17.44,11.63,5.81,23.27,11.63,5.81-23.26,11.63,5.82,11.63,17.44,17.45-11.63,5.81-11.63h17.45v5.82l29.08-5.82V682.85h11.63v5.82L2031,700.3,2048.48,677v11.63L2060.11,677l5.81,5.81V868.94l-756-5.81Z"/><path class="cls-11" d="M2027.38,1132.07V902.51s28.11,28.11,37.48,28.11-4.69,0-4.69-9.37c0,0,4.69,4.68,32.8,4.68,0,0-14.06,0-4.69-9.36,0,0,18.74,9.36,23.43,9.36,0,0-18.74-9.36-4.69-18.73,0,0,4.69,18.73,23.43-4.69,0,0-14.06,4.69-9.37-4.68,0,0,23.42,4.68,37.47-9.37,0,0-23.42,9.37-14.05,0,0,0,9.37,0,23.42-9.37,0,0-14.05,4.68-9.37-4.69,0,0,9.37,4.69,9.37-4.68,0,0-9.37,4.68-4.68-4.69,0,0,18.74,0,18.74-14,0,0-4.69,9.37-9.37,4.68,0,0,18.74-14,18.74-23.42,0,0-32.8,28.11-32.8,18.74,0,0,9.37-4.69,0-14.06,0,0-28.1,23.43-32.79,14.06,0,0,9.37,0,9.37-9.37,0,0-23.42,18.74-28.11,9.37,0,4.68,9.37,0,9.37-9.37,0,0-42.16,14-42.16,4.68,0,0,4.68,0,4.68-9.37,0,0-42.16,9.37-37.48-14a43.85,43.85,0,0,0,32.8,4.68s-9.37-4.68,4.68-14c0,0,14.06,18.74,23.43,4.68,0,0-18.74-9.37-9.37-14,0,0,23.42,14,32.79,0,0,0-28.11,0-18.74-9.37,0,0,28.11,4.68,28.11-9.37,0,0-18.74,4.68-14.05-4.68,0,0,28.1,0,28.1-9.37,0,0-14,4.68-14-4.69,0,0,14-9.37,9.37-14,0,0-28.11,23.42-28.11,14v-9.37s4.69,9.37-18.74,18.74v-9.37s-18.74,23.42-37.48,14.06c0,0-28.11,0-23.42-14.06a23.54,23.54,0,0,0,23.42,4.69s-18.74-4.69-9.37-9.37c0,0,14.06,9.37,28.11,0,0,0-23.42-4.69-14-9.37,0,4.68,42.16,4.68,42.16,4.68s-9.37-4.68,0-9.37c0,0,28.11,4.69,28.11-14,0,0-37.48,14-42.16,4.68,0,0,32.79-4.68,28.11-18.74,0,0-9.37,9.37-14.06,4.69,0,0,18.74-4.69,18.74-18.74,0,0-23.42,18.74-37.48,18.74,0,0,18.74-18.74,4.69-18.74,0,0-4.69,18.74-42.17,9.37l-9.37-9.37h23.43S2041.43,687,2041.43,673c0,0,18.74,18.74,32.8,18.74,0,0-18.74-4.68-14.06-14.05,0,0,23.43,9.37,46.85,4.68,0,0-28.11,0-18.74-9.37,0,0,18.74,4.69,28.11-4.68,0,0-14,0-9.37-4.69,0,0,28.11-4.68,23.43-32.79,0,0-14.06,18.74-37.48,18.74l9.37-4.68s-18.74,0-28.11-4.69c0,0,28.11,4.69,32.79-9.37,0,0-28.11,0-28.11-4.68,0,0,4.69-4.69,4.69-14.06,0,0-9.37,9.37-28.11,4.69,0,0,14.05,0,14.05-9.37,0,0-23.42,14-32.79,0,0,0,14.05,0,14.05-9.37,0,0-14.05,4.68-14.05-9.37,0,0,14.05,9.37,18.74,0,0,0-9.37,0-9.37-9.37,0,0,28.11,4.68,32.79-9.37,0,0-23.42,4.68-23.42,0,0,0,9.37,4.68,9.37-9.37,0,0-23.43,0-23.43-9.37,0,0,28.11-4.69,28.11-18.74,0,0-42.16,14.05-42.16,0,0,0,51.53-9.37,51.53-18.74,0,0-14,4.69-14-4.68,0,0,28.11,0,28.11-18.74,0,0-18.74,9.37-18.74,4.68,0,0,9.37,0,9.37-14.05,0,0-37.48,32.79-56.22-4.69,0,0,46.85,0,46.85-14.05,0,0-18.74,4.68-18.74,0,0,0,28.11-14.06,23.42-28.11,0,0-28.11,14.05-32.79,4.68,0,0,14.05,0,14.05-18.74,0,0-23.42,18.74-28.11-4.68,0,0,18.74,0,18.74-9.37,0,0-18.74,4.68-18.74-4.69,0,0,32.8-4.68,32.8-18.73,0,0-23.43,9.37-28.11,0,0,0,14.05-4.69,14.05-14.06,0,0-18.74,9.37-23.42,0,0,0,14,0,14-14.05,0,0-18.74,0-18.74-18.74h9.37s-9.37,0-9.37-46.85"/><path class="cls-11" d="M2026.43,1131.34l-2-229.54s-27.86,28.35-37.23,28.44,4.68,0,4.6-9.41c0,0-4.64,4.72-32.75,5,0,0,14-.12,4.6-9.41,0,0-18.65,9.54-23.34,9.58,0,0,18.66-9.54,4.52-18.78,0,0-4.52,18.78-23.47-4.48,0,0,14.1,4.56,9.33-4.77,0,0-23.38,4.9-37.56-9,0,0,23.51,9.16,14.06-.13,0,0-9.37.09-23.51-9.16,0,0,14.09,4.56,9.33-4.77,0,0-9.33,4.77-9.41-4.6,0,0,9.41,4.6,4.64-4.72,0,0-18.74.16-18.86-13.89,0,0,4.76,9.33,9.41,4.6,0,0-18.87-13.89-19-23.26,0,0,33,27.82,33,18.45,0,0-9.41-4.6-.13-14,0,0,28.32,23.17,32.92,13.76,0,0-9.37.08-9.45-9.29,0,0,23.59,18.53,28.19,9.12,0,4.69-9.37.09-9.45-9.28,0,0,42.28,13.68,42.2,4.31,0,0-4.68,0-4.77-9.33,0,0,42.25,9,37.36-14.39a43.85,43.85,0,0,1-32.76,5s9.33-4.77-4.8-14c0,0-13.89,18.86-23.39,4.89,0,0,18.66-9.54,9.25-14.14,0,0-23.3,14.26-32.79.29,0,0,28.1-.25,18.65-9.53,0,0-28.07,4.93-28.19-9.12,0,0,18.78,4.52,14-4.81,0,0-28.11.25-28.19-9.12,0,0,14.1,4.56,14-4.81,0,0-14.13-9.25-9.49-14,0,0,28.32,23.17,28.23,13.8l-.08-9.37s-4.6,9.41,18.9,18.57l-.08-9.36s18.95,23.25,37.6,13.72c0,0,28.11-.25,23.3-14.27a23.52,23.52,0,0,1-23.38,4.9s18.7-4.85,9.29-9.46c0,0-14,9.5-28.11.25,0,0,23.38-4.89,14-9.49,0,4.69-42.12,5.06-42.12,5.06s9.33-4.77-.08-9.37c0,0-28.07,4.93-28.24-13.8,0,0,37.6,13.72,42.21,4.31,0,0-32.84-4.4-28.28-18.49,0,0,9.45,9.28,14.1,4.56,0,0-18.78-4.52-18.91-18.58,0,0,23.59,18.54,37.65,18.41,0,0-18.91-18.57-4.86-18.7,0,0,4.86,18.7,42.25,9l9.29-9.45-23.43.2s23.26-18.94,23.13-33c0,0-18.57,18.91-32.62,19,0,0,18.7-4.85,13.93-14.18,0,0-23.34,9.58-46.81,5.11,0,0,28.11-.25,18.66-9.54,0,0-18.7,4.85-28.15-4.44,0,0,14-.12,9.33-4.76,0,0-28.15-4.44-23.72-32.59,0,0,14.22,18.62,37.65,18.41l-9.42-4.6s18.74-.17,28.07-4.94c0,0-28.07,4.94-32.87-9.08,0,0,28.1-.25,28.06-4.93,0,0-4.72-4.64-4.81-14,0,0,9.45,9.28,28.15,4.43,0,0-14,.13-14.14-9.24,0,0,23.55,13.84,32.8-.29,0,0-14.06.12-14.14-9.25,0,0,14.1,4.56,14-9.49,0,0-14,9.49-18.74.16,0,0,9.37-.08,9.29-9.45,0,0-28.07,4.94-32.88-9.08,0,0,23.47,4.48,23.43-.2,0,0-9.33,4.76-9.46-9.29,0,0,23.43-.21,23.34-9.58,0,0-28.15-4.43-28.27-18.49,0,0,42.29,13.68,42.16-.37,0,0-51.61-8.91-51.7-18.28,0,0,14.1,4.56,14-4.81,0,0-28.11.25-28.28-18.49,0,0,18.82,9.2,18.78,4.52,0,0-9.37.08-9.49-14,0,0,37.77,32.46,56.17-5.19,0,0-46.84.42-47-13.63,0,0,18.78,4.51,18.74-.17,0,0-28.23-13.8-23.67-27.9,0,0,28.23,13.8,32.83,4.39,0,0-14,.13-14.22-18.61,0,0,23.59,18.53,28.07-4.93,0,0-18.74.16-18.83-9.21,0,0,18.78,4.52,18.7-4.85,0,0-32.83-4.39-33-18.45,0,0,23.51,9.17,28.11-.25,0,0-14.09-4.56-14.18-13.92,0,0,18.82,9.2,23.43-.21,0,0-14.06.12-14.18-13.93,0,0,18.74-.17,18.57-18.91l-9.37.09s9.37-.09,9-46.93"/><rect class="cls-11" x="2018.01" y="714.07" width="14.05" height="418"/><g class="cls-14"><path class="cls-11" d="M1852.56,1075.07V840.17s37.34,37.33,49.78,37.33-6.22,0-6.22-12.44c0,0,6.22,6.22,43.56,6.22,0,0-18.67,0-6.22-12.44,0,0,24.89,12.44,31.11,12.44,0,0-24.89-12.44-6.22-24.89,0,0,6.22,24.89,31.11-6.22,0,0-18.67,6.22-12.45-6.22,0,0,31.11,6.22,49.78-12.45,0,0-31.11,12.45-18.67,0,0,0,12.45,0,31.12-12.44,0,0-18.67,6.22-12.45-6.22,0,0,12.45,6.22,12.45-6.23,0,0-12.45,6.23-6.23-6.22,0,0,24.89,0,24.89-18.67,0,0-6.22,12.45-12.44,6.23,0,0,24.89-18.67,24.89-31.12,0,0-43.56,37.34-43.56,24.89,0,0,12.45-6.22,0-18.66,0,0-37.33,31.11-43.56,18.66,0,0,12.45,0,12.45-12.44,0,0-31.11,24.89-37.33,12.44,0,6.23,12.44,0,12.44-12.44,0,0-56,18.67-56,6.22,0,0,6.22,0,6.22-12.44,0,0-56,12.44-49.78-18.67a58.26,58.26,0,0,0,43.56,6.22s-12.45-6.22,6.22-18.66c0,0,18.67,24.88,31.11,6.22,0,0-24.89-12.45-12.44-18.67,0,0,31.11,18.67,43.55,0,0,0-37.33,0-24.88-12.44,0,0,37.33,6.22,37.33-12.45,0,0-24.89,6.22-18.67-6.22,0,0,37.34,0,37.34-12.45,0,0-18.67,6.23-18.67-6.22,0,0,18.67-12.44,12.44-18.67,0,0-37.33,31.12-37.33,18.67V647.28s6.22,12.44-24.89,24.89V659.72s-24.89,31.11-49.78,18.67c0,0-37.33,0-31.11-18.67a31.24,31.24,0,0,0,31.11,6.22s-24.89-6.22-12.44-12.44c0,0,18.66,12.44,37.33,0,0,0-31.11-6.22-18.67-12.45,0,6.23,56,6.23,56,6.23s-12.45-6.23,0-12.45c0,0,37.33,6.22,37.33-18.66,0,0-49.78,18.66-56,6.22,0,0,43.55-6.22,37.33-24.89,0,0-12.44,12.44-18.66,6.22,0,0,24.88-6.22,24.88-24.89,0,0-31.11,24.89-49.77,24.89,0,0,24.89-24.89,6.22-24.89,0,0-6.22,24.89-56,12.45l-12.45-12.45h31.11s-31.11-24.89-31.11-43.56c0,0,24.89,24.89,43.56,24.89,0,0-24.89-6.22-18.67-18.66,0,0,31.11,12.44,62.23,6.22,0,0-37.34,0-24.89-12.45,0,0,24.89,6.23,37.33-6.22,0,0-18.67,0-12.44-6.22,0,0,37.33-6.22,31.11-43.56,0,0-18.67,24.89-49.78,24.89l12.44-6.22s-24.89,0-37.33-6.22c0,0,37.33,6.22,43.56-12.45,0,0-37.34,0-37.34-6.22,0,0,6.22-6.22,6.22-18.67,0,0-12.44,12.45-37.33,6.23,0,0,18.67,0,18.67-12.45,0,0-31.12,18.67-43.56,0,0,0,18.67,0,18.67-12.44,0,0-18.67,6.22-18.67-12.45,0,0,18.67,12.45,24.89,0,0,0-12.45,0-12.45-12.44,0,0,37.34,6.22,43.56-12.45,0,0-31.11,6.22-31.11,0,0,0,12.44,6.22,12.44-12.44,0,0-31.11,0-31.11-12.45,0,0,37.34-6.22,37.34-24.89,0,0-56,18.67-56,0,0,0,68.45-12.44,68.45-24.89,0,0-18.67,6.23-18.67-6.22,0,0,37.34,0,37.34-24.89,0,0-24.89,12.45-24.89,6.22,0,0,12.44,0,12.44-18.66,0,0-49.78,43.55-74.67-6.23,0,0,62.23,0,62.23-18.66,0,0-24.89,6.22-24.89,0,0,0,37.33-18.67,31.11-37.34,0,0-37.33,18.67-43.56,6.23,0,0,18.67,0,18.67-24.89,0,0-31.11,24.89-37.33-6.23,0,0,24.89,0,24.89-12.44,0,0-24.89,6.22-24.89-6.22,0,0,43.55-6.23,43.55-24.89,0,0-31.11,12.44-37.33,0,0,0,18.67-6.23,18.67-18.67,0,0-24.89,12.44-31.12,0,0,0,18.67,0,18.67-18.67,0,0-24.89,0-24.89-24.89h12.45s-12.45,0-12.45-62.22"/><path class="cls-11" d="M1851.31,1074.11l-2.71-234.89s-37,37.67-49.44,37.78,6.22-.06,6.11-12.5c0,0-6.17,6.27-43.5,6.61,0,0,18.67-.17,6.11-12.5,0,0-24.78,12.66-31,12.72,0,0,24.78-12.67,6-25,0,0-6,25-31.16-5.94,0,0,18.72,6,12.39-6.34,0,0-31.06,6.5-49.89-12,0,0,31.22,12.17,18.66-.16,0,0-12.44.11-31.22-12.17,0,0,18.72,6.05,12.39-6.33,0,0-12.39,6.33-12.5-6.12,0,0,12.5,6.12,6.17-6.27,0,0-24.89.22-25-18.45,0,0,6.33,12.39,12.49,6.11,0,0-25.05-18.44-25.16-30.89,0,0,43.89,36.95,43.78,24.5,0,0-12.5-6.11-.17-18.66,0,0,37.61,30.78,43.72,18.28,0,0-12.44.11-12.55-12.34,0,0,31.33,24.62,37.44,12.12,0,6.22-12.44.11-12.56-12.34,0,0,56.17,18.17,56.06,5.73,0,0-6.22,0-6.33-12.39,0,0,56.11,11.95,49.61-19.11a58.24,58.24,0,0,1-43.5,6.61s12.39-6.33-6.39-18.61c0,0-18.45,25-31.06,6.5,0,0,24.78-12.67,12.28-18.78,0,0-30.94,18.94-43.55.39,0,0,37.33-.33,24.78-12.67,0,0-37.28,6.56-37.45-12.11,0,0,25,6,18.61-6.39,0,0-37.33.33-37.44-12.11,0,0,18.72,6,18.61-6.39,0,0-18.77-12.28-12.61-18.56,0,0,37.61,30.78,37.5,18.34-.16-18.67-.11-12.45-.11-12.45s-6.11,12.5,25.11,24.67l-.11-12.44s25.16,30.89,49.94,18.22c0,0,37.33-.33,31-18.94a31.29,31.29,0,0,1-31.06,6.5s24.83-6.44,12.34-12.56c0,0-18.56,12.61-37.34.34,0,0,31.06-6.5,18.56-12.61,0,6.22-56,6.71-56,6.71s12.39-6.33-.11-12.44c0,0-37.27,6.55-37.49-18.33,0,0,49.94,18.22,56,5.72,0,0-43.61-5.84-37.55-24.56,0,0,12.55,12.34,18.72,6.06,0,0-25-6-25.11-24.67,0,0,31.33,24.61,50,24.45,0,0-25.11-24.67-6.45-24.83,0,0,6.45,24.83,56.11,11.94l12.34-12.55-31.11.27s30.89-25.16,30.72-43.83c0,0-24.67,25.11-43.33,25.28,0,0,24.83-6.45,18.5-18.83,0,0-31,12.72-62.17,6.77,0,0,37.33-.33,24.78-12.66,0,0-24.83,6.44-37.39-5.9,0,0,18.67-.16,12.39-6.33,0,0-37.39-5.89-31.5-43.28,0,0,18.89,24.73,50,24.45l-12.5-6.11s24.89-.22,37.28-6.56c0,0-37.28,6.56-43.67-12.05,0,0,37.34-.33,37.28-6.56,0,0-6.28-6.16-6.39-18.61,0,0,12.56,12.34,37.39,5.89,0,0-18.67.17-18.78-12.28,0,0,31.28,18.39,43.56-.38,0,0-18.67.16-18.78-12.28,0,0,18.72,6.06,18.56-12.61,0,0-18.56,12.61-24.89.22,0,0,12.44-.11,12.33-12.55,0,0-37.27,6.55-43.66-12.06,0,0,31.16,5.94,31.11-.28,0,0-12.39,6.33-12.56-12.33,0,0,31.11-.28,31-12.72,0,0-37.38-5.89-37.55-24.56,0,0,56.16,18.17,56-.5,0,0-68.55-11.83-68.67-24.28,0,0,18.73,6.06,18.62-6.39,0,0-37.34.34-37.56-24.55,0,0,25,12.22,24.95,6,0,0-12.45.11-12.61-18.56,0,0,50.16,43.12,74.61-6.88,0,0-62.22.55-62.39-18.12,0,0,24.94,6,24.89-.22,0,0-37.5-18.33-31.44-37,0,0,37.49,18.33,43.61,5.83,0,0-18.67.17-18.89-24.72,0,0,31.33,24.61,37.28-6.55,0,0-24.89.22-25-12.23,0,0,24.94,6,24.83-6.44,0,0-43.61-5.84-43.78-24.5,0,0,31.23,12.16,37.34-.33,0,0-18.72-6.06-18.83-18.51,0,0,25,12.23,31.11-.27,0,0-18.67.16-18.84-18.5,0,0,24.89-.22,24.67-25.11l-12.44.11s12.44-.11,11.89-62.33"/><rect class="cls-11" x="1840.12" y="633.07" width="18.67" height="447"/></g><path class="cls-11" d="M397.38,1132.07V902.51s28.11,28.11,37.48,28.11-4.69,0-4.69-9.37c0,0,4.69,4.68,32.8,4.68,0,0-14.06,0-4.69-9.36,0,0,18.74,9.36,23.43,9.36,0,0-18.74-9.36-4.69-18.73,0,0,4.69,18.73,23.43-4.69,0,0-14.06,4.69-9.37-4.68,0,0,23.42,4.68,37.47-9.37,0,0-23.42,9.37-14,0,0,0,9.37,0,23.42-9.37,0,0-14,4.68-9.37-4.69,0,0,9.37,4.69,9.37-4.68,0,0-9.37,4.68-4.68-4.69,0,0,18.74,0,18.74-14,0,0-4.69,9.37-9.37,4.68,0,0,18.74-14,18.74-23.42,0,0-32.8,28.11-32.8,18.74,0,0,9.37-4.69,0-14.06,0,0-28.1,23.43-32.79,14.06,0,0,9.37,0,9.37-9.37,0,0-23.42,18.74-28.11,9.37,0,4.68,9.37,0,9.37-9.37,0,0-42.16,14-42.16,4.68,0,0,4.68,0,4.68-9.37,0,0-42.16,9.37-37.48-14a43.85,43.85,0,0,0,32.8,4.68s-9.37-4.68,4.68-14c0,0,14.06,18.74,23.43,4.68,0,0-18.74-9.37-9.37-14,0,0,23.42,14,32.79,0,0,0-28.11,0-18.74-9.37,0,0,28.11,4.68,28.11-9.37,0,0-18.74,4.68-14.05-4.68,0,0,28.1,0,28.1-9.37,0,0-14,4.68-14-4.69,0,0,14-9.37,9.37-14,0,0-28.11,23.42-28.11,14v-9.37s4.69,9.37-18.74,18.74v-9.37s-18.74,23.42-37.48,14.06c0,0-28.11,0-23.42-14.06a23.54,23.54,0,0,0,23.42,4.69s-18.74-4.69-9.37-9.37c0,0,14.06,9.37,28.11,0,0,0-23.42-4.69-14.05-9.37,0,4.68,42.16,4.68,42.16,4.68s-9.37-4.68,0-9.37c0,0,28.11,4.69,28.11-14,0,0-37.48,14-42.16,4.68,0,0,32.79-4.68,28.11-18.74,0,0-9.37,9.37-14.06,4.69,0,0,18.74-4.69,18.74-18.74,0,0-23.42,18.74-37.48,18.74,0,0,18.74-18.74,4.69-18.74,0,0-4.69,18.74-42.17,9.37l-9.37-9.37h23.43S411.43,687,411.43,673c0,0,18.74,18.74,32.8,18.74,0,0-18.74-4.68-14.06-14.05,0,0,23.43,9.37,46.85,4.68,0,0-28.11,0-18.74-9.37,0,0,18.74,4.69,28.11-4.68,0,0-14.05,0-9.37-4.69,0,0,28.11-4.68,23.43-32.79,0,0-14.06,18.74-37.48,18.74l9.37-4.68s-18.74,0-28.11-4.69c0,0,28.11,4.69,32.79-9.37,0,0-28.11,0-28.11-4.68,0,0,4.69-4.69,4.69-14.06,0,0-9.37,9.37-28.11,4.69,0,0,14.05,0,14.05-9.37,0,0-23.42,14-32.79,0,0,0,14.05,0,14.05-9.37,0,0-14.05,4.68-14.05-9.37,0,0,14.05,9.37,18.74,0,0,0-9.37,0-9.37-9.37,0,0,28.11,4.68,32.79-9.37,0,0-23.42,4.68-23.42,0,0,0,9.37,4.68,9.37-9.37,0,0-23.43,0-23.43-9.37,0,0,28.11-4.69,28.11-18.74,0,0-42.16,14.05-42.16,0,0,0,51.53-9.37,51.53-18.74,0,0-14.05,4.69-14.05-4.68,0,0,28.11,0,28.11-18.74,0,0-18.74,9.37-18.74,4.68,0,0,9.37,0,9.37-14.05,0,0-37.48,32.79-56.22-4.69,0,0,46.85,0,46.85-14.05,0,0-18.74,4.68-18.74,0,0,0,28.11-14.06,23.42-28.11,0,0-28.11,14.05-32.79,4.68,0,0,14.05,0,14.05-18.74,0,0-23.42,18.74-28.11-4.68,0,0,18.74,0,18.74-9.37,0,0-18.74,4.68-18.74-4.69,0,0,32.8-4.68,32.8-18.73,0,0-23.43,9.37-28.11,0,0,0,14.05-4.69,14.05-14.06,0,0-18.74,9.37-23.42,0,0,0,14.05,0,14.05-14.05,0,0-18.74,0-18.74-18.74h9.37s-9.37,0-9.37-46.85"/><path class="cls-11" d="M396.43,1131.34l-2-229.54s-27.86,28.35-37.23,28.44,4.68,0,4.6-9.41c0,0-4.64,4.72-32.75,5,0,0,14.05-.12,4.6-9.41,0,0-18.65,9.54-23.34,9.58,0,0,18.66-9.54,4.52-18.78,0,0-4.52,18.78-23.47-4.48,0,0,14.1,4.56,9.33-4.77,0,0-23.38,4.9-37.56-9,0,0,23.51,9.16,14.06-.13,0,0-9.37.09-23.51-9.16,0,0,14.09,4.56,9.33-4.77,0,0-9.33,4.77-9.41-4.6,0,0,9.41,4.6,4.64-4.72,0,0-18.74.16-18.86-13.89,0,0,4.76,9.33,9.41,4.6,0,0-18.87-13.89-18.95-23.26,0,0,33,27.82,33,18.45,0,0-9.41-4.6-.13-14,0,0,28.32,23.17,32.92,13.76,0,0-9.37.08-9.45-9.29,0,0,23.59,18.53,28.19,9.12,0,4.69-9.37.09-9.45-9.28,0,0,42.28,13.68,42.2,4.31,0,0-4.68,0-4.77-9.33,0,0,42.25,9,37.36-14.39a43.85,43.85,0,0,1-32.76,5s9.33-4.77-4.8-14c0,0-13.89,18.86-23.39,4.89,0,0,18.66-9.54,9.25-14.14,0,0-23.3,14.26-32.79.29,0,0,28.1-.25,18.65-9.53,0,0-28.07,4.93-28.19-9.12,0,0,18.78,4.52,14-4.81,0,0-28.11.25-28.19-9.12,0,0,14.1,4.56,14-4.81,0,0-14.13-9.25-9.49-14,0,0,28.32,23.17,28.23,13.8l-.08-9.37s-4.6,9.41,18.9,18.57l-.08-9.36s18.95,23.25,37.6,13.72c0,0,28.11-.25,23.3-14.27a23.52,23.52,0,0,1-23.38,4.9s18.7-4.85,9.29-9.46c0,0-14,9.5-28.11.25,0,0,23.38-4.89,14-9.49,0,4.69-42.12,5.06-42.12,5.06s9.33-4.77-.08-9.37c0,0-28.07,4.93-28.24-13.8,0,0,37.6,13.72,42.21,4.31,0,0-32.84-4.4-28.28-18.49,0,0,9.45,9.28,14.1,4.56,0,0-18.78-4.52-18.91-18.58,0,0,23.59,18.54,37.65,18.41,0,0-18.91-18.57-4.86-18.7,0,0,4.86,18.7,42.25,9l9.29-9.45-23.43.2s23.26-18.94,23.13-33c0,0-18.57,18.91-32.62,19,0,0,18.7-4.85,13.93-14.18,0,0-23.34,9.58-46.81,5.11,0,0,28.11-.25,18.66-9.54,0,0-18.7,4.85-28.15-4.44,0,0,14.05-.12,9.33-4.76,0,0-28.15-4.44-23.72-32.59,0,0,14.22,18.62,37.65,18.41l-9.42-4.6s18.74-.17,28.07-4.94c0,0-28.07,4.94-32.87-9.08,0,0,28.1-.25,28.06-4.93,0,0-4.72-4.64-4.81-14,0,0,9.45,9.28,28.15,4.43,0,0-14.05.13-14.14-9.24,0,0,23.55,13.84,32.8-.29,0,0-14.06.12-14.14-9.25,0,0,14.1,4.56,14-9.49,0,0-14,9.49-18.74.16,0,0,9.37-.08,9.29-9.45,0,0-28.07,4.94-32.88-9.08,0,0,23.47,4.48,23.43-.2,0,0-9.33,4.76-9.46-9.29,0,0,23.43-.21,23.34-9.58,0,0-28.15-4.43-28.27-18.49,0,0,42.29,13.68,42.16-.37,0,0-51.61-8.91-51.7-18.28,0,0,14.1,4.56,14-4.81,0,0-28.11.25-28.28-18.49,0,0,18.82,9.2,18.78,4.52,0,0-9.37.08-9.49-14,0,0,37.77,32.46,56.17-5.19,0,0-46.84.42-47-13.63,0,0,18.78,4.51,18.74-.17,0,0-28.23-13.8-23.67-27.9,0,0,28.23,13.8,32.83,4.39,0,0-14.05.13-14.22-18.61,0,0,23.59,18.53,28.07-4.93,0,0-18.74.16-18.83-9.21,0,0,18.78,4.52,18.7-4.85,0,0-32.83-4.39-33-18.45,0,0,23.51,9.17,28.11-.25,0,0-14.09-4.56-14.18-13.92,0,0,18.82,9.2,23.43-.21,0,0-14.06.12-14.18-13.93,0,0,18.74-.17,18.57-18.91l-9.37.09s9.37-.09,8.95-46.93"/><rect class="cls-11" x="388.01" y="714.07" width="14.05" height="418"/><g class="cls-14"><path class="cls-11" d="M222.56,1145.07V840.17s37.34,37.33,49.78,37.33-6.22,0-6.22-12.44c0,0,6.22,6.22,43.56,6.22,0,0-18.67,0-6.22-12.44,0,0,24.89,12.44,31.11,12.44,0,0-24.89-12.44-6.22-24.89,0,0,6.22,24.89,31.11-6.22,0,0-18.67,6.22-12.45-6.22,0,0,31.11,6.22,49.78-12.45,0,0-31.11,12.45-18.67,0,0,0,12.45,0,31.12-12.44,0,0-18.67,6.22-12.45-6.22,0,0,12.45,6.22,12.45-6.23,0,0-12.45,6.23-6.23-6.22,0,0,24.89,0,24.89-18.67,0,0-6.22,12.45-12.44,6.23,0,0,24.89-18.67,24.89-31.12,0,0-43.56,37.34-43.56,24.89,0,0,12.45-6.22,0-18.66,0,0-37.33,31.11-43.56,18.66,0,0,12.45,0,12.45-12.44,0,0-31.11,24.89-37.33,12.44,0,6.23,12.44,0,12.44-12.44,0,0-56,18.67-56,6.22,0,0,6.22,0,6.22-12.44,0,0-56,12.44-49.78-18.67a58.26,58.26,0,0,0,43.56,6.22S272.34,734.39,291,722c0,0,18.67,24.88,31.11,6.22,0,0-24.89-12.45-12.44-18.67,0,0,31.11,18.67,43.55,0,0,0-37.33,0-24.88-12.44,0,0,37.33,6.22,37.33-12.45,0,0-24.89,6.22-18.67-6.22,0,0,37.34,0,37.34-12.45,0,0-18.67,6.23-18.67-6.22,0,0,18.67-12.44,12.44-18.67,0,0-37.33,31.12-37.33,18.67V647.28s6.22,12.44-24.89,24.89V659.72S291,690.83,266.12,678.39c0,0-37.33,0-31.11-18.67a31.24,31.24,0,0,0,31.11,6.22s-24.89-6.22-12.44-12.44c0,0,18.66,12.44,37.33,0,0,0-31.11-6.22-18.67-12.45,0,6.23,56,6.23,56,6.23s-12.45-6.23,0-12.45c0,0,37.33,6.22,37.33-18.66,0,0-49.78,18.66-56,6.22,0,0,43.55-6.22,37.33-24.89,0,0-12.44,12.44-18.66,6.22,0,0,24.88-6.22,24.88-24.89,0,0-31.11,24.89-49.77,24.89,0,0,24.89-24.89,6.22-24.89,0,0-6.22,24.89-56,12.45l-12.45-12.45h31.11s-31.11-24.89-31.11-43.56c0,0,24.89,24.89,43.56,24.89,0,0-24.89-6.22-18.67-18.66,0,0,31.11,12.44,62.23,6.22,0,0-37.34,0-24.89-12.45,0,0,24.89,6.23,37.33-6.22,0,0-18.67,0-12.44-6.22,0,0,37.33-6.22,31.11-43.56,0,0-18.67,24.89-49.78,24.89l12.44-6.22s-24.89,0-37.33-6.22c0,0,37.33,6.22,43.56-12.45,0,0-37.34,0-37.34-6.22,0,0,6.22-6.22,6.22-18.67,0,0-12.44,12.45-37.33,6.23,0,0,18.67,0,18.67-12.45,0,0-31.12,18.67-43.56,0,0,0,18.67,0,18.67-12.44,0,0-18.67,6.22-18.67-12.45,0,0,18.67,12.45,24.89,0,0,0-12.45,0-12.45-12.44,0,0,37.34,6.22,43.56-12.45,0,0-31.11,6.22-31.11,0,0,0,12.44,6.22,12.44-12.44,0,0-31.11,0-31.11-12.45,0,0,37.34-6.22,37.34-24.89,0,0-56,18.67-56,0,0,0,68.45-12.44,68.45-24.89,0,0-18.67,6.23-18.67-6.22,0,0,37.34,0,37.34-24.89,0,0-24.89,12.45-24.89,6.22,0,0,12.44,0,12.44-18.66,0,0-49.78,43.55-74.67-6.23,0,0,62.23,0,62.23-18.66,0,0-24.89,6.22-24.89,0,0,0,37.33-18.67,31.11-37.34,0,0-37.33,18.67-43.56,6.23,0,0,18.67,0,18.67-24.89,0,0-31.11,24.89-37.33-6.23,0,0,24.89,0,24.89-12.44,0,0-24.89,6.22-24.89-6.22,0,0,43.55-6.23,43.55-24.89,0,0-31.11,12.44-37.33,0,0,0,18.67-6.23,18.67-18.67,0,0-24.89,12.44-31.12,0,0,0,18.67,0,18.67-18.67,0,0-24.89,0-24.89-24.89h12.45s-12.45,0-12.45-62.22"/><path class="cls-11" d="M221.31,1144.11,218.6,839.22s-37,37.67-49.44,37.78,6.22-.06,6.11-12.5c0,0-6.17,6.27-43.5,6.61,0,0,18.67-.17,6.11-12.5,0,0-24.78,12.66-31,12.72,0,0,24.78-12.67,6-25,0,0-6,25-31.16-5.94,0,0,18.72,6,12.39-6.34,0,0-31.06,6.5-49.89-12,0,0,31.22,12.17,18.66-.16,0,0-12.44.11-31.22-12.17,0,0,18.72,6.05,12.39-6.33,0,0-12.39,6.33-12.5-6.12,0,0,12.5,6.12,6.17-6.27,0,0-24.89.22-25-18.45,0,0,6.33,12.39,12.49,6.11,0,0-25-18.44-25.16-30.89,0,0,43.89,36.95,43.78,24.5,0,0-12.5-6.11-.17-18.66,0,0,37.61,30.78,43.72,18.28,0,0-12.44.11-12.55-12.34,0,0,31.33,24.62,37.44,12.12,0,6.22-12.44.11-12.56-12.34,0,0,56.17,18.17,56.06,5.73,0,0-6.22,0-6.33-12.39,0,0,56.11,11.95,49.61-19.11a58.24,58.24,0,0,1-43.5,6.61s12.39-6.33-6.39-18.61c0,0-18.45,25-31.06,6.5,0,0,24.78-12.67,12.28-18.78,0,0-30.94,18.94-43.55.39,0,0,37.33-.33,24.78-12.67,0,0-37.28,6.56-37.45-12.11,0,0,25,6,18.61-6.39,0,0-37.33.33-37.44-12.11,0,0,18.72,6,18.61-6.39,0,0-18.77-12.28-12.61-18.56,0,0,37.61,30.78,37.5,18.34-.16-18.67-.11-12.45-.11-12.45s-6.11,12.5,25.11,24.67l-.11-12.44s25.16,30.89,49.94,18.22c0,0,37.33-.33,30.95-18.94a31.29,31.29,0,0,1-31.06,6.5s24.83-6.44,12.34-12.56c0,0-18.56,12.61-37.34.34,0,0,31.06-6.5,18.56-12.61.05,6.22-55.95,6.71-55.95,6.71s12.39-6.33-.11-12.44c0,0-37.27,6.55-37.49-18.33,0,0,49.94,18.22,56.05,5.72,0,0-43.61-5.84-37.55-24.56,0,0,12.55,12.34,18.72,6.06,0,0-25-6-25.11-24.67,0,0,31.33,24.61,50,24.45,0,0-25.11-24.67-6.45-24.83,0,0,6.45,24.83,56.11,11.94l12.34-12.55-31.11.27s30.89-25.16,30.72-43.83c0,0-24.67,25.11-43.33,25.28,0,0,24.83-6.45,18.5-18.83,0,0-31,12.72-62.17,6.77,0,0,37.33-.33,24.78-12.66,0,0-24.83,6.44-37.39-5.9,0,0,18.67-.16,12.39-6.33,0,0-37.39-5.89-31.5-43.28,0,0,18.89,24.73,50,24.45L116,497.89s24.89-.22,37.28-6.56c0,0-37.28,6.56-43.67-12.05,0,0,37.34-.33,37.28-6.56,0,0-6.28-6.16-6.39-18.61,0,0,12.56,12.34,37.39,5.89,0,0-18.67.17-18.78-12.28,0,0,31.28,18.39,43.56-.38,0,0-18.67.16-18.78-12.28,0,0,18.72,6.06,18.56-12.61,0,0-18.56,12.61-24.89.22,0,0,12.44-.11,12.33-12.55,0,0-37.27,6.55-43.66-12.06,0,0,31.16,5.94,31.11-.28,0,0-12.39,6.33-12.56-12.33,0,0,31.11-.28,31-12.72,0,0-37.38-5.89-37.55-24.56,0,0,56.16,18.17,56-.5,0,0-68.55-11.83-68.67-24.28,0,0,18.73,6.06,18.62-6.39,0,0-37.34.34-37.56-24.55,0,0,25,12.22,25,6,0,0-12.45.11-12.61-18.56,0,0,50.16,43.12,74.61-6.88,0,0-62.22.55-62.39-18.12,0,0,24.94,6,24.89-.22,0,0-37.5-18.33-31.44-37,0,0,37.49,18.33,43.61,5.83,0,0-18.67.17-18.89-24.72,0,0,31.33,24.61,37.28-6.55,0,0-24.89.22-25-12.23,0,0,24.94,6,24.83-6.44,0,0-43.61-5.84-43.78-24.5,0,0,31.23,12.16,37.34-.33,0,0-18.72-6.06-18.83-18.51,0,0,25,12.23,31.11-.27,0,0-18.67.16-18.84-18.5,0,0,24.89-.22,24.67-25.11l-12.44.11s12.44-.11,11.89-62.33"/><rect class="cls-11" x="210.12" y="632.07" width="18.67" height="513"/></g><polygon class="cls-11" points="1215.24 817.75 1217.92 813.07 1217.92 789.57 1241.7 789.57 1241.92 781.57 1288.92 783.07 1286.56 811.79 1241.42 805.02 1215.24 817.75"/><path d="M1241.92,959.57s6.45,46,66.65,46,62.35-40,62.35-40l-1.61-101.73s-65-9.27-81.16,93.73Z"/><path d="M1434.92,971.57s6,46,62,46,58-40,58-40l-1.5-101.73s-60.5-9.27-75.5,93.73Z"/><polygon class="cls-15" points="1191.42 928.57 1184.42 958.57 1285.1 965.23 1325.42 890.57 1364.85 864.1 1379.42 799.57 1355.42 796.57 1284.42 813.57 1256.42 926.57 1191.42 928.57"/><path class="cls-16" d="M1568.92,858.57l-62-155-108-34-157,112,3,6,9-6,34,3,2,6,22,4,25-13v-21l82-47L1462.2,725l15.22,64.12,50.5,11.5,9,27-73-9s7-17-20-18-29.06-6-29.06-6l-21.94,4-10-2-19,71V905l186,8.6s0,93,34,101,112,15,112,15-64-38-59-108c3-8-9-40-9-40l3-19,121-17,8-12Z"/><path class="cls-17" d="M1379.92,803.07l-12-4s-12,69-27,76-33,17-33,17l-30,72h17l26-64s39-18,42-26S1379.92,803.07,1379.92,803.07Z"/><path class="cls-11" d="M1241.92,803.07l43,6,6,10,39-16,27,4s-6,40-12,40h-21l-37,9-28,103h-23l3-27,5-5,5-89Z"/><path class="cls-18" d="M1646.92,1027.07c25,10,54.06,3,54.06,3s-49.06-34-49.06-79,27-77,27-77-.47-.09-1.35-.2c-6-.81-30.34-3.26-48.65,7.2-21,12-22,55-21,78C1607.92,959.07,1605.92,1001.07,1646.92,1027.07Z"/><polygon class="cls-11" points="1243.92 803.07 1204.92 823.07 1197.92 859.07 1191.92 929.07 1239.92 929.07 1243.92 927.07 1250.92 838.07 1243.92 803.07"/><path class="cls-15" d="M1241.92,803.07l-40,22-5,48-4,56h3.35l3.65-53,40-5v58l4-2,7-89Zm-36,67-6,2,1-13,6-23,31-17,5,20-4,22Z"/><polygon class="cls-11" points="1238.92 784.07 1238.92 773.07 1396.92 650.07 1401.92 659.07 1522.92 701.07 1552.92 743.07 1736.92 799.07 1757.92 834.07 1568.92 860.07 1502.92 705.07 1395.92 671.07 1238.92 784.07"/><polygon class="cls-15" points="1515.92 733.07 1735.92 797.07 1756.92 832.07 1750.92 834.07 1731.92 803.07 1719.92 803.07 1736.92 837.07 1728.92 840.07 1724.92 830.07 1652.92 812.07 1667.92 847.07 1656.92 849.07 1654.92 844.07 1555.92 824.07 1548.92 806.07 1647.92 827.07 1640.92 809.07 1540.36 787.21 1528.92 768.07 1717.92 813.07 1711.92 799.07 1522.92 748.07 1515.92 733.07"/><polygon class="cls-18" points="1667.36 886.47 1662.92 884.07 1660.92 890.07 1663.92 893.07 1657.92 890.07 1654.92 897.07 1660.92 900.07 1652.92 900.07 1652.92 906.07 1656.92 908.07 1650.92 908.07 1650.92 917.07 1652.92 919.07 1647.92 921.07 1647.92 930.07 1653.92 932.07 1645.92 932.07 1645.92 944.07 1651.92 944.07 1645.92 949.07 1645.92 955.07 1652.92 957.07 1645.92 961.07 1650.92 969.07 1656.92 969.07 1651.92 972.07 1653.92 982.07 1658.92 980.07 1654.92 986.07 1658.92 994.07 1664.92 991.07 1659.92 997.07 1665.92 1006.07 1670.92 1002.07 1665.92 1008.07 1671.92 1015.07 1676.92 1010.07 1673.92 1017.07 1679.92 1022.07 1683.92 1017.07 1680.92 1024.07 1688.92 1028.07 1690.92 1023.07 1689.92 1029.07 1696.92 1030.07 1697.92 1025.07 1697.92 1031.07 1704.92 1031.07 1704.92 1026.07 1706.92 1031.07 1712.92 1030.07 1711.92 1025.07 1713.92 1029.07 1716.92 1025.07 1715.92 1021.07 1717.92 1025.07 1722.92 1020.07 1721.92 1016.07 1724.92 1019.07 1728.92 1013.07 1726.92 1009.07 1728.92 1011.07 1733.92 1006.07 1730.92 1003.07 1733.92 1004.07 1734.92 998.07 1732.92 996.07 1734.92 995.07 1736.92 989.07 1733.79 989.23 1736.92 988.07 1737.92 983.07 1734.92 981.07 1738.92 979.07 1738.92 970.07 1734.92 967.07 1738.92 966.07 1736.92 958.07 1734.92 958.07 1736.92 955.07 1736.92 947.07 1733.92 947.07 1735.92 943.07 1734.92 933.07 1731.92 932.07 1733.92 930.07 1731.92 924.07 1725.92 924.07 1728.92 919.07 1726.92 912.07 1721.92 912.07 1724.92 908.07 1721.92 903.07 1716.92 903.07 1718.92 899.07 1714.92 893.07 1712.92 898.07 1712.92 891.07 1708.92 886.07 1708.92 890.07 1705.92 884.07 1700.92 880.07 1700.98 887.13 1697.92 879.07 1693.92 876.07 1693.92 882.07 1690.92 876.07 1685.92 874.07 1684.92 880.07 1682.92 874.07 1677.92 876.07 1677.92 881.07 1673.92 876.07 1669.92 878.07 1671.92 883.07 1668.92 880.07 1665.92 881.07 1667.36 886.47"/><path class="cls-15" d="M1473.92,791.07l-13-61s-2-5-9-7-29-8-29-8a12.81,12.81,0,0,0-13,0c-7,4-25,16-25,16l-9,5s-3,1-4,9-7,28-7,28Z"/><path class="cls-18" d="M1404.92,754.07l4-25s2-4-3-1-28,15-28,15-2,1-3,5-5,21-5,21-1,2,2,1S1404.92,754.07,1404.92,754.07Z"/><path class="cls-18" d="M1440.92,760.07s6,2,6-5v-17s0-3-4-4-18-4-18-4-9-3-9,2-2,23-2,23-1,3,4,4S1440.92,760.07,1440.92,760.07Z"/><polygon class="cls-11" points="1477.09 791.07 1467.92 760.07 1404.92 762.07 1394.92 763.07 1389.92 778.07 1477.09 791.07"/><polygon class="cls-19" points="1247.92 762.07 1221.92 782.38 1215.92 787.07 1213.92 805.07 1249.92 782.07 1247.92 762.07"/><line class="cls-19" x1="1221.42" y1="813.57" x2="1221.42" y2="783.5"/><line class="cls-19" x1="1230.4" y1="809.4" x2="1232.62" y2="774.02"/><line class="cls-19" x1="1241.42" y1="802.57" x2="1242.2" y2="766.54"/><line class="cls-19" x1="1254.92" y1="805.02" x2="1256.42" y2="762.57"/><path class="cls-19" d="M1248.42,762.57l34,4s5,0,4,14"/><path class="cls-18" d="M1459.92,847.07s-44-6-74,22-35.5,73-35.5,73-8.5,35,21.5,70,73,33,73,33-70-59-58-104S1459.92,847.07,1459.92,847.07Z"/><path class="cls-15" d="M1373.92,942.07s-11,9-16,8,11,4,19-3l1-3Z"/><path class="cls-15" d="M1355.92,932.07s6,3,15,0,10.61-3.7,10.61-3.7l-2.61-2a27.18,27.18,0,0,0-12,2.74C1363.92,931.07,1355.92,932.07,1355.92,932.07Z"/><path class="cls-15" d="M1362.92,914.07c3,1,10-2,10-2,7-2,9-1,9-1l3.41,1.94a41.76,41.76,0,0,0-11.41,2.06c-6,2-14,0-14,0Z"/><path class="cls-15" d="M1364.92,900.07a16.49,16.49,0,0,0,13,0,99.07,99.07,0,0,1,11.45-1.37l-2.45-1.63.37-1s-3.37-1-11.37,1A62,62,0,0,1,1364.92,900.07Z"/><path class="cls-15" d="M1356.92,967.07s11-1,16-6,11.46-.6,11.46-.6l-2.85,2.4s-8.61,6.2-13.61,6.2A41.72,41.72,0,0,1,1356.92,967.07Z"/><path class="cls-15" d="M1371.45,883.82s8.47,1.25,12.47-.75,11.82-1.14,11.82-1.14l-.82,1.14,2,2.08s-11-.08-13,.92-11-1-11-1Z"/><path class="cls-15" d="M1381.92,872.07s13-4,18-2,5.34.72,5.34.72l1.43,5.05s-7.77-1.77-11.77-1.77-10,1-12,0S1381.92,872.07,1381.92,872.07Z"/><path class="cls-15" d="M1393.92,862.07s16-2,20,0,4.42,5,4.42,5-3.42-3-10.42-3A58.49,58.49,0,0,1,1393.92,862.07Z"/><path class="cls-15" d="M1408.92,855.07s15-3.8,18,3.1"/><path class="cls-15" d="M1423.92,850.07s10-1,12,1,2.3,5.84,2.3,5.84-6.3-4.84-10.3-5.84Z"/><path class="cls-15" d="M1361.92,984.07s10-1,13-4,8.27-3,8.27-3-3.27,8-8.27,9S1361.92,984.07,1361.92,984.07Z"/><path class="cls-15" d="M1368.92,1000.07s10-1,13-4,7.69-3.38,7.69-3.38-2.69,8.38-9.69,9.38S1368.92,1000.07,1368.92,1000.07Z"/><path class="cls-15" d="M1379.92,1014.07s7,1,11-3a11.36,11.36,0,0,1,8.65-3.48s-6.65,8.48-13.65,8.48S1379.92,1014.07,1379.92,1014.07Z"/><path class="cls-15" d="M1389.92,1027.07s9.89-1.12,12.95-5.06,5.78-2.93,5.78-2.93-1.73,8-7.73,9A22.6,22.6,0,0,1,1389.92,1027.07Z"/><polygon class="cls-18" points="1448.92 859.07 1446.92 853.07 1436.92 853.07 1438.92 862.07 1432.92 853.07 1426.92 856.07 1426.92 864.07 1421.92 859.07 1416.92 864.07 1418.92 871.07 1410.92 867.07 1404.92 872.07 1407.76 878.11 1399.92 876.07 1394.92 883.07 1399.23 887.63 1390.37 887.63 1386.92 897.07 1392.92 901.07 1384.92 903.07 1381.92 911.07 1388.92 915.07 1378.92 919.07 1378.92 927.07 1386.92 931.07 1377.92 934.07 1377.92 944.07 1386.92 946.07 1376.92 951.07 1376.92 960.07 1384.92 962.07 1376.92 968.07 1379.92 979.07 1387.92 979.07 1381.92 985.07 1385.92 996.07 1393.92 993.07 1387.92 1001.07 1394.92 1011.07 1401.92 1006.07 1395.92 1015.07 1404.92 1024.07 1409.92 1020.07 1406.92 1027.07 1415.92 1033.07 1420.92 1027.07 1418.92 1037.07 1427.92 1040.07 1433.92 1033.07 1432.92 1042.07 1443.92 1045.07 1445.92 1038.07 1446.92 1045.07 1457.92 1045.07 1457.92 1038.07 1460.92 1045.07 1472.92 1045.07 1472.92 1037.07 1474.92 1042.07 1484.92 1041.07 1484.92 1034.07 1488.92 1040.07 1497.92 1036.07 1495.92 1028.07 1501.92 1033.07 1509.92 1028.07 1506.92 1020.07 1511.92 1024.07 1517.92 1016.07 1512.92 1011.07 1519.92 1012.07 1524.92 1005.07 1521.92 995.07 1527.92 998.07 1530.92 989.07 1526.92 983.07 1530.92 986.07 1533.92 975.07 1530.92 969.07 1535.92 971.07 1535.92 961.07 1530.92 956.07 1535.92 957.07 1535.92 945.07 1529.92 942.07 1535.92 941.07 1533.92 929.07 1528.92 930.07 1531.92 925.07 1529.92 915.07 1522.92 918.07 1527.92 912.07 1524.92 903.07 1519.92 905.07 1522.92 896.07 1516.92 889.07 1511.92 892.07 1514.92 886.07 1508.92 878.07 1503.92 882.07 1505.92 876.07 1498.92 869.07 1495.92 873.07 1496.92 866.07 1487.92 861.07 1484.92 866.07 1484.92 859.07 1476.92 856.07 1476.92 862.07 1474.92 853.07 1467.92 853.07 1467.92 859.07 1465.92 850.07 1457.92 850.07 1457.92 856.07 1454.92 850.07 1449.92 852.07 1448.92 859.07"/><polygon class="cls-11" points="1448.92 857.07 1446.92 851.07 1436.92 851.07 1438.92 860.07 1432.92 851.07 1426.92 854.07 1426.92 862.07 1421.92 857.07 1416.92 862.07 1418.92 869.07 1410.92 865.07 1404.92 870.07 1407.76 876.11 1399.92 874.07 1394.92 881.07 1399.23 885.63 1390.37 885.63 1386.92 895.07 1392.92 899.07 1384.92 901.07 1381.92 909.07 1388.92 913.07 1378.92 917.07 1378.92 925.07 1386.92 929.07 1377.92 932.07 1377.92 942.07 1386.92 944.07 1376.92 949.07 1376.92 958.07 1384.92 960.07 1376.92 966.07 1379.92 977.07 1387.92 977.07 1381.92 983.07 1385.92 994.07 1393.92 991.07 1387.92 999.07 1394.92 1009.07 1401.92 1004.07 1395.92 1013.07 1404.92 1022.07 1409.92 1018.07 1406.92 1025.07 1415.92 1031.07 1420.92 1025.07 1418.92 1035.07 1427.92 1038.07 1433.92 1031.07 1432.92 1040.07 1443.92 1043.07 1445.92 1036.07 1446.92 1043.07 1457.92 1043.07 1457.92 1036.07 1460.92 1043.07 1472.92 1043.07 1472.92 1035.07 1474.92 1040.07 1484.92 1039.07 1484.92 1032.07 1488.92 1038.07 1497.92 1034.07 1495.92 1026.07 1501.92 1031.07 1509.92 1026.07 1506.92 1018.07 1511.92 1022.07 1517.92 1014.07 1512.92 1009.07 1519.92 1010.07 1524.92 1003.07 1521.92 993.07 1527.92 996.07 1530.92 987.07 1526.92 981.07 1530.92 984.07 1533.92 973.07 1530.92 967.07 1535.92 969.07 1535.92 959.07 1530.92 954.07 1535.92 955.07 1535.92 943.07 1529.92 940.07 1535.92 939.07 1533.92 927.07 1528.92 928.07 1531.92 923.07 1529.92 913.07 1522.92 916.07 1527.92 910.07 1524.92 901.07 1519.92 903.07 1522.92 894.07 1516.92 887.07 1511.92 890.07 1514.92 884.07 1508.92 876.07 1503.92 880.07 1505.92 874.07 1498.92 867.07 1495.92 871.07 1496.92 864.07 1487.92 859.07 1484.92 864.07 1484.92 857.07 1476.92 854.07 1476.92 860.07 1474.92 851.07 1467.92 851.07 1467.92 857.07 1465.92 848.07 1457.92 848.07 1457.92 854.07 1454.92 848.07 1449.92 850.07 1448.92 857.07"/><path class="cls-15" d="M1457.92,896.07s-39,1-38,48,41,51,41,51,41-2,40-50S1457.92,896.07,1457.92,896.07Z"/><path class="cls-18" d="M1451.92,922.07c-5,0-17,3-17,23,0,22,20,23,20,23s19-2,19-22S1457.92,922.07,1451.92,922.07Z"/><circle class="cls-15" cx="1452.42" cy="944.57" r="2.5"/><path class="cls-19" d="M1311.42,797.57v-45l18.16-11.78,18.84-12.22s6-3,6,3v14s0,7-5,10-36,18-36,18"/><line class="cls-19" x1="1329.42" y1="789.57" x2="1329.42" y2="741.57"/><line class="cls-19" x1="1346.42" y1="775.57" x2="1346.99" y2="729.5"/><line class="cls-19" x1="1360.42" y1="753.57" x2="1521.42" y2="785.7"/><line class="cls-19" x1="1494.46" y1="757.45" x2="1494.42" y2="803.57"/><line class="cls-19" x1="1474.42" y1="752.57" x2="1475.42" y2="800.57"/><line class="cls-19" x1="1451.42" y1="796.57" x2="1452.42" y2="748.08"/><line class="cls-19" x1="1418.42" y1="789.57" x2="1420.71" y2="741.01"/><line class="cls-19" x1="1402.42" y1="787.57" x2="1404.62" y2="737.42"/><line class="cls-19" x1="1394.42" y1="786.57" x2="1397.16" y2="735.76"/><polyline class="cls-19" points="1360.42 779.57 1360.42 727.57 1508.42 760.57 1521.42 783.57 1521.42 812.57"/><polygon class="cls-20" points="1334.92 858.07 1334.92 865.76 1341.92 866.07 1341.92 856.07 1334.92 858.07"/><polygon class="cls-20" points="1332.92 860.07 1327.92 861.07 1327.92 867.07 1332.92 866.07 1332.92 860.07"/><polyline class="cls-15" points="1303.33 811.57 1308.92 792.07 1356.92 770.07 1527.92 799.07 1537.92 829.07 1356.92 799.07 1305.77 810.57"/><path class="cls-15" d="M1652.92,877.07s20,3,23,0S1652.92,877.07,1652.92,877.07Z"/><path class="cls-15" d="M1643.92,881.07s20-3,22,0,0,4,0,4-7-3-13-3A31.39,31.39,0,0,1,1643.92,881.07Z"/><path class="cls-15" d="M1631.92,889.07s16.89-4.57,23.45-3.29,7.55,3.29,7.55,3.29l-2,1s-10-1-15-1Z"/><path class="cls-15" d="M1627.92,896.07s15,1,18,0,13-1,13-1l2,5-11-1Z"/><path class="cls-15" d="M1625.92,907.07s13-3,18-3,14,2,14,2l-7,1s-8,1-11,1S1625.92,907.07,1625.92,907.07Z"/><path class="cls-15" d="M1627.92,917.07s14,1,16-1,8,1,8,1l-8,4a28.89,28.89,0,0,0-10,0C1628.92,922.07,1627.92,917.07,1627.92,917.07Z"/><path class="cls-15" d="M1627.92,931.07a14.82,14.82,0,0,0,10,0c5-2,11.34-1.22,11.34-1.22s-5.34,2.22-10.34,4.22S1627.92,931.07,1627.92,931.07Z"/><path class="cls-15" d="M1629.92,946.07s8-2,12-4,10,1,10,1-9,5-17,5S1629.92,946.07,1629.92,946.07Z"/><path class="cls-15" d="M1625.92,960.07s12-1,16-3,10,0,10,0-8,6-16,5S1625.92,960.07,1625.92,960.07Z"/><path class="cls-15" d="M1629.92,973.07s12,1,16-3,12-3,12-3-12,11-22,10S1629.92,973.07,1629.92,973.07Z"/><path class="cls-15" d="M1628.92,987.07s19,0,24-5,5-3,5-3-10,16-23,12S1628.92,987.07,1628.92,987.07Z"/><path class="cls-15" d="M1630,999.21s21.5,2.07,29.71-7-1.79,6.9-1.79,6.9a18.9,18.9,0,0,1-17,3c-10-3-11-3-11-3"/><path class="cls-15" d="M1644.92,1009.07s12,1,17-2,8-5,8-5-3,10-14,10S1644.92,1009.07,1644.92,1009.07Z"/><path class="cls-15" d="M1656.92,1020.07s9-1,13-5a51.68,51.68,0,0,0,6-7s-1,9-7,12S1656.92,1020.07,1656.92,1020.07Z"/><polygon class="cls-16" points="1645.92 859.07 1647.92 874.07 1653.91 873.59 1653.92 857.07 1645.92 859.07"/><polygon class="cls-11" points="1666.36 885.47 1661.92 883.07 1659.92 889.07 1662.92 892.07 1656.92 889.07 1653.92 896.07 1659.92 899.07 1651.92 899.07 1651.92 905.07 1655.92 907.07 1649.92 907.07 1649.92 916.07 1651.92 918.07 1646.92 920.07 1646.92 929.07 1652.92 931.07 1644.92 931.07 1644.92 943.07 1650.92 943.07 1644.92 948.07 1644.92 954.07 1651.92 956.07 1644.92 960.07 1649.92 968.07 1655.92 968.07 1650.92 971.07 1652.92 981.07 1657.92 979.07 1653.92 985.07 1657.92 993.07 1663.92 990.07 1658.92 996.07 1664.92 1005.07 1669.92 1001.07 1664.92 1007.07 1670.92 1014.07 1675.92 1009.07 1672.92 1016.07 1678.92 1021.07 1682.92 1016.07 1679.92 1023.07 1687.92 1027.07 1689.92 1022.07 1688.92 1028.07 1695.92 1029.07 1696.92 1024.07 1696.92 1030.07 1703.92 1030.07 1703.92 1025.07 1705.92 1030.07 1711.92 1029.07 1710.92 1024.07 1712.92 1028.07 1715.92 1024.07 1714.92 1020.07 1716.92 1024.07 1721.92 1019.07 1720.92 1015.07 1723.92 1018.07 1727.92 1012.07 1725.92 1008.07 1727.92 1010.07 1732.92 1005.07 1729.92 1002.07 1732.92 1003.07 1733.92 997.07 1731.92 995.07 1733.92 994.07 1735.92 988.07 1732.79 988.23 1735.92 987.07 1736.92 982.07 1733.92 980.07 1737.92 978.07 1737.92 969.07 1733.92 966.07 1737.92 965.07 1735.92 957.07 1733.92 957.07 1735.92 954.07 1735.92 946.07 1732.92 946.07 1734.92 942.07 1733.92 932.07 1730.92 931.07 1732.92 929.07 1730.92 923.07 1724.92 923.07 1727.92 918.07 1725.92 911.07 1720.92 911.07 1723.92 907.07 1720.92 902.07 1715.92 902.07 1717.92 898.07 1713.92 892.07 1711.92 897.07 1711.92 890.07 1707.92 885.07 1707.92 889.07 1704.92 883.07 1699.92 879.07 1699.98 886.13 1696.92 878.07 1692.92 875.07 1692.92 881.07 1689.92 875.07 1684.92 873.07 1683.92 879.07 1681.92 873.07 1676.92 875.07 1676.92 880.07 1672.92 875.07 1668.92 877.07 1670.92 882.07 1667.92 879.07 1664.92 880.07 1666.36 885.47"/><path class="cls-15" d="M1690.92,911.07s-20,1-17,39,27,41,27,41,26-1,20-39-25-41-25-41Z"/><path class="cls-18" d="M1688.92,971.07s13,2,12-20-16-22-16-22l-4,3a66.61,66.61,0,0,0,1,24C1684.92,968.07,1688.92,971.07,1688.92,971.07Z"/><ellipse class="cls-11" cx="1690.42" cy="951.07" rx="1.5" ry="3"/><path class="cls-20" d="M1317.92,819.07s0-11,6-11,4,13,4,13-2,12-6,12-4-14-4-14"/><path class="cls-20" d="M1313.92,822.07s1-8-4-8-5,14-5,14,0,11,5,10,4-16,4-16"/><path class="cls-20" d="M1300.92,829.07s1-10-4-10-5,14-5,14-1,10,4,10S1300.92,829.07,1300.92,829.07Z"/><polygon class="cls-11" points="1357.92 775.07 1357.92 802.07 1538.92 833.07 1528.92 802.07 1357.92 775.07"/></g></g></g></svg>