<svg width="21" height="21" viewBox="0 0 21 21" fill="none" xmlns="http://www.w3.org/2000/svg">
<path d="M18 16.3165H17.4375V8.34577C17.4375 5.03794 14.993 2.30212 11.8125 1.84732V0.937727C11.8125 0.419633 11.393 0 10.875 0C10.357 0 9.9375 0.419633 9.9375 0.937727V1.84732C6.75703 2.30212 4.3125 5.03794 4.3125 8.34577V16.3165H3.75C3.33516 16.3165 3 16.6517 3 17.0666V17.8168C3 17.92 3.08437 18.0044 3.1875 18.0044H8.25C8.25 19.4532 9.42656 20.63 10.875 20.63C12.3234 20.63 13.5 19.4532 13.5 18.0044H18.5625C18.6656 18.0044 18.75 17.92 18.75 17.8168V17.0666C18.75 16.6517 18.4148 16.3165 18 16.3165ZM10.875 19.1296C10.2539 19.1296 9.75 18.6256 9.75 18.0044H12C12 18.6256 11.4961 19.1296 10.875 19.1296Z" fill="#5E46A1"/>
</svg>
