<svg width="24" height="24" viewBox="0 0 24 24" fill="none" xmlns="http://www.w3.org/2000/svg">
<path d="M13.319 12L19.9518 4.32147C20.063 4.19387 19.9695 4 19.7977 4H17.7813C17.6625 4 17.5488 4.05153 17.4705 4.13988L12 10.4736L6.52951 4.13988C6.45371 4.05153 6.34 4 6.21872 4H4.20235C4.03052 4 3.93703 4.19387 4.04821 4.32147L10.681 12L4.04821 19.6785C4.02331 19.707 4.00733 19.7418 4.00218 19.7788C3.99702 19.8158 4.00291 19.8534 4.01914 19.8873C4.03537 19.9211 4.06125 19.9497 4.09373 19.9697C4.1262 19.9897 4.1639 20.0002 4.20235 20H6.21872C6.33748 20 6.45118 19.9485 6.52951 19.8601L12 13.5264L17.4705 19.8601C17.5463 19.9485 17.66 20 17.7813 20H19.7977C19.9695 20 20.063 19.8061 19.9518 19.6785L13.319 12Z" fill="white"/>
</svg>
