<svg width="45" height="45" viewBox="0 0 45 45" fill="none" xmlns="http://www.w3.org/2000/svg">
<circle cx="22.5" cy="22.5" r="22.5" fill="white"/>
<path d="M32.1836 20.8362L23.1273 11.7847L22.5203 11.1776C22.382 11.0402 22.1949 10.9631 22 10.9631C21.805 10.9631 21.618 11.0402 21.4797 11.1776L11.8164 20.8362C11.6747 20.9774 11.5627 21.1455 11.487 21.3307C11.4113 21.5159 11.3735 21.7143 11.3758 21.9144C11.3851 22.7394 12.0719 23.398 12.8969 23.398H13.893V31.0316H30.107V23.398H31.1242C31.525 23.398 31.9023 23.2409 32.1859 22.9573C32.3256 22.8181 32.4362 22.6526 32.5114 22.4704C32.5867 22.2881 32.625 22.0928 32.6242 21.8956C32.6242 21.4972 32.4672 21.1198 32.1836 20.8362V20.8362ZM23.3125 29.3441H20.6875V24.5628H23.3125V29.3441ZM28.4195 21.7105V29.3441H24.8125V24.0003C24.8125 23.4823 24.393 23.0628 23.875 23.0628H20.125C19.607 23.0628 19.1875 23.4823 19.1875 24.0003V29.3441H15.5805V21.7105H13.3305L22.0023 13.0456L22.5437 13.587L30.6719 21.7105H28.4195Z" fill="#4D4646"/>
</svg>
