<svg width="24" height="24" viewBox="0 0 24 24" fill="none" xmlns="http://www.w3.org/2000/svg">
<path fill-rule="evenodd" clip-rule="evenodd" d="M12 2.7907C6.91384 2.7907 2.7907 6.91384 2.7907 12C2.7907 17.0862 6.91384 21.2093 12 21.2093C17.0862 21.2093 21.2093 17.0862 21.2093 12C21.2093 6.91384 17.0862 2.7907 12 2.7907ZM0 12C0 5.37258 5.37258 0 12 0C18.6274 0 24 5.37258 24 12C24 18.6274 18.6274 24 12 24C5.37258 24 0 18.6274 0 12Z" fill="#AD0C0C"/>
<path fill-rule="evenodd" clip-rule="evenodd" d="M13.6036 5H11V12.9864L14.7118 16.477L16.4651 14.5153L13.6036 11.8242V5Z" fill="#AD0C0C"/>
</svg>
