<svg width="105" height="44" viewBox="0 0 105 44" fill="none" xmlns="http://www.w3.org/2000/svg">
<path d="M18.4119 0.280029L22.7792 7.30862L11.9312 20.529L4.30371 8.71712C7.797 3.24348 13.0515 1.38732 18.4119 0.280029Z" fill="#E5E4E4"/>
<path d="M18.306 0.279948L30.6795 20.1914H43.731C42.375 2.47371 25.5945 -1.14379 18.306 0.279948Z" fill="#BCB8B8"/>
<path d="M11.9312 20.529L4.3037 8.71704C-2.30679 17.4916 0.0662692 27.6161 2.43921 31.6659L11.9312 20.529Z" fill="#938D8D"/>
<path d="M2.43921 31.666L11.9312 20.5291L20.7452 34.8721L14.6432 42.2967C8.03271 40.4406 3.73871 34.2895 2.43921 31.666Z" fill="#AEAAAA"/>
<path d="M14.6432 42.2967L20.7453 34.8721L25.764 43.0665C23.2215 43.7415 17.6943 43.3092 14.6432 42.2967Z" fill="white"/>
<path d="M25.764 43.0665L20.679 34.7981L30.6795 23.4924H43.731C42.2055 39.0167 29.493 41.8853 25.764 43.0665Z" fill="#E5E4E4"/>
<path d="M65.2072 25.1072C65.0924 26.3961 64.7305 27.5349 64.1213 28.5237C63.521 29.5124 62.6735 30.2849 61.5788 30.8411C60.4841 31.3972 59.1688 31.6753 57.6327 31.6753C56.0524 31.6753 54.6752 31.3045 53.5011 30.563C52.327 29.8126 51.4221 28.7488 50.7864 27.3716C50.1508 25.9944 49.833 24.3833 49.833 22.5382V21.0153C49.833 19.1703 50.1552 17.5591 50.7997 16.1819C51.453 14.8048 52.3755 13.741 53.5673 12.9906C54.7679 12.2402 56.1672 11.865 57.7651 11.865C59.2747 11.865 60.5636 12.1475 61.6318 12.7125C62.7 13.2687 63.5298 14.05 64.1213 15.0564C64.7216 16.0539 65.088 17.2104 65.2204 18.5258H61.804C61.6539 17.2369 61.2698 16.2702 60.6519 15.6258C60.0427 14.9725 59.0805 14.6459 57.7651 14.6459C56.2908 14.6459 55.174 15.1932 54.4148 16.2879C53.6644 17.3737 53.2892 18.9407 53.2892 20.9889V22.5382C53.2892 24.551 53.6379 26.1136 54.3354 27.2259C55.0416 28.3383 56.1407 28.8945 57.6327 28.8945C58.5508 28.8945 59.2968 28.7532 59.8706 28.4707C60.4532 28.1794 60.8902 27.76 61.1816 27.2127C61.4817 26.6565 61.6848 25.9547 61.7907 25.1072H65.2072Z" fill="url(#paint0_linear)"/>
<path d="M67.2597 24.114C67.2597 22.7192 67.5246 21.47 68.0543 20.3665C68.5928 19.263 69.3652 18.3978 70.3716 17.771C71.3781 17.1354 72.561 16.8176 73.9206 16.8176C75.2977 16.8176 76.4895 17.1354 77.4959 17.771C78.5112 18.3978 79.2836 19.263 79.8133 20.3665C80.3518 21.47 80.6211 22.7192 80.6211 24.114V24.3921C80.6211 25.787 80.3518 27.0361 79.8133 28.1396C79.2836 29.2432 78.5156 30.1083 77.5092 30.7351C76.5028 31.3619 75.3154 31.6753 73.947 31.6753C72.5787 31.6753 71.3869 31.3619 70.3716 30.7351C69.3652 30.1083 68.5928 29.2432 68.0543 28.1396C67.5246 27.0361 67.2597 25.787 67.2597 24.3921V24.114ZM70.557 24.3921C70.557 25.7516 70.8395 26.864 71.4045 27.7291C71.9695 28.5943 72.817 29.0269 73.947 29.0269C74.6974 29.0269 75.3242 28.8238 75.8274 28.4177C76.3395 28.0028 76.7147 27.4466 76.953 26.7492C77.2002 26.0518 77.3238 25.2661 77.3238 24.3921V24.114C77.3238 23.2489 77.2002 22.4676 76.953 21.7702C76.7147 21.0639 76.3395 20.5033 75.8274 20.0884C75.3154 19.6735 74.6798 19.466 73.9206 19.466C73.1702 19.466 72.5434 19.6735 72.0402 20.0884C71.537 20.5033 71.1618 21.0639 70.9146 21.7702C70.6762 22.4676 70.557 23.2489 70.557 24.114V24.3921Z" fill="url(#paint1_linear)"/>
<path d="M89.745 16.8176C89.9304 16.8176 90.1378 16.8352 90.3674 16.8705C90.6057 16.9059 90.7823 16.9456 90.897 16.9897L90.8706 20.1016C90.4292 20.031 89.9922 19.9957 89.5596 19.9957C88.0853 19.9957 87.0965 20.5475 86.5933 21.651V31.4105H83.296V17.0824H86.4344L86.5271 18.698C86.8891 18.0976 87.3393 17.6342 87.8778 17.3075C88.4163 16.9809 89.0387 16.8176 89.745 16.8176Z" fill="url(#paint2_linear)"/>
<path d="M105 25.2793H95.6642C95.726 26.0121 95.9158 26.6609 96.2337 27.2259C96.5515 27.7909 96.9796 28.2323 97.5181 28.5502C98.0655 28.868 98.7011 29.0269 99.425 29.0269C100.908 29.0269 102.1 28.4442 103 27.2789L104.762 28.9871C104.241 29.7552 103.517 30.3952 102.59 30.9073C101.663 31.4193 100.542 31.6753 99.2264 31.6753C97.8315 31.6753 96.6133 31.3752 95.5715 30.7748C94.5298 30.1657 93.7309 29.3359 93.1747 28.2853C92.6185 27.2348 92.3404 26.0562 92.3404 24.7496V24.2067C92.3404 22.7324 92.6229 21.4391 93.1879 20.3268C93.7529 19.2056 94.5298 18.3404 95.5186 17.7313C96.5073 17.1221 97.6197 16.8176 98.8556 16.8176C100.206 16.8176 101.341 17.1133 102.259 17.7048C103.177 18.2963 103.861 19.1261 104.311 20.1943C104.77 21.2537 105 22.4852 105 23.8889V25.2793ZM101.742 22.6441C101.698 21.7172 101.447 20.958 100.988 20.3665C100.529 19.7662 99.8135 19.466 98.8424 19.466C97.9772 19.466 97.2798 19.7662 96.7501 20.3665C96.2204 20.9668 95.8805 21.8099 95.7304 22.8957H101.742V22.6441Z" fill="url(#paint3_linear)"/>
<defs>
<linearGradient id="paint0_linear" x1="64.41" y1="14.577" x2="136.623" y2="47.7998" gradientUnits="userSpaceOnUse">
<stop stop-color="white"/>
<stop offset="1" stop-color="#B9B9B9"/>
</linearGradient>
<linearGradient id="paint1_linear" x1="64.41" y1="14.577" x2="136.623" y2="47.7998" gradientUnits="userSpaceOnUse">
<stop stop-color="white"/>
<stop offset="1" stop-color="#B9B9B9"/>
</linearGradient>
<linearGradient id="paint2_linear" x1="64.41" y1="14.577" x2="136.623" y2="47.7998" gradientUnits="userSpaceOnUse">
<stop stop-color="white"/>
<stop offset="1" stop-color="#B9B9B9"/>
</linearGradient>
<linearGradient id="paint3_linear" x1="64.41" y1="14.577" x2="136.623" y2="47.7998" gradientUnits="userSpaceOnUse">
<stop stop-color="white"/>
<stop offset="1" stop-color="#B9B9B9"/>
</linearGradient>
</defs>
</svg>
