<svg width="18" height="22" viewBox="0 0 18 22" fill="none" xmlns="http://www.w3.org/2000/svg">
<path d="M13 3.94118V1H1V21H13V18.4706" stroke="white" stroke-width="2" stroke-linecap="round" stroke-linejoin="round"/>
<path d="M17.2619 11.1934L17.2622 11.1937C17.3425 11.2718 17.3426 11.4021 17.2623 11.4803L17.2619 11.4806L13.533 15.117L13.5329 15.1171C13.4537 15.1944 13.3267 15.1928 13.2494 15.1135L13.2493 15.1134C13.1719 15.0341 13.1735 14.9071 13.2528 14.8298L13.2529 14.8298L15.7489 12.3957L16.6287 11.5377H15.3998H8.70064C8.58982 11.5377 8.5 11.4479 8.5 11.337C8.5 11.2262 8.58982 11.1364 8.70064 11.1364H15.3998H16.6287L15.7489 10.2784L13.2529 7.84428L13.2528 7.84426C13.1735 7.76693 13.1719 7.63991 13.2493 7.56061L13.2494 7.56052C13.3266 7.48126 13.4536 7.47961 13.533 7.557L13.533 7.55703L17.2619 11.1934Z" fill="white" stroke="white"/>
</svg>
