<svg width="384" height="127" viewBox="0 0 384 127" fill="none" xmlns="http://www.w3.org/2000/svg">
<path d="M222.046 75.2811C221.579 80.469 220.106 85.0529 217.627 89.0326C215.184 93.0124 211.734 96.1216 207.279 98.3602C202.824 100.599 197.47 101.718 191.218 101.718C184.787 101.718 179.182 100.226 174.403 97.2409C169.625 94.2206 165.942 89.9388 163.355 84.3955C160.768 78.8522 159.475 72.3673 159.475 64.9408V58.8112C159.475 51.3846 160.786 44.8997 163.409 39.3565C166.068 33.8132 169.822 29.5314 174.673 26.511C179.559 23.4907 185.254 21.9805 191.757 21.9805C197.901 21.9805 203.147 23.1175 207.495 25.3917C211.842 27.6303 215.22 30.7751 217.627 34.8259C220.07 38.8412 221.561 43.4961 222.1 48.7907H208.195C207.584 43.6028 206.022 39.7118 203.506 37.1178C201.027 34.4883 197.111 33.1736 191.757 33.1736C185.757 33.1736 181.212 35.3767 178.122 39.7829C175.068 44.1535 173.541 50.4608 173.541 58.7046V64.9408C173.541 73.0425 174.96 79.3319 177.799 83.8092C180.673 88.2864 185.146 90.5251 191.218 90.5251C194.955 90.5251 197.991 89.9565 200.327 88.8194C202.698 87.6468 204.477 85.959 205.662 83.7559C206.884 81.5173 207.71 78.6923 208.141 75.2811H222.046Z" fill="url(#paint0_linear)"/>
<path d="M230.4 71.2835C230.4 65.6692 231.478 60.6412 233.633 56.1995C235.825 51.7577 238.969 48.2754 243.065 45.7525C247.161 43.1941 251.976 41.9149 257.509 41.9149C263.114 41.9149 267.964 43.1941 272.06 45.7525C276.192 48.2754 279.336 51.7577 281.492 56.1995C283.684 60.6412 284.779 65.6692 284.779 71.2835V72.4028C284.779 78.0172 283.684 83.0452 281.492 87.4869C279.336 91.9286 276.21 95.4109 272.114 97.9338C268.018 100.457 263.186 101.718 257.617 101.718C252.047 101.718 247.197 100.457 243.065 97.9338C238.969 95.4109 235.825 91.9286 233.633 87.4869C231.478 83.0452 230.4 78.0172 230.4 72.4028V71.2835ZM243.82 72.4028C243.82 77.875 244.969 82.3523 247.269 85.8346C249.568 89.3169 253.018 91.0581 257.617 91.0581C260.671 91.0581 263.222 90.2408 265.27 88.6062C267.353 86.9361 268.881 84.6975 269.851 81.8904C270.857 79.0832 271.36 75.9207 271.36 72.4028V71.2835C271.36 67.8012 270.857 64.6565 269.851 61.8493C268.881 59.0066 267.353 56.7502 265.27 55.0801C263.186 53.4101 260.599 52.575 257.509 52.575C254.455 52.575 251.904 53.4101 249.856 55.0801C247.808 56.7502 246.281 59.0066 245.275 61.8493C244.305 64.6565 243.82 67.8012 243.82 71.2835V72.4028Z" fill="url(#paint1_linear)"/>
<path d="M321.913 41.9149C322.667 41.9149 323.512 41.986 324.446 42.1281C325.416 42.2702 326.134 42.4301 326.602 42.6078L326.494 55.1334C324.697 54.8492 322.919 54.707 321.158 54.707C315.158 54.707 311.134 56.9279 309.086 61.3696V100.652H295.666V42.9809H308.439L308.816 49.4836C310.289 47.0673 312.122 45.2018 314.314 43.887C316.505 42.5723 319.038 41.9149 321.913 41.9149Z" fill="url(#paint2_linear)"/>
<path d="M383.999 75.974H346.004C346.255 78.9233 347.028 81.535 348.321 83.8092C349.615 86.0833 351.357 87.86 353.549 89.1392C355.776 90.4184 358.363 91.0581 361.31 91.0581C367.346 91.0581 372.196 88.7128 375.861 84.0224L383.029 90.8982C380.909 93.9896 377.963 96.5658 374.19 98.6267C370.418 100.688 365.855 101.718 360.501 101.718C354.824 101.718 349.866 100.51 345.626 98.0937C341.387 95.6419 338.135 92.3017 335.871 88.0732C333.608 83.8447 332.476 79.101 332.476 73.842V71.6566C332.476 65.7225 333.626 60.5168 335.925 56.0396C338.225 51.5268 341.387 48.0445 345.411 45.5926C349.435 43.1408 353.962 41.9149 358.992 41.9149C364.489 41.9149 369.106 43.1053 372.843 45.486C376.58 47.8668 379.364 51.207 381.197 55.5066C383.065 59.7706 383.999 64.7276 383.999 70.3774V75.974ZM370.741 65.3672C370.562 61.6361 369.538 58.5802 367.669 56.1995C365.801 53.7832 362.891 52.575 358.938 52.575C355.417 52.575 352.579 53.7832 350.423 56.1995C348.267 58.6158 346.884 62.0092 346.273 66.3799H370.741V65.3672Z" fill="url(#paint3_linear)"/>
<path d="M52.9272 2.17969L65.4817 22.3965L34.2975 60.4234L12.3711 26.4479C26.5014 7.5187 45.6843 2.17969 52.9272 2.17969Z" fill="#998BC2"/>
<path d="M52.8145 2.17901L88.3839 59.4519H125.902C122.004 8.48909 72.7918 -3.1596 52.8145 2.17901Z" fill="#5E46A1"/>
<path d="M34.298 60.4228L12.3716 26.4473C-6.63121 51.6862 0.1905 80.8081 7.01186 92.4568L34.298 60.4228Z" fill="#644FA1"/>
<path d="M7.01367 92.4559L34.2998 60.4219L59.637 101.678L42.0959 123.034C23.093 117.695 10.7493 100.002 7.01367 92.4559Z" fill="#6F5DA2"/>
<path d="M42.0957 123.034L59.6368 101.678L74.2544 125.461C59.6368 128.646 50.8663 125.946 42.0957 123.034Z" fill="#4D368C"/>
<path d="M74.2524 125.46L59.6348 101.678L88.3827 69.1582H125.901C121.516 113.812 84.9719 122.063 74.2524 125.46Z" fill="#463083"/>
<defs>
<linearGradient id="paint0_linear" x1="218.802" y1="32.8964" x2="511.557" y2="169.084" gradientUnits="userSpaceOnUse">
<stop stop-color="#5C46A1"/>
<stop offset="1" stop-color="#2B1961"/>
</linearGradient>
<linearGradient id="paint1_linear" x1="218.802" y1="32.8964" x2="511.557" y2="169.084" gradientUnits="userSpaceOnUse">
<stop stop-color="#5C46A1"/>
<stop offset="1" stop-color="#2B1961"/>
</linearGradient>
<linearGradient id="paint2_linear" x1="218.802" y1="32.8964" x2="511.557" y2="169.084" gradientUnits="userSpaceOnUse">
<stop stop-color="#5C46A1"/>
<stop offset="1" stop-color="#2B1961"/>
</linearGradient>
<linearGradient id="paint3_linear" x1="218.802" y1="32.8964" x2="511.557" y2="169.084" gradientUnits="userSpaceOnUse">
<stop stop-color="#5C46A1"/>
<stop offset="1" stop-color="#2B1961"/>
</linearGradient>
</defs>
</svg>
