<svg width="202" height="193" viewBox="0 0 202 193" fill="none" xmlns="http://www.w3.org/2000/svg">
<path d="M55.5853 104.666L59.1333 81.9203H106.44L109.988 103.041C103.483 106.29 88.8183 112.789 82.1953 112.789C75.5724 112.789 61.6958 107.373 55.5853 104.666Z" fill="#DADADA"/>
<g filter="url(#filter0_d)">
<path d="M52.6286 75.3904L50.8546 45.7092H48.4893V42.1474H117.675V45.7092H115.901L113.536 74.7968C108.411 82.3161 95.2046 97.3546 83.3779 97.3546C71.5513 97.3546 57.9506 82.7118 52.6286 75.3904Z" fill="#E5E5E5"/>
<path d="M52.6286 75.3904L50.8546 45.7092H48.4893V42.1474H117.675V45.7092H115.901L113.536 74.7968C108.411 82.3161 95.2046 97.3546 83.3779 97.3546C71.5513 97.3546 57.9506 82.7118 52.6286 75.3904Z" stroke="#C4C4C4"/>
</g>
<path d="M76.8732 3.56175C76.8732 1.59465 78.4678 0 80.4349 0H86.3207C88.2879 0 89.8825 1.59465 89.8825 3.56175C89.8825 5.52885 88.2878 7.12351 86.3207 7.12351H83.3778H80.4349C78.4678 7.12351 76.8732 5.52885 76.8732 3.56175Z" fill="#968C83"/>
<rect x="44.941" y="40.3665" width="76.8733" height="5.93625" rx="2.96813" fill="#B9ADA2"/>
<rect x="47.3064" y="33.243" width="72.1426" height="7.12351" rx="3.56175" fill="#968C83"/>
<path d="M115.901 33.8367C115.901 35.0239 83.3777 33.243 83.3777 33.243L50.8544 33.8367C50.8544 14.8407 65.4156 3.56177 83.3777 3.56177C101.34 3.56177 115.901 14.247 115.901 33.8367Z" fill="#B9ADA2"/>
<rect x="76.873" y="3.56177" width="13.0093" height="29.6813" fill="#968C83"/>
<rect x="66.5945" y="27.3069" width="35" height="8.31076" rx="2" fill="#795F48"/>
<ellipse cx="83.9691" cy="30.8685" rx="11.8267" ry="11.8725" fill="#85786C"/>
<mask id="mask0" mask-type="alpha" maskUnits="userSpaceOnUse" x="75" y="22" width="18" height="18">
<ellipse cx="83.9691" cy="30.8685" rx="8.27866" ry="8.31076" fill="#C4C4C4"/>
</mask>
<g mask="url(#mask0)">
<ellipse cx="83.969" cy="32.0557" rx="9.46133" ry="9.49801" fill="#C4C4C4"/>
<path d="M76.873 37.9919L81.6037 22.5576C83.0229 21.1329 85.3488 21.964 86.3344 22.5576L80.421 40.9601C79.0018 40.9601 77.4644 38.9813 76.873 37.9919Z" fill="white"/>
<path d="M90.4738 24.3386L88.6998 23.1513L83.9691 39.7728H85.7431L90.4738 24.3386Z" fill="white"/>
</g>
<path d="M13.0093 124.661C4.9672 128.461 0.985555 142.47 0 149H164.982C165.455 137.602 156.506 128.025 151.973 124.661L116.493 108.633L112.353 100.916C105.454 103.489 89.8826 108.633 82.7866 108.633C75.6906 108.633 59.7246 103.489 52.6287 100.916L49.0807 108.633C40.4078 112.393 21.0515 120.862 13.0093 124.661Z" fill="#B9ADA2"/>
<g filter="url(#filter1_d)">
<circle cx="148" cy="139" r="38" fill="#BC2929"/>
</g>
<line x1="129.116" y1="121.149" x2="168.636" y2="155.349" stroke="white" stroke-width="5"/>
<line x1="130.272" y1="156.992" x2="167.228" y2="120.037" stroke="white" stroke-width="5"/>
<defs>
<filter id="filter0_d" x="46.4893" y="40.1474" width="73.186" height="59.2072" filterUnits="userSpaceOnUse" color-interpolation-filters="sRGB">
<feFlood flood-opacity="0" result="BackgroundImageFix"/>
<feColorMatrix in="SourceAlpha" type="matrix" values="0 0 0 0 0 0 0 0 0 0 0 0 0 0 0 0 0 0 127 0"/>
<feOffset/>
<feGaussianBlur stdDeviation="1"/>
<feColorMatrix type="matrix" values="0 0 0 0 0 0 0 0 0 0 0 0 0 0 0 0 0 0 0.25 0"/>
<feBlend mode="normal" in2="BackgroundImageFix" result="effect1_dropShadow"/>
<feBlend mode="normal" in="SourceGraphic" in2="effect1_dropShadow" result="shape"/>
</filter>
<filter id="filter1_d" x="94" y="85" width="108" height="108" filterUnits="userSpaceOnUse" color-interpolation-filters="sRGB">
<feFlood flood-opacity="0" result="BackgroundImageFix"/>
<feColorMatrix in="SourceAlpha" type="matrix" values="0 0 0 0 0 0 0 0 0 0 0 0 0 0 0 0 0 0 127 0"/>
<feOffset/>
<feGaussianBlur stdDeviation="8"/>
<feColorMatrix type="matrix" values="0 0 0 0 0 0 0 0 0 0 0 0 0 0 0 0 0 0 0.25 0"/>
<feBlend mode="normal" in2="BackgroundImageFix" result="effect1_dropShadow"/>
<feBlend mode="normal" in="SourceGraphic" in2="effect1_dropShadow" result="shape"/>
</filter>
</defs>
</svg>
