<svg width="96" height="92" viewBox="0 0 96 92" fill="none" xmlns="http://www.w3.org/2000/svg">
<path d="M23.9076 44.9412L25.4336 35.1749H45.7806L47.3066 44.2436C44.5089 45.6388 38.2013 48.4291 35.3528 48.4291C32.5042 48.4291 26.5357 46.1038 23.9076 44.9412Z" fill="#DED9D9"/>
<g filter="url(#filter0_d)">
<path d="M22.6359 32.3711L21.8729 19.6266H20.8556V18.0972H50.613V19.6266H49.85L48.8326 32.1162C46.6284 35.3448 40.9482 41.802 35.8615 41.802C30.7747 41.802 24.925 35.5147 22.6359 32.3711Z" fill="#F4F0F0"/>
<path d="M22.6359 32.3711L21.8729 19.6266H20.8556V18.0972H50.613V19.6266H49.85L48.8326 32.1162C46.6284 35.3448 40.9482 41.802 35.8615 41.802C30.7747 41.802 24.925 35.5147 22.6359 32.3711Z" stroke="#DED9D9"/>
</g>
<path d="M33.0638 1.52934C33.0638 0.684709 33.7486 0 34.5932 0H37.1299C37.9745 0 38.6593 0.684709 38.6593 1.52934C38.6593 2.37397 37.9745 3.05868 37.1299 3.05868H35.8615H34.5932C33.7486 3.05868 33.0638 2.37397 33.0638 1.52934Z" fill="#CCC2C3"/>
<rect x="19.3298" y="17.3326" width="33.0638" height="2.5489" rx="1.27445" fill="#A09595"/>
<rect x="20.347" y="14.2739" width="31.0291" height="3.05868" rx="1.52934" fill="#6B6363"/>
<path d="M49.8502 14.5288C49.8502 15.0386 35.8616 14.2739 35.8616 14.2739L21.8731 14.5288C21.8731 6.37233 28.136 1.52942 35.8616 1.52942C43.5873 1.52942 49.8502 6.11744 49.8502 14.5288Z" fill="#A09595"/>
<rect x="33.0639" y="1.52942" width="5.59541" height="12.7445" fill="#CCC2C3"/>
<rect x="28.643" y="11.725" width="15.0538" height="3.56846" rx="1.78423" fill="#CCC2C3"/>
<ellipse cx="36.1159" cy="13.2544" rx="5.08674" ry="5.0978" fill="#6B6363"/>
<mask id="mask0" mask-type="alpha" maskUnits="userSpaceOnUse" x="32" y="9" width="8" height="8">
<ellipse cx="36.116" cy="13.2544" rx="3.56072" ry="3.56846" fill="#C4C4C4"/>
</mask>
<g mask="url(#mask0)">
<ellipse cx="36.1159" cy="13.7642" rx="4.06939" ry="4.07824" fill="#DED9D9"/>
<path d="M33.0638 16.313L35.0985 9.68589C35.7089 9.07415 36.7093 9.431 37.1332 9.68589L34.5899 17.5875C33.9795 17.5875 33.3182 16.7379 33.0638 16.313Z" fill="white"/>
<path d="M38.9136 10.4506L38.1505 9.94083L36.1158 17.0777H36.8789L38.9136 10.4506Z" fill="white"/>
</g>
<path d="M5.59541 53.5269C2.13643 55.1582 0.423895 61.1736 0 63.9774H70.96C71.1635 59.0835 67.3145 54.9712 65.3646 53.5269L50.1044 46.6448L48.324 43.3313C45.3567 44.4358 38.6592 46.6448 35.6072 46.6448C32.5551 46.6448 25.688 44.4358 22.636 43.3313L21.11 46.6448C17.3797 48.2591 9.05439 51.8956 5.59541 53.5269Z" fill="#A09595"/>
<g filter="url(#filter1_d)">
<ellipse cx="63.6559" cy="59.6836" rx="16.3441" ry="16.3164" fill="#5E46A1"/>
</g>
<line y1="-1" x2="22.4626" y2="-1" transform="matrix(0.756718 0.653742 -0.655011 0.755619 54.8301 52.8308)" stroke="white" stroke-width="2"/>
<line y1="-1" x2="22.4599" y2="-1" transform="translate(56.7915 68.1683) scale(1.00085 0.999151) rotate(-45)" stroke="white" stroke-width="2"/>
<defs>
<filter id="filter0_d" x="18.8556" y="16.0972" width="33.7574" height="27.7048" filterUnits="userSpaceOnUse" color-interpolation-filters="sRGB">
<feFlood flood-opacity="0" result="BackgroundImageFix"/>
<feColorMatrix in="SourceAlpha" type="matrix" values="0 0 0 0 0 0 0 0 0 0 0 0 0 0 0 0 0 0 127 0"/>
<feOffset/>
<feGaussianBlur stdDeviation="1"/>
<feColorMatrix type="matrix" values="0 0 0 0 0 0 0 0 0 0 0 0 0 0 0 0 0 0 0.25 0"/>
<feBlend mode="normal" in2="BackgroundImageFix" result="effect1_dropShadow"/>
<feBlend mode="normal" in="SourceGraphic" in2="effect1_dropShadow" result="shape"/>
</filter>
<filter id="filter1_d" x="31.3118" y="27.3672" width="64.6882" height="64.6328" filterUnits="userSpaceOnUse" color-interpolation-filters="sRGB">
<feFlood flood-opacity="0" result="BackgroundImageFix"/>
<feColorMatrix in="SourceAlpha" type="matrix" values="0 0 0 0 0 0 0 0 0 0 0 0 0 0 0 0 0 0 127 0"/>
<feOffset/>
<feGaussianBlur stdDeviation="8"/>
<feColorMatrix type="matrix" values="0 0 0 0 0 0 0 0 0 0 0 0 0 0 0 0 0 0 0.25 0"/>
<feBlend mode="normal" in2="BackgroundImageFix" result="effect1_dropShadow"/>
<feBlend mode="normal" in="SourceGraphic" in2="effect1_dropShadow" result="shape"/>
</filter>
</defs>
</svg>
