<svg width="252" height="148" viewBox="0 0 252 148" fill="none" xmlns="http://www.w3.org/2000/svg">
<path d="M29.0342 106.147L30.4534 96.9882H49.376L50.7952 105.493C48.1934 106.802 42.3274 109.418 39.6782 109.418C37.029 109.418 31.4784 107.238 29.0342 106.147Z" fill="#DED9D9"/>
<g filter="url(#filter0_d)">
<path d="M27.851 94.3586L27.1414 82.4064H26.1953V80.9722H53.8697V82.4064H53.1601L52.214 94.1196C50.164 97.1475 44.8814 103.203 40.1508 103.203C35.4201 103.203 29.9798 97.3068 27.851 94.3586Z" fill="#F4F0F0"/>
<path d="M27.851 94.3586L27.1414 82.4064H26.1953V80.9722H53.8697V82.4064H53.1601L52.214 94.1196C50.164 97.1475 44.8814 103.203 40.1508 103.203C35.4201 103.203 29.9798 97.3068 27.851 94.3586Z" stroke="#DED9D9"/>
</g>
<path d="M37.5488 65.4343C37.5488 64.6421 38.191 64 38.9831 64H41.3183C42.1104 64 42.7525 64.6421 42.7525 65.4343V65.4343C42.7525 66.2264 42.1104 66.8685 41.3183 66.8685H40.1507H38.9831C38.191 66.8685 37.5488 66.2264 37.5488 65.4343V65.4343Z" fill="#CCC2C3"/>
<rect x="24.7764" y="80.2549" width="30.7493" height="2.39044" rx="1.19522" fill="#A09595"/>
<rect x="25.7227" y="77.3864" width="28.8571" height="2.86853" rx="1.43426" fill="#6B6363"/>
<path d="M53.1603 77.6254C53.1603 78.1035 40.1509 77.3864 40.1509 77.3864L27.1416 77.6254C27.1416 69.976 32.9661 65.4342 40.1509 65.4342C47.3358 65.4342 53.1603 69.737 53.1603 77.6254Z" fill="#A09595"/>
<rect x="37.5493" y="65.4342" width="5.20373" height="11.9522" fill="#CCC2C3"/>
<rect x="33.4375" y="74.996" width="14" height="3.34661" rx="1.67331" fill="#CCC2C3"/>
<ellipse cx="40.3874" cy="76.4303" rx="4.73067" ry="4.78088" fill="#6B6363"/>
<mask id="mask0" mask-type="alpha" maskUnits="userSpaceOnUse" x="37" y="73" width="7" height="7">
<ellipse cx="40.3876" cy="76.4302" rx="3.31147" ry="3.34662" fill="#C4C4C4"/>
</mask>
<g mask="url(#mask0)">
<ellipse cx="40.3876" cy="76.9083" rx="3.78453" ry="3.8247" fill="#DED9D9"/>
<path d="M37.5493 79.2986L39.4416 73.0835C40.0093 72.5098 40.9396 72.8445 41.3338 73.0835L38.9685 80.4939C38.4008 80.4939 37.7858 79.6971 37.5493 79.2986Z" fill="white"/>
<path d="M42.9896 73.8007L42.28 73.3226L40.3877 80.0159H41.0973L42.9896 73.8007Z" fill="white"/>
</g>
<path d="M12.0035 114.199C8.78668 115.729 7.19403 121.371 6.7998 124H72.7926C72.9818 119.41 69.4023 115.554 67.5889 114.199L53.3969 107.745L51.7411 104.637C48.9816 105.673 42.7529 107.745 39.9145 107.745C37.0761 107.745 30.6897 105.673 27.8513 104.637L26.4321 107.745C22.9629 109.259 15.2204 112.669 12.0035 114.199Z" fill="#A09595"/>
<circle cx="65" cy="125" r="15" fill="#5E46A1"/>
<path fill-rule="evenodd" clip-rule="evenodd" d="M72.4997 132.2L56.8997 118.7L58.2085 117.188L73.8085 130.688L72.4997 132.2Z" fill="white"/>
<path fill-rule="evenodd" clip-rule="evenodd" d="M73.2877 118.212L58.6999 132.8L57.2856 131.386L71.8735 116.798L73.2877 118.212Z" fill="white"/>
<defs>
<filter id="filter0_d" x="24.1953" y="78.9722" width="31.6744" height="26.2311" filterUnits="userSpaceOnUse" color-interpolation-filters="sRGB">
<feFlood flood-opacity="0" result="BackgroundImageFix"/>
<feColorMatrix in="SourceAlpha" type="matrix" values="0 0 0 0 0 0 0 0 0 0 0 0 0 0 0 0 0 0 127 0"/>
<feOffset/>
<feGaussianBlur stdDeviation="1"/>
<feColorMatrix type="matrix" values="0 0 0 0 0 0 0 0 0 0 0 0 0 0 0 0 0 0 0.25 0"/>
<feBlend mode="normal" in2="BackgroundImageFix" result="effect1_dropShadow"/>
<feBlend mode="normal" in="SourceGraphic" in2="effect1_dropShadow" result="shape"/>
</filter>
</defs>
</svg>
