<svg width="196" height="192" viewBox="0 0 196 192" fill="none" xmlns="http://www.w3.org/2000/svg">
<path d="M150.977 41.0852H9.86673L18.6372 27.0789H39.7802L50.2733 8.71504L64.9951 17.2744L75.0185 0L100.233 10.2713H121.063L124.196 23.6551H141.267L150.977 41.0852Z" fill="#B9ADA2"/>
<path d="M161 47.7771H0V56.4921H4.54183L19.7335 106.759L25.6848 100.379C31.323 97.4735 45.6689 93.6555 57.9475 101.624C70.2261 109.592 71.6252 123.722 70.7899 129.792H90.5233C88.5918 123.774 88.7066 109.467 104.619 100.379C120.531 91.29 135.681 100.845 141.267 106.759L155.675 56.4921H161V47.7771Z" fill="#B9ADA2"/>
<path d="M150.977 41.0852H9.86673L18.6372 27.0789H39.7802L50.2733 8.71504L64.9951 17.2744L75.0185 0L100.233 10.2713H121.063L124.196 23.6551H141.267L150.977 41.0852Z" stroke="black"/>
<path d="M161 47.7771H0V56.4921H4.54183L19.7335 106.759L25.6848 100.379C31.323 97.4735 45.6689 93.6555 57.9475 101.624C70.2261 109.592 71.6252 123.722 70.7899 129.792H90.5233C88.5918 123.774 88.7066 109.467 104.619 100.379C120.531 91.29 135.681 100.845 141.267 106.759L155.675 56.4921H161V47.7771Z" stroke="black"/>
<ellipse cx="41.503" cy="125.59" rx="22.5525" ry="22.4101" fill="#B9ADA2"/>
<ellipse cx="119.184" cy="125.59" rx="22.5525" ry="22.4101" fill="#B9ADA2"/>
<g filter="url(#filter0_d)">
<circle cx="142" cy="138" r="38" fill="#BC2929"/>
</g>
<line x1="123.116" y1="120.149" x2="162.636" y2="154.349" stroke="white" stroke-width="5"/>
<line x1="124.272" y1="155.992" x2="161.228" y2="119.037" stroke="white" stroke-width="5"/>
<defs>
<filter id="filter0_d" x="88" y="84" width="108" height="108" filterUnits="userSpaceOnUse" color-interpolation-filters="sRGB">
<feFlood flood-opacity="0" result="BackgroundImageFix"/>
<feColorMatrix in="SourceAlpha" type="matrix" values="0 0 0 0 0 0 0 0 0 0 0 0 0 0 0 0 0 0 127 0"/>
<feOffset/>
<feGaussianBlur stdDeviation="8"/>
<feColorMatrix type="matrix" values="0 0 0 0 0 0 0 0 0 0 0 0 0 0 0 0 0 0 0.25 0"/>
<feBlend mode="normal" in2="BackgroundImageFix" result="effect1_dropShadow"/>
<feBlend mode="normal" in="SourceGraphic" in2="effect1_dropShadow" result="shape"/>
</filter>
</defs>
</svg>
