<svg width="200" height="201" viewBox="0 0 200 201" fill="none" xmlns="http://www.w3.org/2000/svg">
<path d="M167.752 46.8982H10.963L20.708 30.9819H44.2002L55.8593 10.1139L72.2168 19.8405L83.3539 0.210449L111.371 11.8824H134.515L137.995 27.0912H156.963L167.752 46.8982Z" fill="#CCC2C3"/>
<path d="M178.889 54.5026H0V64.406H5.04648L21.9261 121.528L28.5387 114.277C34.8033 110.976 50.7432 106.637 64.3861 115.692C78.029 124.746 79.5835 140.804 78.6554 147.701H100.581C98.4353 140.863 98.5629 124.605 116.243 114.277C133.923 103.949 150.756 114.808 156.963 121.528L172.972 64.406H178.889V54.5026Z" fill="#CCC2C3"/>
<ellipse cx="46.1145" cy="142.926" rx="25.0584" ry="25.466" fill="#A09595"/>
<ellipse cx="132.427" cy="142.926" rx="25.0584" ry="25.466" fill="#A09595"/>
<circle cx="162.5" cy="162.5" r="37.5" fill="#5E46A1"/>
<path fill-rule="evenodd" clip-rule="evenodd" d="M181.25 180.5L142.25 146.75L145.522 142.969L184.522 176.719L181.25 180.5Z" fill="white"/>
<path fill-rule="evenodd" clip-rule="evenodd" d="M183.219 145.53L146.75 182L143.214 178.464L179.684 141.995L183.219 145.53Z" fill="white"/>
<path d="M167.752 46.6878H10.9629L20.7079 30.7715H44.2001L55.8592 9.90345L72.2167 19.6301L83.3538 0L111.371 11.672H134.515L137.995 26.8808H156.963L167.752 46.6878Z" fill="#6B6363"/>
<path d="M178.889 54.2922H0V64.1956H5.04648L21.9261 121.318L28.5387 114.067C34.8033 110.766 50.7432 106.427 64.3861 115.482C78.029 124.536 79.5835 140.594 78.6554 147.491H100.581C98.4353 140.653 98.5629 124.395 116.243 114.067C133.923 103.739 150.756 114.598 156.963 121.318L172.972 64.1956H178.889V54.2922Z" fill="#DED9D9"/>
</svg>
