<svg width="45" height="45" viewBox="0 0 45 45" fill="none" xmlns="http://www.w3.org/2000/svg">
<circle cx="22.5" cy="22.5" r="22.5" fill="white"/>
<path d="M30.125 28H29.5625V20.0312C29.5625 16.7242 27.118 13.9914 23.9375 13.5367V12.625C23.9375 12.107 23.518 11.6875 23 11.6875C22.482 11.6875 22.0625 12.107 22.0625 12.625V13.5367C18.882 13.9914 16.4375 16.7242 16.4375 20.0312V28H15.875C15.4602 28 15.125 28.3352 15.125 28.75V29.5C15.125 29.6031 15.2094 29.6875 15.3125 29.6875H20.375C20.375 31.1359 21.5516 32.3125 23 32.3125C24.4484 32.3125 25.625 31.1359 25.625 29.6875H30.6875C30.7906 29.6875 30.875 29.6031 30.875 29.5V28.75C30.875 28.3352 30.5398 28 30.125 28ZM23 30.8125C22.3789 30.8125 21.875 30.3086 21.875 29.6875H24.125C24.125 30.3086 23.6211 30.8125 23 30.8125ZM18.125 28V20.0312C18.125 18.7281 18.6312 17.5047 19.5523 16.5836C20.4734 15.6625 21.6969 15.1562 23 15.1562C24.3031 15.1562 25.5266 15.6625 26.4477 16.5836C27.3687 17.5047 27.875 18.7281 27.875 20.0312V28H18.125Z" fill="#333333"/>
</svg>
