<svg width="52" height="60" viewBox="0 0 52 60" fill="none" xmlns="http://www.w3.org/2000/svg">
<path d="M37.7307 16.3483V13.0538C37.7307 12.7518 37.4847 12.5048 37.1839 12.5048H10.9365C10.6357 12.5048 10.3896 12.7518 10.3896 13.0538V16.3483C10.3896 16.6503 10.6357 16.8974 10.9365 16.8974H37.1839C37.4847 16.8974 37.7307 16.6503 37.7307 16.3483Z" fill="#4D4646"/>
<path d="M10.9365 22.3882C10.6357 22.3882 10.3896 22.6353 10.3896 22.9373V26.2317C10.3896 26.5337 10.6357 26.7808 10.9365 26.7808H23.5134C23.8141 26.7808 24.0602 26.5337 24.0602 26.2317V22.9373C24.0602 22.6353 23.8141 22.3882 23.5134 22.3882H10.9365Z" fill="#4D4646"/>
<path d="M36.6372 30.3499C28.4828 30.3499 21.873 36.9868 21.873 45.175C21.873 53.3631 28.4828 60.0001 36.6372 60.0001C44.7917 60.0001 51.4014 53.3631 51.4014 45.175C51.4014 36.9868 44.7917 30.3499 36.6372 30.3499Z" fill="#4D4646"/>
<path d="M43.9846 52.5532C42.0229 54.523 39.4118 55.6074 36.6367 55.6074C33.8616 55.6074 31.2505 54.523 29.2888 52.5532C27.327 50.5833 26.2471 47.9615 26.2471 45.1749C26.2471 42.3883 27.327 39.7665 29.2888 37.7967C31.2505 35.8269 33.8616 34.7424 36.6367 34.7424C39.4118 34.7424 42.0229 35.8269 43.9846 37.7967C45.9463 39.7665 47.0263 42.3883 47.0263 45.1749C47.0263 47.9615 45.9463 50.5833 43.9846 52.5532Z" fill="#4D4646"/>
<path d="M20.7792 53.4111H4.9214V5.09222H43.1989V28.7026C43.1989 29.0046 43.445 29.2517 43.7457 29.2517H47.5735C47.8742 29.2517 48.1203 29.0046 48.1203 28.7026V2.34683C48.1203 1.13199 47.1429 0.150513 45.933 0.150513H2.18729C0.977444 0.150513 0 1.13199 0 2.34683V56.1565C0 57.3713 0.977444 58.3528 2.18729 58.3528H20.7792C21.08 58.3528 21.326 58.1057 21.326 57.8037V53.9602C21.326 53.6582 21.08 53.4111 20.7792 53.4111Z" fill="#4D4646"/>
<path d="M34.4502 50.6657C34.4502 51.8787 35.4295 52.862 36.6375 52.862C37.8455 52.862 38.8248 51.8787 38.8248 50.6657C38.8248 49.4527 37.8455 48.4694 36.6375 48.4694C35.4295 48.4694 34.4502 49.4527 34.4502 50.6657Z" fill="#FBFAFA"/>
<path d="M35.2695 46.273H38.0036C38.3043 46.273 38.5504 46.026 38.5504 45.724V38.0369C38.5504 37.7349 38.3043 37.4878 38.0036 37.4878H35.2695C34.9687 37.4878 34.7227 37.7349 34.7227 38.0369V45.724C34.7227 46.026 34.9687 46.273 35.2695 46.273Z" fill="#FBFAFA"/>
</svg>
