<svg width="200" height="201" viewBox="0 0 200 201" fill="none" xmlns="http://www.w3.org/2000/svg">
<path d="M123.505 0.210449H66.8448C59.054 0.210449 52.7505 6.59463 52.7505 14.3975L52.6797 127.894C52.6797 135.697 58.9831 142.081 66.7739 142.081H151.835C159.626 142.081 166 135.697 166 127.894V42.7716L123.505 0.210449ZM137.67 113.707H81.0098V99.5199H137.67V113.707ZM137.67 85.3328H81.0098V71.1458H137.67V85.3328ZM116.422 49.8652V10.8507L155.376 49.8652H116.422Z" fill="#6B6363"/>
<path d="M54.4639 6.70825H113.503L157.782 50.9589V139.46C157.782 147.573 151.14 154.21 143.023 154.21H54.3901C46.2722 154.21 39.7041 147.573 39.7041 139.46L39.7779 21.4585C39.7779 13.3458 46.346 6.70825 54.4639 6.70825Z" fill="#F4F0F0"/>
<path d="M103.825 11.7983H47.1651C39.3743 11.7983 33.0708 18.1825 33.0708 25.9854L33 139.482C33 147.285 39.3035 153.669 47.0942 153.669H132.155C139.946 153.669 146.321 147.285 146.321 139.482V54.3595L103.825 11.7983ZM117.99 125.295H61.3301V111.108H117.99V125.295ZM117.99 96.9207H61.3301V82.7336H117.99V96.9207ZM96.7428 61.4531V22.4386L135.697 61.4531H96.7428Z" fill="#CCC2C3"/>
<circle cx="162.5" cy="162.5" r="37.5" fill="#5E46A1"/>
<path fill-rule="evenodd" clip-rule="evenodd" d="M181.25 180.5L142.25 146.75L145.522 142.969L184.522 176.719L181.25 180.5Z" fill="white"/>
<path fill-rule="evenodd" clip-rule="evenodd" d="M183.219 145.531L146.75 182L143.214 178.465L179.684 141.995L183.219 145.531Z" fill="white"/>
</svg>
