<svg width="34" height="34" viewBox="0 0 34 34" fill="none" xmlns="http://www.w3.org/2000/svg">
<path d="M9.37833 15.2858C11.4183 19.295 14.705 22.5675 18.7142 24.6217L21.8308 21.505C22.2133 21.1225 22.78 20.995 23.2758 21.165C24.8625 21.6892 26.5767 21.9725 28.3333 21.9725C29.1125 21.9725 29.75 22.61 29.75 23.3892V28.3333C29.75 29.1125 29.1125 29.75 28.3333 29.75C15.0308 29.75 4.25 18.9692 4.25 5.66667C4.25 4.8875 4.8875 4.25 5.66667 4.25H10.625C11.4042 4.25 12.0417 4.8875 12.0417 5.66667C12.0417 7.4375 12.325 9.1375 12.8492 10.7242C13.005 11.22 12.8917 11.7725 12.495 12.1692L9.37833 15.2858Z" fill="#795F48"/>
</svg>
