<svg width="18" height="22" viewBox="0 0 18 22" fill="none" xmlns="http://www.w3.org/2000/svg">
<path d="M16.5 0.5H1.5C1.08516 0.5 0.75 0.835156 0.75 1.25V20.75C0.75 21.1648 1.08516 21.5 1.5 21.5H16.5C16.9148 21.5 17.25 21.1648 17.25 20.75V1.25C17.25 0.835156 16.9148 0.5 16.5 0.5ZM5.40625 2.1875H7.65625V7.10703L6.56641 6.3125L5.40625 7.14219V2.1875ZM15.5625 19.8125H2.4375V2.1875H4V9.14609C4 9.22344 4.02344 9.30078 4.07031 9.36406C4.09877 9.40429 4.13491 9.43847 4.17667 9.46463C4.21842 9.49079 4.26494 9.50841 4.31355 9.51648C4.36215 9.52454 4.41187 9.52289 4.45984 9.51161C4.5078 9.50034 4.55305 9.47966 4.59297 9.45078L6.55703 8.04688L8.46484 9.43906C8.52813 9.48594 8.60547 9.51172 8.68516 9.51172C8.89141 9.51172 9.06016 9.34297 9.06016 9.13672V2.1875H15.5602V19.8125H15.5625Z" fill="#5E46A1"/>
</svg>
