<svg width="201" height="200" viewBox="0 0 201 200" fill="none" xmlns="http://www.w3.org/2000/svg">
<path d="M0.901278 97.4916L90.7547 25L136.237 44.6809L62.7659 134.73L0.901278 97.4916Z" fill="#CCC2C3"/>
<path d="M99.1288 102.457L142.451 45.3572L200.159 69.1901L148.992 149.626L99.1288 102.457Z" fill="#CCC2C3"/>
<path d="M69.1865 137.71L94.5427 104.939L145.316 154.591L131.897 174.948L69.1865 137.71Z" fill="#CCC2C3"/>
<circle cx="138.5" cy="157.5" r="37.5" fill="#5E46A1"/>
<path fill-rule="evenodd" clip-rule="evenodd" d="M157.25 175.5L118.25 141.75L121.522 137.969L160.522 171.719L157.25 175.5Z" fill="white"/>
<path fill-rule="evenodd" clip-rule="evenodd" d="M159.219 140.53L122.75 177L119.214 173.464L155.684 136.995L159.219 140.53Z" fill="white"/>
<mask id="path-5-inside-1" fill="white">
<path fill-rule="evenodd" clip-rule="evenodd" d="M72.3879 49.6321C75.0705 45.127 76.6059 39.8965 76.6059 34.3176C76.6059 17.4011 62.4886 3.6875 45.0739 3.6875C27.6593 3.6875 13.542 17.4011 13.542 34.3176C13.542 43.5387 17.7366 51.808 24.3733 57.4234L45.0744 82.1189L66.1623 57.09C68.5466 55.0051 70.6019 52.5719 72.243 49.8728L72.4458 49.6321H72.3879Z"/>
</mask>
<path fill-rule="evenodd" clip-rule="evenodd" d="M72.3879 49.6321C75.0705 45.127 76.6059 39.8965 76.6059 34.3176C76.6059 17.4011 62.4886 3.6875 45.0739 3.6875C27.6593 3.6875 13.542 17.4011 13.542 34.3176C13.542 43.5387 17.7366 51.808 24.3733 57.4234L45.0744 82.1189L66.1623 57.09C68.5466 55.0051 70.6019 52.5719 72.243 49.8728L72.4458 49.6321H72.3879Z" fill="#6B6363"/>
<path d="M72.3879 49.6321L70.6694 48.6088L68.8692 51.6321H72.3879V49.6321ZM24.3733 57.4234L25.906 56.1386L25.796 56.0073L25.6651 55.8966L24.3733 57.4234ZM45.0744 82.1189L43.5416 83.4038L45.0704 85.2276L46.6038 83.4076L45.0744 82.1189ZM66.1623 57.09L64.8458 55.5844L64.731 55.6847L64.6328 55.8013L66.1623 57.09ZM72.243 49.8728L70.7135 48.5842L70.6142 48.7021L70.5341 48.8337L72.243 49.8728ZM72.4458 49.6321L73.9753 50.9208L76.7461 47.6321H72.4458V49.6321ZM74.6059 34.3176C74.6059 39.5239 73.1742 44.4024 70.6694 48.6088L74.1063 50.6554C76.9668 45.8515 78.6059 40.2691 78.6059 34.3176H74.6059ZM45.0739 5.6875C61.4391 5.6875 74.6059 18.56 74.6059 34.3176H78.6059C78.6059 16.2422 63.538 1.6875 45.0739 1.6875V5.6875ZM15.542 34.3176C15.542 18.56 28.7088 5.6875 45.0739 5.6875V1.6875C26.6099 1.6875 11.542 16.2422 11.542 34.3176H15.542ZM25.6651 55.8966C19.4494 50.6375 15.542 42.9145 15.542 34.3176H11.542C11.542 44.1628 16.0237 52.9786 23.0815 58.9502L25.6651 55.8966ZM46.6071 80.8341L25.906 56.1386L22.8406 58.7083L43.5416 83.4038L46.6071 80.8341ZM64.6328 55.8013L43.5449 80.8303L46.6038 83.4076L67.6918 58.3786L64.6328 55.8013ZM70.5341 48.8337C69.0008 51.3555 67.0786 53.632 64.8458 55.5844L67.4788 58.5956C70.0147 56.3782 72.2029 53.7882 73.9519 50.9119L70.5341 48.8337ZM70.9163 48.3435L70.7135 48.5842L73.7725 51.1615L73.9753 50.9208L70.9163 48.3435ZM72.3879 51.6321H72.4458V47.6321H72.3879V51.6321Z" fill="white" mask="url(#path-5-inside-1)"/>
<ellipse cx="45.5518" cy="33.8538" rx="11.9439" ry="11.6023" fill="#F1F1F2"/>
</svg>
