<svg width="24" height="23" viewBox="0 0 24 23" fill="none" xmlns="http://www.w3.org/2000/svg">
<path d="M18.75 0H3.75C3.33516 0 3 0.335156 3 0.75V20.25C3 20.6648 3.33516 21 3.75 21H18.75C19.1648 21 19.5 20.6648 19.5 20.25V0.75C19.5 0.335156 19.1648 0 18.75 0ZM7.65625 1.6875H9.90625V6.60703L8.81641 5.8125L7.65625 6.64219V1.6875ZM17.8125 19.3125H4.6875V1.6875H6.25V8.64609C6.25 8.72344 6.27344 8.80078 6.32031 8.86406C6.34877 8.90429 6.38491 8.93847 6.42667 8.96463C6.46842 8.99079 6.51494 9.00842 6.56355 9.01648C6.61215 9.02454 6.66187 9.02289 6.70984 9.01161C6.7578 9.00034 6.80305 8.97966 6.84297 8.95078L8.80703 7.54688L10.7148 8.93906C10.7781 8.98594 10.8555 9.01172 10.9352 9.01172C11.1414 9.01172 11.3102 8.84297 11.3102 8.63672V1.6875H17.8102V19.3125H17.8125Z" fill="#5E46A1"/>
<line y1="-0.5" x2="29.1505" y2="-0.5" transform="matrix(-0.744175 0.667985 -0.533993 -0.845489 23.3774 2.4834)" stroke="white"/>
<line x1="1" y1="-1" x2="28.1505" y2="-1" transform="matrix(-0.744175 0.667985 -0.533993 -0.845489 21.6931 1.37463)" stroke="#5E46A1" stroke-width="2" stroke-linecap="round" stroke-linejoin="round"/>
</svg>
