<svg width="24" height="25" viewBox="0 0 24 25" fill="none" xmlns="http://www.w3.org/2000/svg">
<path d="M18.75 1H3.75C3.33516 1 3 1.33516 3 1.75V21.25C3 21.6648 3.33516 22 3.75 22H18.75C19.1648 22 19.5 21.6648 19.5 21.25V1.75C19.5 1.33516 19.1648 1 18.75 1ZM7.65625 2.6875H9.90625V7.60703L8.81641 6.8125L7.65625 7.64219V2.6875ZM17.8125 20.3125H4.6875V2.6875H6.25V9.64609C6.25 9.72344 6.27344 9.80078 6.32031 9.86406C6.34877 9.90429 6.38491 9.93847 6.42667 9.96463C6.46842 9.99079 6.51494 10.0084 6.56355 10.0165C6.61215 10.0245 6.66187 10.0229 6.70984 10.0116C6.7578 10.0003 6.80305 9.97966 6.84297 9.95078L8.80703 8.54688L10.7148 9.93906C10.7781 9.98594 10.8555 10.0117 10.9352 10.0117C11.1414 10.0117 11.3102 9.84297 11.3102 9.63672V2.6875H17.8102V20.3125H17.8125Z" fill="#5E46A1"/>
<line y1="-0.5" x2="30.9031" y2="-0.5" transform="matrix(-0.691274 0.722593 -0.691621 -0.72226 22.3198 0.999756)" stroke="white"/>
<line x1="1" y1="-1" x2="29.9031" y2="-1" transform="matrix(-0.691274 0.722593 -0.691621 -0.72226 21.3625 0)" stroke="#5E46A1" stroke-width="2" stroke-linecap="round" stroke-linejoin="round"/>
</svg>
