<svg width="96" height="92" viewBox="0 0 96 92" fill="none" xmlns="http://www.w3.org/2000/svg"><path d="M23.908 44.941l1.526-9.766H45.78l1.526 9.069c-2.798 1.395-9.106 4.185-11.954 4.185-2.849 0-8.817-2.325-11.445-3.488z" fill="#DADADA"/><g filter="url(#a)"><path d="M22.636 32.371l-.763-12.744h-1.017v-1.53h29.757v1.53h-.763l-1.017 12.49c-2.205 3.228-7.885 9.685-12.971 9.685-5.087 0-10.937-6.287-13.226-9.43z" fill="#E5E5E5"/><path d="M22.636 32.371l-.763-12.744h-1.017v-1.53h29.757v1.53h-.763l-1.017 12.49c-2.205 3.228-7.885 9.685-12.971 9.685-5.087 0-10.937-6.287-13.226-9.43z" stroke="#C4C4C4"/></g><path d="M33.064 1.53c0-.845.685-1.53 1.53-1.53h2.536a1.53 1.53 0 0 1 0 3.059h-2.537a1.53 1.53 0 0 1-1.53-1.53z" fill="#968C83"/><rect x="19.33" y="17.333" width="33.064" height="2.549" rx="1.274" fill="#B9ADA2"/><rect x="20.347" y="14.274" width="31.029" height="3.059" rx="1.529" fill="#968C83"/><path d="M49.85 14.529c0 .51-13.988-.255-13.988-.255l-13.989.255c0-8.157 6.263-13 13.989-13 7.725 0 13.988 4.588 13.988 13z" fill="#B9ADA2"/><path fill="#968C83" d="M33.064 1.529h5.595v12.745h-5.595z"/><rect x="28.643" y="11.725" width="15.054" height="3.568" rx="1.784" fill="#795F48"/><ellipse cx="36.116" cy="13.254" rx="5.087" ry="5.098" fill="#85786C"/><mask id="b" maskUnits="userSpaceOnUse" x="32" y="9" width="8" height="8"><ellipse cx="36.116" cy="13.254" rx="3.561" ry="3.568" fill="#C4C4C4"/></mask><g mask="url(#b)"><ellipse cx="36.116" cy="13.764" rx="4.069" ry="4.078" fill="#C4C4C4"/><path d="M33.064 16.313l2.035-6.627c.61-.612 1.61-.255 2.034 0l-2.543 7.901c-.61 0-1.272-.85-1.526-1.274zm5.85-5.863l-.764-.51-2.034 7.138h.763l2.035-6.627z" fill="#fff"/></g><path d="M5.595 53.527C2.136 55.158.424 61.174 0 63.977h70.96c.204-4.893-3.645-9.006-5.595-10.45l-15.26-6.882-1.781-3.314c-2.967 1.105-9.665 3.314-12.717 3.314-3.052 0-9.919-2.21-12.971-3.314l-1.526 3.314c-3.73 1.614-12.056 5.25-15.515 6.882z" fill="#B9ADA2"/><ellipse cx="63.656" cy="59.684" rx="16.344" ry="16.316" fill="#BC2929" filter="url(#c)"/><path transform="rotate(40.824 -43.568 100.084) skewX(-.096)" stroke="#fff" stroke-width="2" d="M0-1h22.463"/><path stroke="#fff" stroke-width="2" d="M56.085 67.46L71.98 51.592"/><defs><filter id="a" x="18.856" y="16.097" width="33.757" height="27.705" filterUnits="userSpaceOnUse" color-interpolation-filters="sRGB"><feFlood flood-opacity="0" result="BackgroundImageFix"/><feColorMatrix in="SourceAlpha" values="0 0 0 0 0 0 0 0 0 0 0 0 0 0 0 0 0 0 127 0"/><feOffset/><feGaussianBlur stdDeviation="1"/><feColorMatrix values="0 0 0 0 0 0 0 0 0 0 0 0 0 0 0 0 0 0 0.25 0"/><feBlend in2="BackgroundImageFix" result="effect1_dropShadow"/><feBlend in="SourceGraphic" in2="effect1_dropShadow" result="shape"/></filter><filter id="c" x="31.312" y="27.367" width="64.688" height="64.633" filterUnits="userSpaceOnUse" color-interpolation-filters="sRGB"><feFlood flood-opacity="0" result="BackgroundImageFix"/><feColorMatrix in="SourceAlpha" values="0 0 0 0 0 0 0 0 0 0 0 0 0 0 0 0 0 0 127 0"/><feOffset/><feGaussianBlur stdDeviation="8"/><feColorMatrix values="0 0 0 0 0 0 0 0 0 0 0 0 0 0 0 0 0 0 0.25 0"/><feBlend in2="BackgroundImageFix" result="effect1_dropShadow"/><feBlend in="SourceGraphic" in2="effect1_dropShadow" result="shape"/></filter></defs></svg>