<svg width="202" height="193" viewBox="0 0 202 193" fill="none" xmlns="http://www.w3.org/2000/svg"><path d="M55.585 104.666l3.548-22.746h47.307l3.548 21.121c-6.505 3.249-21.17 9.748-27.793 9.748-6.623 0-20.5-5.416-26.61-8.123z" fill="#DADADA"/><g filter="url(#a)"><path d="M52.629 75.39l-1.774-29.68h-2.366v-3.563h69.186v3.562h-1.774l-2.365 29.088c-5.125 7.52-18.331 22.558-30.158 22.558-11.827 0-25.427-14.643-30.75-21.965z" fill="#E5E5E5"/><path d="M52.629 75.39l-1.774-29.68h-2.366v-3.563h69.186v3.562h-1.774l-2.365 29.088c-5.125 7.52-18.331 22.558-30.158 22.558-11.827 0-25.427-14.643-30.75-21.965z" stroke="#C4C4C4"/></g><path d="M76.873 3.562A3.562 3.562 0 0 1 80.435 0h5.886a3.562 3.562 0 1 1 0 7.124h-5.886a3.562 3.562 0 0 1-3.562-3.562z" fill="#968C83"/><rect x="44.941" y="40.367" width="76.873" height="5.936" rx="2.968" fill="#B9ADA2"/><rect x="47.306" y="33.243" width="72.143" height="7.124" rx="3.562" fill="#968C83"/><path d="M115.901 33.837c0 1.187-32.523-.594-32.523-.594l-32.524.594c0-18.996 14.562-30.275 32.524-30.275 17.962 0 32.523 10.685 32.523 30.275z" fill="#B9ADA2"/><path fill="#968C83" d="M76.873 3.562h13.009v29.681H76.873z"/><rect x="66.594" y="27.307" width="35" height="8.311" rx="2" fill="#795F48"/><ellipse cx="83.969" cy="30.869" rx="11.827" ry="11.873" fill="#85786C"/><mask id="b" maskUnits="userSpaceOnUse" x="75" y="22" width="18" height="18"><ellipse cx="83.969" cy="30.869" rx="8.279" ry="8.311" fill="#C4C4C4"/></mask><g mask="url(#b)"><ellipse cx="83.969" cy="32.056" rx="9.461" ry="9.498" fill="#C4C4C4"/><path d="M76.873 37.992l4.73-15.434c1.42-1.425 3.746-.594 4.731 0L80.421 40.96c-1.42 0-2.957-1.979-3.548-2.968zm13.601-13.653L88.7 23.15l-4.73 16.622h1.773l4.73-15.434z" fill="#fff"/></g><path d="M13.01 124.661C4.966 128.461.985 142.47 0 149h164.982c.473-11.398-8.476-20.975-13.009-24.339l-35.48-16.028-4.14-7.717c-6.899 2.573-22.47 7.717-29.566 7.717s-23.062-5.144-30.158-7.717l-3.548 7.717c-8.673 3.76-28.03 12.229-36.072 16.028z" fill="#B9ADA2"/><circle cx="148" cy="139" r="38" fill="#BC2929" filter="url(#c)"/><path stroke="#fff" stroke-width="5" d="M129.116 121.149l39.52 34.2m-38.364 1.643l36.956-36.955"/><defs><filter id="a" x="46.489" y="40.147" width="73.186" height="59.207" filterUnits="userSpaceOnUse" color-interpolation-filters="sRGB"><feFlood flood-opacity="0" result="BackgroundImageFix"/><feColorMatrix in="SourceAlpha" values="0 0 0 0 0 0 0 0 0 0 0 0 0 0 0 0 0 0 127 0"/><feOffset/><feGaussianBlur stdDeviation="1"/><feColorMatrix values="0 0 0 0 0 0 0 0 0 0 0 0 0 0 0 0 0 0 0.25 0"/><feBlend in2="BackgroundImageFix" result="effect1_dropShadow"/><feBlend in="SourceGraphic" in2="effect1_dropShadow" result="shape"/></filter><filter id="c" x="94" y="85" width="108" height="108" filterUnits="userSpaceOnUse" color-interpolation-filters="sRGB"><feFlood flood-opacity="0" result="BackgroundImageFix"/><feColorMatrix in="SourceAlpha" values="0 0 0 0 0 0 0 0 0 0 0 0 0 0 0 0 0 0 127 0"/><feOffset/><feGaussianBlur stdDeviation="8"/><feColorMatrix values="0 0 0 0 0 0 0 0 0 0 0 0 0 0 0 0 0 0 0.25 0"/><feBlend in2="BackgroundImageFix" result="effect1_dropShadow"/><feBlend in="SourceGraphic" in2="effect1_dropShadow" result="shape"/></filter></defs></svg>