<svg width="196" height="192" viewBox="0 0 196 192" fill="none" xmlns="http://www.w3.org/2000/svg"><path d="M150.977 41.085H9.867l8.77-14.006H39.78L50.273 8.715l14.722 8.56L75.018 0l25.215 10.271h20.83l3.133 13.384h17.071l9.71 17.43zM161 47.777H0v8.715h4.542l15.191 50.267 5.952-6.38c5.638-2.906 19.984-6.724 32.262 1.245 12.28 7.968 13.678 22.098 12.843 28.168h19.733c-1.931-6.018-1.816-20.325 14.096-29.413 15.912-9.089 31.062.466 36.648 6.38l14.408-50.267H161v-8.715z" fill="#B9ADA2"/><ellipse cx="41.503" cy="125.59" rx="22.552" ry="22.41" fill="#B9ADA2"/><ellipse cx="119.184" cy="125.59" rx="22.552" ry="22.41" fill="#B9ADA2"/><circle cx="142" cy="138" r="38" fill="#BC2929" filter="url(#a)"/><path stroke="#fff" stroke-width="5" d="M123.116 120.149l39.52 34.2m-38.364 1.643l36.956-36.955"/><defs><filter id="a" x="88" y="84" width="108" height="108" filterUnits="userSpaceOnUse" color-interpolation-filters="sRGB"><feFlood flood-opacity="0" result="BackgroundImageFix"/><feColorMatrix in="SourceAlpha" values="0 0 0 0 0 0 0 0 0 0 0 0 0 0 0 0 0 0 127 0"/><feOffset/><feGaussianBlur stdDeviation="8"/><feColorMatrix values="0 0 0 0 0 0 0 0 0 0 0 0 0 0 0 0 0 0 0.25 0"/><feBlend in2="BackgroundImageFix" result="effect1_dropShadow"/><feBlend in="SourceGraphic" in2="effect1_dropShadow" result="shape"/></filter></defs></svg>