<svg width="170" height="188" viewBox="0 0 170 188" fill="none" xmlns="http://www.w3.org/2000/svg"><path d="M90.505 0h-56.66C26.053 0 19.75 6.384 19.75 14.187l-.07 113.497c0 7.802 6.303 14.187 14.094 14.187h85.061c7.791 0 14.165-6.385 14.165-14.187V42.561L90.505 0zm14.165 113.496H48.01V99.309h56.66v14.187zm0-28.374H48.01V70.935h56.66v14.187zM83.422 49.655V10.64l38.954 39.015H83.422z" fill="#B9ADA2"/><path d="M21.464 6.498h59.039l44.279 44.25v88.502c0 8.112-6.642 14.75-14.76 14.75H21.39c-8.118 0-14.686-6.638-14.686-14.75l.074-118.002c0-8.113 6.568-14.75 14.686-14.75z" fill="#E9E9E9"/><path d="M70.825 11.588h-56.66c-7.79 0-14.094 6.384-14.094 14.187L0 139.27c0 7.803 6.303 14.187 14.094 14.187h85.062c7.79 0 14.165-6.384 14.165-14.187V54.149L70.825 11.588zM84.99 125.084H28.33v-14.187h56.66v14.187zm0-28.374H28.33V82.523h56.66V96.71zM63.743 61.243V22.228l38.954 39.015H63.743z" fill="#B9ADA2"/><circle cx="116" cy="134" r="38" fill="#BC2929" filter="url(#a)"/><path stroke="#fff" stroke-width="5" d="M97.116 116.149l39.52 34.2m-38.364 1.643l36.956-36.955"/><defs><filter id="a" x="62" y="80" width="108" height="108" filterUnits="userSpaceOnUse" color-interpolation-filters="sRGB"><feFlood flood-opacity="0" result="BackgroundImageFix"/><feColorMatrix in="SourceAlpha" values="0 0 0 0 0 0 0 0 0 0 0 0 0 0 0 0 0 0 127 0"/><feOffset/><feGaussianBlur stdDeviation="8"/><feColorMatrix values="0 0 0 0 0 0 0 0 0 0 0 0 0 0 0 0 0 0 0.25 0"/><feBlend in2="BackgroundImageFix" result="effect1_dropShadow"/><feBlend in="SourceGraphic" in2="effect1_dropShadow" result="shape"/></filter></defs></svg>