<svg width="267" height="216" viewBox="0 0 267 216" fill="none" xmlns="http://www.w3.org/2000/svg"><path d="M18.397 129.588l87.271-97.391 56.411 6.166-64.682 109.912-79-18.687zm113.681-23.616l37.271-68.747 71.325 6.704-41.199 93.982-67.397-31.939zm-26.674 43.371l21.955-39.598 68.98 34.118-10.965 23.921-79.97-18.441z" fill="#B9ADA2"/><circle cx="172" cy="162" r="38" fill="#BC2929" filter="url(#a)"/><path stroke="#fff" stroke-width="5" d="M153.116 144.149l39.52 34.2m-38.364 1.643l36.956-36.956"/><path fill-rule="evenodd" clip-rule="evenodd" d="M89.853 72.45C92.491 67.795 94 62.394 94 56.632 94 39.163 80.12 25 63 25c-17.12 0-31 14.163-31 31.633 0 9.523 4.124 18.063 10.648 23.863L63 106l20.731-25.848a31.65 31.65 0 0 0 5.98-7.455l.199-.248h-.057z" fill="#795F48"/><ellipse cx="63.47" cy="56.154" rx="11.742" ry="11.982" fill="#F1F1F2"/><defs><filter id="a" x="118" y="108" width="108" height="108" filterUnits="userSpaceOnUse" color-interpolation-filters="sRGB"><feFlood flood-opacity="0" result="BackgroundImageFix"/><feColorMatrix in="SourceAlpha" values="0 0 0 0 0 0 0 0 0 0 0 0 0 0 0 0 0 0 127 0"/><feOffset/><feGaussianBlur stdDeviation="8"/><feColorMatrix values="0 0 0 0 0 0 0 0 0 0 0 0 0 0 0 0 0 0 0.25 0"/><feBlend in2="BackgroundImageFix" result="effect1_dropShadow"/><feBlend in="SourceGraphic" in2="effect1_dropShadow" result="shape"/></filter></defs></svg>