<svg width="70" height="70" viewBox="0 0 70 70" fill="none" xmlns="http://www.w3.org/2000/svg">
<mask id="path-1-inside-1" fill="white">
<path fill-rule="evenodd" clip-rule="evenodd" d="M45.8358 19.1496C47.2016 17.268 48 14.8532 48 11.9512C48 5.35074 42.4036 0 35.5 0C28.5964 0 23 5.35074 23 11.9512C23 14.8478 23.7955 17.2591 25.1566 19.1392L35.4732 35L45.8358 19.1496Z"/>
</mask>
<path fill-rule="evenodd" clip-rule="evenodd" d="M45.8358 19.1496C47.2016 17.268 48 14.8532 48 11.9512C48 5.35074 42.4036 0 35.5 0C28.5964 0 23 5.35074 23 11.9512C23 14.8478 23.7955 17.2591 25.1566 19.1392L35.4732 35L45.8358 19.1496Z" fill="#F736FB"/>
<path d="M45.8358 19.1496L45.0265 18.5622L45.0122 18.582L44.9988 18.6024L45.8358 19.1496ZM25.1566 19.1392L25.9949 18.5939L25.9813 18.573L25.9666 18.5528L25.1566 19.1392ZM35.4732 35L34.635 35.5453L35.4711 36.8307L36.3102 35.5472L35.4732 35ZM47 11.9512C47 14.6636 46.2563 16.868 45.0265 18.5622L46.6451 19.737C48.1469 17.668 49 15.0427 49 11.9512H47ZM35.5 1C41.8941 1 47 5.94486 47 11.9512H49C49 4.75662 42.9131 -1 35.5 -1V1ZM24 11.9512C24 5.94486 29.1059 1 35.5 1V-1C28.0869 -1 22 4.75662 22 11.9512H24ZM25.9666 18.5528C24.741 16.8598 24 14.6587 24 11.9512H22C22 15.037 22.85 17.6583 24.3466 19.7256L25.9666 18.5528ZM36.3115 34.4547L25.9949 18.5939L24.3183 19.6844L34.635 35.5453L36.3115 34.4547ZM44.9988 18.6024L34.6362 34.4528L36.3102 35.5472L46.6728 19.6968L44.9988 18.6024Z" fill="#1E1E1E" mask="url(#path-1-inside-1)"/>
<circle cx="35.5" cy="12.5" r="3" fill="#FBFAFA" stroke="#1A1A1A"/>
</svg>
