<svg width="20" height="20" viewBox="0 0 20 20" fill="none" xmlns="http://www.w3.org/2000/svg">
<path d="M19.1784 6.88289L6.55161 19.5069L2.20485 19.9877C0.94506 20.1271 -0.127205 19.0647 0.0122378 17.7955L0.493074 13.4497L13.1198 0.825659C14.2209 -0.27522 16 -0.27522 17.0963 0.825659L19.1736 2.90242C20.2747 4.0033 20.2747 5.78682 19.1784 6.88289ZM14.4277 8.36836L11.634 5.5753L2.70011 14.5121L2.3491 17.6513L5.48896 17.3004L14.4277 8.36836ZM17.5435 4.53692L15.4663 2.46015C15.2692 2.26305 14.947 2.26305 14.7547 2.46015L13.2689 3.94561L16.0626 6.73867L17.5483 5.25321C17.7407 5.0513 17.7407 4.73402 17.5435 4.53692Z" fill="#003366"/>
</svg>
