<svg xmlns="http://www.w3.org/2000/svg" viewBox="0 0 358.46 316.25"><defs><style>.cls-1{fill:#bcc1c6;}.cls-2{fill:#27ad5f;}.cls-3{fill:#f39b1f;}.cls-4{fill:#2d7fb9;}.cls-5{fill:#ecf0f1;}.cls-6{fill:#4fba6f;}.cls-7{fill:#f0c319;}.cls-8{fill:#3e96d2;}.cls-9{fill:#dc4a3d;}.cls-10{fill:#f5b54c;}.cls-11{fill:#fdd05b;}.cls-12{fill:#dee45c;}.cls-13{fill:#666766;}.cls-14,.cls-15{fill:#fff;}
.cls-15{opacity:0.25;animation: fadein 5s 0s 1 ease forwards, flickerloop 20s 5s 999 linear forwards;}
@keyframes fadein {0%{opacity:0;}10%{opacity:0;}100%{opacity: 0.25;}}
@keyframes flickerloop {
0%{opacity:0.25;}
10%{opacity:0.25;}
11%{opacity:0.1;}
12%{opacity:0.25;}
15%{opacity: 0.1;}
16%{opacity:0.3;}
17%{opacity: 0.25;}
40%{opacity: 0.25;}
42%{opacity:0.35;}
45%{opacity:0.35;}
46%{opacity:0.25;}
70%{opacity:0.2;}
75%{opacity: 0.15;}
77%{opacity: 0.25;}
90%{opacity: 0.25;}
91%{opacity:0;}
92%{opacity: 0.25;}
100%{opacity: 0.25;}
}
</style></defs><title>Asset 5</title><g id="Layer_2" data-name="Layer 2"><g id="Layer_12" data-name="Layer 12"><polygon class="cls-1" points="113.2 266.35 0 316.25 28.3 166.56 132.06 116.67 113.2 266.35"/><polygon class="cls-2" points="114.16 257.63 9.64 304.03 33.69 170.44 130.93 124.6 114.16 257.63"/><polygon class="cls-3" points="12.54 287.89 119.35 216.46 121.39 200.28 15.63 270.75 12.54 287.89"/><polygon class="cls-3" points="40.51 167.23 126.27 162.85 127.65 150.59 66.97 154.75 40.51 167.23"/><polygon class="cls-4" points="12.54 287.89 119.35 216.46 114.16 257.63 9.64 304.03 12.54 287.89"/><polygon class="cls-5" points="226.4 146.6 132.06 116.67 113.2 266.35 245.26 296.29 226.4 146.6"/><polygon class="cls-6" points="227.28 153.64 130.93 124.6 114.16 257.63 244.21 287.89 227.28 153.64"/><polygon class="cls-7" points="119.35 216.46 237.61 235.55 235.38 217.88 121.39 200.28 119.35 216.46"/><polygon class="cls-7" points="126.27 162.85 144.87 203.91 157.92 205.92 127.65 150.59 126.27 162.85"/><polygon class="cls-8" points="119.35 216.46 237.61 235.55 244.21 287.89 114.16 257.63 119.35 216.46"/><polygon class="cls-1" points="320.73 116.67 226.4 146.6 245.26 296.29 358.46 266.35 320.73 116.67"/><polygon class="cls-2" points="315.51 125.53 227.28 153.64 244.21 287.89 349.24 259.34 315.51 125.53"/><polygon class="cls-3" points="235.38 217.88 328.2 175.85 332.41 192.57 237.61 235.55 235.38 217.88"/><polygon class="cls-4" points="244.21 287.89 349.24 259.34 332.41 192.57 237.61 235.55 244.21 287.89"/></g><g id="Layer_6" data-name="Layer 6"><ellipse class="cls-9" cx="216.3" cy="63.71" rx="41.98" ry="37.22"/></g><g id="Layer_3" data-name="Layer 3"><path class="cls-9" d="M276.13,63.71c0,44.69-59.58,119.17-59.58,119.17S157,108.4,157,63.71s14.9-59.59,59.59-59.59S276.13,19,276.13,63.71Zm-59.58-29.8a29.8,29.8,0,1,0,29.79,29.8A29.8,29.8,0,0,0,216.55,33.91Z"/></g><g id="Layer_8" data-name="Layer 8"><polyline class="cls-10" points="192.34 63.71 204.34 0 228.34 0 240.33 63.71"/><path class="cls-11" d="M272.93,67.31c0-42.47-14.16-56.63-56.63-56.63s-56.63,14.16-56.63,56.63"/><path class="cls-11" d="M280.43,67.31c-.05-14-1.11-29.44-8.55-41.78-6.5-10.77-17.46-17.16-29.54-19.88-15.24-3.44-32-3.36-47.34-.9-12.39,2-24.17,7.1-31.89,17.31C153.52,34.77,152.23,52,152.17,67.31c0,9.65,15,9.66,15,0,0-11.17.58-23.85,6.07-33.46,4.4-7.72,11.76-11.65,21-13.74,12.51-2.82,26.73-2.83,39.37-.9,5,.77,10.45,2.07,14.61,4.21a26.32,26.32,0,0,1,9.07,7.21c7.57,10,8.09,24.34,8.14,36.68,0,9.65,15,9.67,15,0Z"/><polyline class="cls-10" points="180.91 66.31 198.6 2.6 234 2.6 251.69 66.31"/><path class="cls-10" d="M157.67,67.31s14.58,9.76,58.43,9.76S275,67.31,275,67.31Z"/><path class="cls-10" d="M153.89,73.78c10.17,6.72,25,8.22,36.62,9.5C215.36,86,242.87,85.87,267,78.57c4-1.2,8.27-2.55,11.77-4.79,6.14-3.92,3.87-14-3.79-14H157.67c-9.65,0-9.67,15,0,15H275l-3.78-14a9.23,9.23,0,0,1-1.75.94,8.65,8.65,0,0,0-.93.43c-1.12.54,1.54-.6.21-.09-1.13.44-2.27.87-3.42,1.26a115.13,115.13,0,0,1-25,5.06c-23,2.34-48.21,2.53-70.56-4.22-1.53-.47-3-1-4.55-1.54-2.4-.88.36.35-1.5-.62a25,25,0,0,1-2.28-1.22C153.38,55.5,145.86,68.48,153.89,73.78Z"/><circle class="cls-12" cx="216.34" cy="54.46" r="22.61"/><path class="cls-13" d="M236.44,54.46c-.32,10.94-8.89,20.11-20.1,20.11a20.11,20.11,0,0,1-.69-40.2c11.47-.39,20.46,8.88,20.79,20.09.1,3.21,5.1,3.22,5,0-.68-22.83-29.66-34.09-44.56-15.83-14.37,17.61,1.28,44.1,23.52,40.58,12.24-1.93,20.68-12.62,21-24.75C241.54,51.24,236.54,51.25,236.44,54.46Z"/><path class="cls-14" d="M216.34,42c0-1.42-6.42-2.35-10,.6s-4.15,7.89-2.89,9.07,2.51-3.58,5.41-5.89S216.34,43.42,216.34,42Z"/></g><g id="Layer_10" data-name="Layer 10"><path class="cls-15" d="M312.26,215.61,236.82,54.26S235.13,34.72,217,34.72s-20.45,19.54-20.45,19.54L115.32,215.61c0,14.32,43.67,25.93,102.47,25.93S312.26,229.93,312.26,215.61Z"/><ellipse class="cls-15" cx="213.79" cy="217.05" rx="98.47" ry="24.49"/></g></g></svg>