<svg width="99" height="99" viewBox="0 0 99 99" fill="none" xmlns="http://www.w3.org/2000/svg">
<path d="M82.6225 27.9018L61.817 7.09629C61.2369 6.51621 60.4538 6.1875 59.632 6.1875H18.5625C16.8513 6.1875 15.4688 7.57002 15.4688 9.28125V89.7188C15.4688 91.43 16.8513 92.8125 18.5625 92.8125H80.4375C82.1487 92.8125 83.5312 91.43 83.5312 89.7188V30.0964C83.5312 29.2746 83.2025 28.4818 82.6225 27.9018ZM76.3963 31.5176H58.2012V13.3225L76.3963 31.5176ZM76.5703 85.8516H22.4297V13.1484H51.627V34.0312C51.627 35.1082 52.0548 36.141 52.8163 36.9025C53.5778 37.664 54.6106 38.0918 55.6875 38.0918H76.5703V85.8516Z" fill="white"/>
</svg>
