<svg width="21" height="21" viewBox="0 0 21 21" fill="none" xmlns="http://www.w3.org/2000/svg">
<path d="M12.805 11.3437C12.1327 10.657 11.2924 10.142 10.452 9.71281C11.7125 8.7686 12.4688 7.30938 12.4688 5.67848C12.4688 2.93171 10.284 0.699951 7.59489 0.699951C4.90582 0.699951 2.72095 2.93171 2.72095 5.67848C2.72095 7.30938 3.47726 8.85444 4.73776 9.71281C3.89742 10.0562 3.05709 10.657 2.38482 11.3437C1.71255 12.0304 1.20835 12.8888 0.788185 13.7471C0.452052 14.6055 0.199951 15.5497 0.199951 16.4939C0.199951 16.4939 0.199951 16.4939 0.199951 16.5797C0.199951 16.6656 0.199951 16.5797 0.199951 16.6656C0.199951 16.6656 0.199951 16.6656 0.283985 16.6656C0.283985 16.6656 0.283985 16.6656 0.368018 16.6656H1.54449C1.62852 16.6656 1.71255 16.5797 1.71255 16.4939C1.71255 14.9488 2.38482 13.4896 3.47726 12.3737C4.56969 11.2579 6.08229 10.5712 7.67893 10.5712C9.27556 10.5712 10.7041 11.172 11.8806 12.3737L12.805 11.3437ZM7.59489 9.11195C6.67053 9.11195 5.83019 8.7686 5.24196 8.08191C4.56969 7.48105 4.23356 6.62269 4.23356 5.67848C4.23356 4.73428 4.56969 3.87591 5.24196 3.18922C5.83019 2.58836 6.67053 2.24501 7.59489 2.24501C8.51926 2.24501 9.3596 2.58836 10.0319 3.27505C10.6201 3.87591 10.9562 4.73428 10.9562 5.67848C10.9562 6.62269 10.6201 7.48105 9.94783 8.16775C9.3596 8.7686 8.51926 9.11195 7.59489 9.11195Z" fill="white"/>
<g clip-path="url(#clip0)">
<path d="M19.3045 17.0274L18.7132 16.511C18.7412 16.3358 18.7556 16.1569 18.7556 15.978C18.7556 15.7992 18.7412 15.6203 18.7132 15.4451L19.3045 14.9287C19.3491 14.8897 19.381 14.8378 19.396 14.7798C19.411 14.7218 19.4083 14.6606 19.3884 14.6041L19.3803 14.5802C19.2175 14.1155 18.9738 13.6847 18.6608 13.3086L18.6446 13.2893C18.6066 13.2437 18.556 13.2109 18.4995 13.1953C18.4429 13.1796 18.383 13.1819 18.3277 13.2017L17.5938 13.4681C17.323 13.2413 17.0206 13.0624 16.6938 12.937L16.5521 12.1533C16.5414 12.0943 16.5134 12.04 16.4718 11.9977C16.4302 11.9554 16.377 11.927 16.3192 11.9163L16.2949 11.9117C15.8245 11.825 15.3299 11.825 14.8596 11.9117L14.8352 11.9163C14.7774 11.927 14.7242 11.9554 14.6826 11.9977C14.641 12.04 14.613 12.0943 14.6023 12.1533L14.4597 12.9407C14.1355 13.0661 13.8336 13.2449 13.566 13.47L12.8267 13.2017C12.7714 13.1817 12.7115 13.1794 12.6549 13.195C12.5983 13.2107 12.5477 13.2435 12.5098 13.2893L12.4936 13.3086C12.181 13.6849 11.9373 14.1157 11.7741 14.5802L11.766 14.6041C11.7254 14.7194 11.7588 14.8485 11.8499 14.9287L12.4484 15.4506C12.4205 15.624 12.4069 15.801 12.4069 15.9771C12.4069 16.1542 12.4205 16.3312 12.4484 16.5036L11.8499 17.0255C11.8053 17.0645 11.7734 17.1164 11.7584 17.1744C11.7434 17.2324 11.7461 17.2937 11.766 17.3501L11.7741 17.3741C11.9375 17.8388 12.1794 18.2675 12.4936 18.6456L12.5098 18.665C12.5478 18.7106 12.5984 18.7433 12.6549 18.759C12.7115 18.7746 12.7714 18.7724 12.8267 18.7526L13.566 18.4842C13.835 18.7101 14.1356 18.889 14.4597 19.0135L14.6023 19.801C14.613 19.8599 14.641 19.9142 14.6826 19.9565C14.7242 19.9988 14.7774 20.0272 14.8352 20.0379L14.8596 20.0425C15.3342 20.1297 15.8202 20.1297 16.2949 20.0425L16.3192 20.0379C16.377 20.0272 16.4302 19.9988 16.4718 19.9565C16.5134 19.9142 16.5414 19.8599 16.5521 19.801L16.6938 19.0172C17.0205 18.8921 17.3246 18.7127 17.5938 18.4861L18.3277 18.7526C18.383 18.7725 18.4429 18.7748 18.4995 18.7592C18.5561 18.7435 18.6067 18.7107 18.6446 18.665L18.6608 18.6456C18.975 18.2666 19.2169 17.8388 19.3803 17.3741L19.3884 17.3501C19.429 17.2367 19.3956 17.1076 19.3045 17.0274ZM18.0723 15.5539C18.0948 15.6931 18.1066 15.836 18.1066 15.979C18.1066 16.1219 18.0948 16.2648 18.0723 16.404L18.0127 16.7738L18.687 17.363C18.5848 17.6035 18.4558 17.8313 18.3025 18.0416L17.4648 17.7383L17.1813 17.9762C16.9656 18.1569 16.7254 18.2989 16.4655 18.3985L16.1215 18.5303L15.96 19.4247C15.705 19.4543 15.4476 19.4543 15.1927 19.4247L15.0311 18.5285L14.6898 18.3948C14.4326 18.2952 14.1934 18.1532 13.9794 17.9734L13.696 17.7346L12.8528 18.0407C12.6994 17.8296 12.5712 17.6018 12.4683 17.3621L13.1498 16.7673L13.0912 16.3985C13.0695 16.2611 13.0578 16.1191 13.0578 15.979C13.0578 15.8379 13.0686 15.6968 13.0912 15.5594L13.1498 15.1906L12.4683 14.5958C12.5703 14.3552 12.6994 14.1284 12.8528 13.9172L13.696 14.2233L13.9794 13.9845C14.1934 13.8047 14.4326 13.6627 14.6898 13.5631L15.032 13.4313L15.1936 12.535C15.4472 12.5055 15.7063 12.5055 15.9609 12.535L16.1224 13.4294L16.4664 13.5613C16.7254 13.6609 16.9665 13.8029 17.1822 13.9836L17.4657 14.2215L18.3034 13.9181C18.4568 14.1293 18.585 14.357 18.6879 14.5968L18.0136 15.186L18.0723 15.5539ZM15.5781 14.2639C14.7007 14.2639 13.9894 14.9905 13.9894 15.8867C13.9894 16.783 14.7007 17.5096 15.5781 17.5096C16.4555 17.5096 17.1669 16.783 17.1669 15.8867C17.1669 14.9905 16.4555 14.2639 15.5781 14.2639ZM16.293 16.617C16.1993 16.7131 16.0878 16.7893 15.9651 16.8412C15.8424 16.8931 15.7109 16.9197 15.5781 16.9195C15.3082 16.9195 15.0545 16.8116 14.8632 16.617C14.7691 16.5212 14.6946 16.4074 14.6437 16.2821C14.5929 16.1568 14.5669 16.0224 14.5671 15.8867C14.5671 15.611 14.6727 15.3519 14.8632 15.1565C15.0545 14.961 15.3082 14.854 15.5781 14.854C15.848 14.854 16.1017 14.961 16.293 15.1565C16.3871 15.2522 16.4617 15.3661 16.5125 15.4914C16.5633 15.6167 16.5893 15.7511 16.5891 15.8867C16.5891 16.1624 16.4835 16.4216 16.293 16.617Z" fill="white"/>
</g>
<defs>
<clipPath id="clip0">
<rect width="9.24368" height="9.44204" fill="white" transform="translate(10.9563 11.2578)"/>
</clipPath>
</defs>
</svg>
