<svg width="47" height="58" viewBox="0 0 47 58" fill="none" xmlns="http://www.w3.org/2000/svg">
<path fill-rule="evenodd" clip-rule="evenodd" d="M1 3.92857C1 2.29698 2.33381 1 3.95455 1H43.0455C44.6662 1 46 2.29698 46 3.92857V54.0714C46 55.703 44.6662 57 43.0455 57H3.95455C2.33381 57 1 55.703 1 54.0714V3.92857ZM3.95455 3C3.41307 3 3 3.42669 3 3.92857V54.0714C3 54.5733 3.41307 55 3.95455 55H43.0455C43.5869 55 44 54.5733 44 54.0714V3.92857C44 3.42668 43.5869 3 43.0455 3H3.95455Z" fill="#4D4646" stroke="#4D4646" stroke-width="1.5"/>
<path d="M37.3411 14.8437V11.5492C37.3411 11.2472 37.095 11.0001 36.7943 11.0001H10.5468C10.2461 11.0001 10 11.2472 10 11.5492V14.8437C10 15.1457 10.2461 15.3927 10.5468 15.3927H36.7943C37.095 15.3927 37.3411 15.1457 37.3411 14.8437Z" fill="#4D4646"/>
<path d="M37.3411 24.8435V21.5491C37.3411 21.2471 37.095 21 36.7943 21H10.5468C10.2461 21 10 21.2471 10 21.5491V24.8435C10 25.1455 10.2461 25.3926 10.5468 25.3926H36.7943C37.095 25.3926 37.3411 25.1455 37.3411 24.8435Z" fill="#4D4646"/>
<path d="M23 34.5V31.5C23 31.225 22.883 31 22.74 31H10.26C10.117 31 10 31.225 10 31.5V34.5C10 34.775 10.117 35 10.26 35H22.74C22.883 35 23 34.775 23 34.5Z" fill="#4D4646"/>
</svg>
