<svg width="66" height="84" viewBox="0 0 66 84" fill="none" xmlns="http://www.w3.org/2000/svg">
<path d="M63 0H12.75C12.3375 0 12 0.3375 12 0.75V6C12 6.4125 12.3375 6.75 12.75 6.75H59.25V71.25C59.25 71.6625 59.5875 72 60 72H65.25C65.6625 72 66 71.6625 66 71.25V3C66 1.34062 64.6594 0 63 0ZM51 12H3C1.34062 12 0 13.3406 0 15V64.7531C0 65.55 0.318749 66.3094 0.881249 66.8719L17.1281 83.1187C17.3344 83.325 17.5688 83.4937 17.8219 83.6344V83.8125H18.2156C18.5437 83.9344 18.8906 84 19.2469 84H51C52.6594 84 54 82.6594 54 81V15C54 13.3406 52.6594 12 51 12ZM17.8125 74.2688L9.74062 66.1875H17.8125V74.2688ZM47.25 77.25H23.8125V63.9375C23.8125 61.8656 22.1344 60.1875 20.0625 60.1875H6.75V18.75H47.25V77.25Z" fill="white"/>
</svg>
