<svg width="64" height="64" viewBox="0 0 64 64" fill="none" xmlns="http://www.w3.org/2000/svg">
<path fill-rule="evenodd" clip-rule="evenodd" d="M32 0C14.325 0 0 14.325 0 32C0 49.675 14.325 64 32 64C49.675 64 64 49.675 64 32C64 14.325 49.675 0 32 0ZM50.8546 50.8547C48.4061 53.3032 45.5515 55.2304 42.3758 56.5698C39.0909 57.9638 35.6 58.6668 32 58.6668C28.4 58.6668 24.9091 57.9638 21.6243 56.5759C18.4485 55.2304 15.6 53.3092 13.1455 50.8607C10.697 48.4123 8.76971 45.5577 7.43032 42.382C6.03638 39.091 5.33335 35.6001 5.33335 32.0001C5.33335 28.4001 6.03638 24.9092 7.42426 21.6244C8.76971 18.4486 10.6909 15.6001 13.1394 13.1456C15.5879 10.6971 18.4424 8.76984 21.6182 7.43044C24.9091 6.0365 28.4 5.33347 32 5.33347C35.6 5.33347 39.0909 6.0365 42.3758 7.42438C45.5515 8.76983 48.4 10.691 50.8546 13.1395C53.3031 15.588 55.2303 18.4426 56.5697 21.6183C57.9637 24.9092 58.6667 28.4001 58.6667 32.0001C58.6667 35.6001 57.9637 39.091 56.5758 42.3759C55.2303 45.5517 53.3091 48.4062 50.8546 50.8547Z" fill="#45A766"/>
<path d="M49.5761 24.1339L46.8313 21.4234C46.2629 20.8621 45.3375 20.8584 44.7644 21.4153L27.5485 38.1442L20.2662 30.9527C19.6977 30.3913 18.7723 30.3876 18.1993 30.9445L15.4322 33.6332C14.8592 34.19 14.8554 35.0965 15.424 35.658L26.4806 46.5766C27.049 47.1379 27.9744 47.1416 28.5475 46.5847L49.5679 26.1586C50.1408 25.6017 50.1445 24.6952 49.5761 24.1339Z" fill="#45A766"/>
</svg>
