<svg width="243" height="178" viewBox="0 0 243 178" fill="none" xmlns="http://www.w3.org/2000/svg">
<path d="M142.226 142.226C142.226 142.226 147.944 170.814 162.953 177.961H74.3291C74.3291 177.961 97.1997 162.953 95.7703 142.226H142.226Z" fill="#666666"/>
<path d="M234.424 0H8.57647C3.83982 0 0 3.83982 0 8.57647V142.226C0 146.963 3.83982 150.803 8.57647 150.803H234.424C239.16 150.803 243 146.963 243 142.226V8.57647C243 3.83982 239.16 0 234.424 0Z" fill="#B3B3B3"/>
<path d="M226.804 15.0093H16.0801V133.543H226.804V15.0093Z" fill="#78C4E8"/>
<path d="M146.571 16.1028C146.571 16.1028 117.325 18.2969 110.779 20.4911C104.232 22.6852 70.1905 26.709 70.1905 26.709C70.1905 26.709 65.4377 27.4237 63.9725 26.709C62.5074 25.9943 74.9433 22.6852 74.9433 22.6852C74.9433 22.6852 97.2492 17.2034 105.29 17.2034C108.22 17.9181 112.608 15.0093 112.608 15.0093H149.902L146.571 16.1028Z" fill="#8FCEEC"/>
<path d="M87.8574 15.0093C87.8574 15.0093 81.425 16.6888 78.7663 16.3529C76.1076 16.017 71.026 19.0474 71.026 19.0474C71.026 19.0474 67.9957 21.7418 61.2632 21.07C54.5306 20.3982 44.4318 22.7495 44.4318 22.7495C44.4318 22.7495 33.9971 25.1081 29.6231 29.4821L22.5547 24.7722C22.5547 24.7722 38.707 15.3452 42.7523 15.3452C46.7975 15.3452 87.8574 15.0093 87.8574 15.0093Z" fill="url(#paint0_linear)"/>
<path d="M58.7047 71.5923C58.7047 71.5923 81.9255 68.7335 83.3477 67.3041C84.77 65.8746 72.4485 67.3041 72.4485 67.3041C72.4485 67.3041 70.0756 63.5161 67.71 63.5161C65.3443 63.5161 62.4926 66.8323 62.4926 66.8323H53.4873L58.7047 71.5923Z" fill="url(#paint1_linear)"/>
<path d="M226.797 27.2374C210.588 26.78 185.28 27.073 161.102 31.5257C121.142 38.8871 79.568 40.5667 79.568 40.5667C79.568 40.5667 32.9763 39.5232 44.3115 46.3558C55.6467 53.1884 94.6125 50.0294 94.6125 50.0294C94.6125 50.0294 183.751 65.6028 205.12 56.2402C212.725 52.9097 220.265 50.1795 226.819 48.0354" fill="url(#paint2_linear)"/>
<path d="M203.283 15.1522L183.986 20.5983C183.986 20.5983 143.726 31.133 133.327 32.2051C122.929 33.2772 111.357 33.4701 111.357 33.4701C111.357 33.4701 111.908 31.1545 133.606 26.1372C138.223 25.2653 154.211 23.9502 165.589 19.8907C169.163 18.6114 174.509 16.8604 180.427 15.0093" fill="url(#paint3_linear)"/>
<path d="M43.625 84.8149C52.1115 84.8149 58.9911 77.9352 58.9911 69.4487C58.9911 60.9622 52.1115 54.0825 43.625 54.0825C35.1385 54.0825 28.2588 60.9622 28.2588 69.4487C28.2588 77.9352 35.1385 84.8149 43.625 84.8149Z" fill="#F3FAFD"/>
<path d="M138.009 116.997C138.009 116.997 121.235 97.7716 117.24 96.9854C117.24 96.9854 102.86 86.5721 100.465 80.1684C100.465 80.1684 92.475 72.1565 86.0856 75.3584C85.2851 74.5579 78.0952 79.3679 72.5062 78.5674C72.5062 78.5674 64.5229 76.9594 61.321 79.3679C61.321 79.3679 47.7416 80.1684 43.7464 67.3466C42.1669 59.3204 20.5756 61.729 20.5756 61.729C20.5756 61.729 17.3738 62.5294 14.9795 67.3323V132.22L138.009 116.997Z" fill="#768D44"/>
<path d="M130.79 105.777C130.79 105.777 139.174 90.5897 151.366 84.5147C163.559 78.4397 175.759 77.675 179.569 72.3647C183.378 67.0545 207.006 61.7371 207.006 61.7371C207.006 61.7371 219.199 55.6549 226.06 62.4947V64.7746L226.796 117.213L130.79 105.777Z" fill="#768D44"/>
<path d="M14.8721 117.004H26.8863L32.8898 118.312L38.15 117.598L48.6562 117.405L65.1802 119.649L83.9484 119.091C89.6582 120.044 95.4343 120.543 101.223 120.585C110.228 120.585 121.492 122.272 121.492 122.272C128.227 122.987 134.995 123.361 141.768 123.394C152.281 123.394 164.296 124.109 168.798 122.272C176.317 122.886 183.884 122.571 191.326 121.336C202.59 119.277 224.36 116.476 224.36 116.476L228.119 115.354V133.65H14.8721V117.004Z" fill="#180733"/>
<path d="M132.37 114.002C132.37 114.002 141.704 113.138 142.64 111.401C142.64 111.401 131.433 112.266 132.37 109.664H145.442L144.505 106.198L143.576 107.935L142.64 106.198H140.796L139.86 107.063L137.994 106.198L137.058 107.063V105.326H134.256L132.37 103.632L131.433 105.362L130.497 103.632L129.568 105.362L128.646 101.86V104.461L125.844 100.123V104.461L123.043 97.5212V100.995L121.177 99.258L120.241 97.5212L119.305 100.123L115.574 96.6565L113.701 98.386L109.034 96.6565V97.5212L108.513 98.093L107.155 95.7702L106.133 97.75L103.417 95.7702V98.3717L100.615 94.0406V97.5069L97.8136 94.9054V97.5069L95.9482 94.0406V96.6422L95.012 92.3039L93.1466 94.9054L91.2812 92.3039V94.0406L88.4795 91.482V94.0907L86.607 89.7524V94.0907L84.7416 89.7524V92.3539L82.9048 89.7167V93.183L80.046 91.482V92.3539L78.1735 89.7524V91.482L75.3718 89.7524V92.3539L72.5702 88.0157L71.6411 89.7524L69.7685 87.1437L68.8394 89.7524V83.6202L66.974 89.6952L66.0378 86.2217L64.1724 87.0865L63.2647 83.6202H61.3993V80.1467L58.6048 82.7769L56.7323 80.1682V81.9049L53.9307 78.4386L53.0015 82.7769L51.1219 79.332L49.2565 81.9335V78.4672L47.3911 80.1968L44.5895 78.4672V79.332L41.7878 75.8657V79.332L38.9862 73.257L36.1845 80.1968V77.5952L33.3829 79.332V74.1289L31.5103 78.4672L29.645 74.9937L28.7087 78.4672L25.9142 74.1289V77.5952L22.1548 73.2284V75.8371L19.3532 73.2284V74.9651L15.6367 71.4702V113.974L132.37 114.002Z" fill="#556F39"/>
<path d="M137.151 103.575H131.841C131.841 103.575 130.612 104.397 134.292 104.397C134.292 104.397 136.744 104.804 131.841 105.211C131.841 105.211 129.389 105.211 133.478 107.255C133.478 107.255 134.7 108.07 132.656 108.478C132.656 108.478 131.841 108.892 133.478 109.299C133.478 109.299 129.797 108.892 129.797 110.114C129.797 111.336 132.248 111.751 132.248 111.751C132.248 111.751 135.107 112.566 135.515 114.61C135.922 114.61 130.612 115.832 133.063 118.283C135.515 120.735 144.498 118.691 144.498 118.691C144.498 118.691 150.623 115.017 150.623 112.973C150.623 110.929 142.862 111.336 142.862 111.336C142.862 111.336 141.232 110.929 141.64 110.522C142.047 110.114 139.188 110.522 139.188 110.522C139.188 110.522 139.595 110.522 139.595 109.299C139.595 108.077 136.737 109.299 136.737 109.299C136.737 109.299 138.781 106.848 140.41 106.441C142.04 106.033 139.188 105.619 139.188 105.619C139.188 105.619 141.64 106.026 141.64 105.211C141.64 104.397 137.551 104.397 137.551 104.397C137.551 104.397 135.915 104.397 136.737 103.989C137.559 103.582 137.151 103.575 137.151 103.575Z" fill="url(#paint4_linear)"/>
<path d="M144.505 109.729C144.505 109.729 138.787 109.729 141.317 109.093H135.599C135.599 109.093 134.963 108.457 136.879 108.457C136.879 108.457 136.235 106.541 141.346 106.541C141.346 106.541 141.346 105.262 143.261 106.541C143.261 106.541 143.261 105.262 143.897 105.262C143.897 105.262 143.897 103.99 144.533 105.262C144.533 105.262 145.176 105.898 145.813 104.626L146.449 103.347L147.085 105.262C147.623 104.821 148.305 104.594 149 104.626L149.643 103.347L150.279 103.99V102.074L150.916 103.347L151.559 102.074L152.195 102.711V100.774L152.831 102.053L153.467 99.4944L154.11 100.774L155.382 99.4944L156.026 100.774L156.662 99.4944L157.948 100.774L158.584 99.4944L159.22 101.41C159.22 101.41 158.584 100.138 160.5 100.138C162.415 100.138 161.772 100.774 161.772 100.774L163.687 99.4944V100.138L165.603 99.4944V100.138L166.882 98.8583L167.518 99.4944V98.8583L168.797 100.138L170.07 98.8583V100.138L170.713 98.8583L171.349 100.774L171.985 100.138L173.264 101.41V98.8583L173.9 100.138L174.537 98.8583L175.18 100.138L175.816 98.8583L177.095 99.4944L177.467 98.0078L177.731 96.9428L179.011 98.2222L179.647 97.5861L181.562 98.2222L182.198 95.6707L183.478 97.5861L184.114 95.6707L184.75 96.9428L185.393 95.6707V96.9428L187.301 95.6707V96.9428L188.581 95.0274V95.6707L191.132 94.3914V95.056L193.684 94.4199L194.327 95.056L196.242 93.7839L198.158 95.6993L199.401 94.4128L200.037 93.1335L200.68 95.0489L201.317 93.7767L203.232 92.4974L203.868 93.7767L205.783 92.4974L206.427 93.7767L207.699 91.8613L208.978 92.4974L211.53 93.7767L212.166 91.2252L213.445 91.8613L214.717 93.7767L216.633 92.4974L217.276 91.2252H219.191V91.8613L222.379 91.2252V89.9459H223.658V90.582L224.294 91.8613L226.203 89.3384V90.6106L227.475 89.3384L228.118 89.9745V110.401L145.148 109.758L144.505 109.729Z" fill="#556F39"/>
<path d="M223.89 139.246V114.053C223.89 114.053 226.97 117.141 227.999 117.141C229.028 117.141 227.485 117.141 227.485 116.111C227.485 116.111 227.999 116.626 231.058 116.626C231.058 116.626 229.514 116.626 230.544 115.597C231.363 116.029 232.225 116.374 233.116 116.626C233.116 116.626 231.058 115.597 232.602 114.568C232.602 114.568 233.116 116.626 235.175 114.053C235.175 114.053 233.631 114.568 234.146 113.538C234.146 113.538 236.711 114.053 238.255 112.509C238.255 112.509 235.682 113.538 236.711 112.509C237.646 112.405 238.536 112.05 239.284 111.48C239.284 111.48 237.741 111.995 238.255 110.966C238.255 110.966 239.284 111.48 239.284 110.451C239.284 110.451 238.255 110.966 238.77 109.944C238.77 109.944 240.828 109.944 240.828 108.4C240.828 108.4 240.314 109.429 239.799 108.914C239.799 108.914 241.857 107.371 241.857 106.341C241.857 106.341 238.284 109.429 238.284 108.4C238.284 108.4 239.313 107.885 238.284 106.856C238.284 106.856 235.203 109.429 234.71 108.4C234.846 108.403 234.981 108.378 235.107 108.327C235.232 108.277 235.347 108.201 235.442 108.104C235.538 108.008 235.613 107.893 235.663 107.767C235.712 107.641 235.736 107.506 235.732 107.371C235.732 107.371 233.166 109.429 232.652 108.4C232.652 108.914 233.681 108.4 233.681 107.371C233.681 107.371 229.05 108.914 229.05 107.885C229.05 107.885 229.564 107.885 229.564 106.856C229.564 106.856 224.94 107.885 225.455 105.312C226.533 105.943 227.816 106.128 229.028 105.827C229.028 105.827 227.999 105.312 229.543 104.283C229.543 104.283 231.087 106.341 232.116 104.798C232.116 104.798 230.058 103.768 231.087 103.254C231.087 103.254 233.66 104.798 234.66 103.254C234.66 103.254 231.573 103.254 232.602 102.225C232.602 102.225 235.682 102.739 235.682 101.203C235.682 101.203 233.631 101.71 234.146 100.688C234.146 100.688 237.226 100.688 237.226 99.6589C237.226 99.6589 235.682 100.173 235.682 99.1443C235.682 99.1443 237.226 98.1151 236.711 97.6005C236.711 97.6005 233.631 100.173 233.631 99.1443V98.1151C233.631 98.1151 234.146 99.1443 231.573 100.173V99.1443C231.573 99.1443 229.514 101.71 227.456 100.688C227.456 100.688 224.376 100.688 224.89 99.1443C225.233 99.4517 225.652 99.6616 226.103 99.7521C226.554 99.8427 227.021 99.8105 227.456 99.6589C227.456 99.6589 225.405 99.1443 226.434 98.6297C226.894 98.9238 227.428 99.0801 227.974 99.0801C228.52 99.0801 229.054 98.9238 229.514 98.6297C229.514 98.6297 226.941 98.1151 227.971 97.6005C227.971 98.1151 232.602 98.1151 232.602 98.1151C232.602 98.1151 231.573 97.6005 232.602 97.0859C232.602 97.0859 235.682 97.6005 235.682 95.5422C235.682 95.5422 231.573 97.0859 231.058 96.0568C231.058 96.0568 234.632 95.5422 234.146 93.9984C234.146 93.9984 233.116 95.0276 232.602 94.513C232.602 94.513 234.66 93.9984 234.66 92.4618C234.66 92.4618 232.087 94.513 230.544 94.513C230.544 94.513 232.602 92.4618 231.058 92.4618C231.058 92.4618 230.544 94.513 226.434 93.4838L225.405 92.4618H227.992C227.992 92.4618 225.426 90.4034 225.426 88.8883C225.426 88.8883 227.477 90.9466 229 90.9466C229 90.9466 226.941 90.432 227.456 89.4029C229.099 90.0111 230.871 90.1883 232.602 89.9174C232.602 89.9174 229.514 89.9174 230.544 88.8883C230.544 88.8883 232.602 89.4028 233.631 88.3737C233.631 88.3737 232.087 88.3737 232.602 87.8591C232.602 87.8591 235.682 87.3445 235.175 84.2856C234.675 84.9026 234.05 85.4056 233.339 85.7607C232.629 86.1157 231.851 86.3146 231.058 86.3439L232.087 85.8293C231.036 85.8383 229.991 85.6642 229 85.3147C229 85.3147 232.087 85.8293 232.573 84.2856C232.573 84.2856 229.486 84.2856 229.486 83.7781C229.844 83.3457 230.027 82.7951 230 82.2344C230 82.2344 228.971 83.2635 226.913 82.7489C226.913 82.7489 228.457 82.7489 228.457 81.7198C228.457 81.7198 225.891 83.2635 224.883 81.7198C224.883 81.7198 226.427 81.7198 226.427 80.6906C226.427 80.6906 224.883 81.2052 224.883 79.6614C224.883 79.6614 226.427 80.6906 226.934 79.6614C226.799 79.6644 226.664 79.6397 226.538 79.589C226.412 79.5382 226.298 79.4624 226.202 79.3661C226.107 79.2699 226.032 79.1552 225.982 79.029C225.932 78.9028 225.908 78.7678 225.912 78.6322C225.912 78.6322 228.993 79.1468 229.486 77.6031C229.486 77.6031 226.913 78.1176 226.913 77.6031C226.913 77.6031 227.942 78.1176 227.942 76.5739C227.942 76.5739 225.376 76.5739 225.376 75.5447C225.376 75.5447 228.457 75.0373 228.457 73.4935C228.457 73.4935 223.832 75.0373 223.832 73.4935C223.832 73.4935 229.486 72.4643 229.486 71.4351C229.486 71.4351 227.942 71.9497 227.942 70.9206C227.942 70.9206 231.03 70.9206 231.03 68.8622C231.03 68.8622 228.971 69.8914 228.971 69.3768C228.971 69.3768 230 69.3768 230 67.833C230 67.833 225.891 71.4066 223.832 67.3184C223.832 67.3184 228.971 67.3184 228.971 65.7818C228.971 65.7818 226.913 66.2964 226.913 65.7818C226.913 65.7818 230 64.2381 229.486 62.6943C229.486 62.6943 226.405 64.2381 225.912 63.2089C225.912 63.2089 227.449 63.2089 227.449 61.1505C227.449 61.1505 224.883 63.2089 224.368 60.6359C224.368 60.6359 226.427 60.6359 226.427 59.6068C226.427 59.6068 224.368 60.1213 224.368 59.0922C224.368 59.0922 227.942 58.5776 227.942 57.041C227.942 57.041 225.376 58.0701 224.862 57.041C224.862 57.041 226.405 56.5264 226.405 55.4972C226.405 55.4972 224.347 56.5264 223.832 55.4972C224.036 55.5011 224.239 55.4638 224.428 55.3876C224.617 55.3114 224.789 55.1978 224.933 55.0537C225.077 54.9096 225.19 54.7378 225.267 54.5488C225.343 54.3597 225.38 54.1572 225.376 53.9534C225.104 53.9593 224.834 53.91 224.582 53.8087C224.329 53.7073 224.1 53.5559 223.908 53.3636C223.715 53.1713 223.564 52.942 223.463 52.6897C223.361 52.4373 223.312 52.167 223.318 51.8951H224.419C224.419 51.8951 223.389 51.8951 223.389 46.7563" fill="#180733"/>
<path d="M223.781 139.167L223.56 113.974C223.56 113.974 220.501 117.09 219.472 117.097C218.442 117.104 219.986 117.097 219.979 116.061C219.979 116.061 219.472 116.583 216.405 116.611C216.405 116.611 217.949 116.611 216.913 115.575C216.098 116.016 215.238 116.368 214.347 116.625C214.347 116.625 216.398 115.582 214.847 114.567C214.847 114.567 214.347 116.625 212.267 114.074C212.267 114.074 213.818 114.574 213.297 113.552C213.297 113.552 210.731 114.088 209.173 112.559C209.173 112.559 211.753 113.567 210.716 112.559C209.781 112.467 208.889 112.121 208.136 111.558C208.136 111.558 209.68 112.059 209.158 111.029C209.158 111.029 208.136 111.558 208.122 110.529C208.122 110.529 209.158 111.029 208.637 110.007C208.637 110.007 206.578 110.007 206.564 108.485C206.564 108.485 207.086 109.507 207.6 108.992C207.6 108.992 205.528 107.463 205.521 106.434C205.521 106.434 209.144 109.493 209.137 108.464C209.137 108.464 208.101 107.956 209.137 106.92C209.137 106.92 212.246 109.464 212.746 108.428C212.611 108.432 212.476 108.408 212.35 108.359C212.224 108.309 212.109 108.235 212.012 108.14C211.916 108.046 211.839 107.932 211.787 107.807C211.735 107.682 211.709 107.548 211.71 107.413C211.71 107.413 214.297 109.443 214.805 108.413C214.805 108.928 213.775 108.413 213.768 107.391C213.768 107.391 218.407 108.892 218.399 107.863C218.399 107.863 217.885 107.863 217.878 106.841C217.878 106.841 222.516 107.827 221.973 105.262C220.899 105.903 219.616 106.098 218.399 105.805C218.399 105.805 219.429 105.283 217.878 104.268C217.878 104.268 216.348 106.341 215.312 104.804C215.312 104.804 217.356 103.761 216.327 103.253C216.327 103.253 213.768 104.819 212.753 103.289C212.753 103.289 215.841 103.289 214.797 102.238C214.797 102.238 211.717 102.782 211.71 101.238C211.71 101.238 213.768 101.738 213.246 100.709C213.246 100.709 210.159 100.709 210.152 99.7084C210.152 99.7084 211.696 100.209 211.688 99.1866C211.688 99.1866 210.138 98.1718 210.645 97.65C210.645 97.65 213.754 100.194 213.747 99.1652C213.747 97.6214 213.747 98.136 213.747 98.136C213.747 98.136 213.246 99.1724 215.827 100.173V99.1438C215.827 99.1438 217.906 101.702 219.958 100.652C219.958 100.652 223.045 100.652 222.516 99.0866C222.175 99.3963 221.757 99.6093 221.306 99.7036C220.855 99.7978 220.387 99.7699 219.95 99.6226C219.95 99.6226 222.002 99.0937 220.965 98.5863C220.505 98.8804 219.971 99.0367 219.425 99.0367C218.879 99.0367 218.345 98.8804 217.885 98.5863C217.885 98.5863 220.451 98.0503 219.414 97.5428C219.414 98.0574 214.79 98.1003 214.79 98.1003C214.79 98.1003 215.819 97.5786 214.79 97.0711C214.79 97.0711 211.71 97.6143 211.688 95.5559C211.688 95.5559 215.819 97.064 216.327 96.0276C216.327 96.0276 212.718 95.5488 213.218 93.9979C213.218 93.9979 214.261 95.0199 214.769 94.4982C214.769 94.4982 212.703 94.005 212.696 92.4613C212.696 92.4613 215.283 94.4982 216.827 94.4839C216.827 94.4839 214.747 92.447 216.291 92.4327C216.291 92.4327 216.827 94.4839 220.93 93.419L221.944 92.3826H219.379C219.379 92.3826 221.93 90.3029 221.916 88.7591C221.916 88.7591 219.879 90.8317 218.342 90.846C218.342 90.846 220.394 90.3171 219.872 89.2951C218.235 89.9166 216.465 90.1085 214.733 89.8526C214.733 89.8526 217.821 89.8526 216.784 88.802C216.784 88.802 214.726 89.338 213.69 88.316C213.69 88.316 215.233 88.316 214.719 87.7942C214.719 87.7942 211.624 87.3082 212.11 84.2207C212.615 84.8324 213.244 85.3289 213.957 85.6765C214.67 86.0242 215.448 86.2151 216.241 86.2362L215.212 85.7359C216.262 85.734 217.305 85.5502 218.292 85.1927C218.292 85.1927 215.212 85.7359 214.683 84.1993C214.683 84.1993 217.771 84.1993 217.763 83.6561C217.402 83.2276 217.213 82.6797 217.235 82.1195C217.235 82.1195 218.271 83.1344 220.322 82.6055C220.322 82.6055 218.785 82.6055 218.771 81.5906C218.771 81.5906 221.358 83.1058 222.345 81.5549C222.345 81.5549 220.801 81.5549 220.794 80.54C220.794 80.54 222.338 81.0403 222.323 79.5036C222.323 79.5036 220.794 80.54 220.272 79.5036C220.408 79.5057 220.542 79.4801 220.668 79.4284C220.793 79.3768 220.907 79.3002 221.002 79.2033C221.097 79.1063 221.171 78.9911 221.22 78.8646C221.269 78.7381 221.292 78.6029 221.287 78.4673C221.287 78.4673 218.207 79.0105 217.678 77.4739C217.678 77.4739 220.258 77.9599 220.251 77.4739C220.251 77.4739 219.229 78.0028 219.214 76.459C219.214 76.459 221.787 76.459 221.773 75.4084C221.773 75.4084 218.685 74.9224 218.671 73.3786C218.671 73.3786 223.317 74.8795 223.302 73.3357C223.302 73.3357 217.635 72.3566 217.628 71.3274C217.628 71.3274 219.171 71.8277 219.164 70.7985C219.164 70.7985 216.077 70.7985 216.062 68.7688C216.062 68.7688 218.128 69.7836 218.121 69.2691C218.121 69.2691 217.092 69.2691 217.077 67.7324C217.077 67.7324 221.223 71.306 223.245 67.1678C223.245 67.1678 218.106 67.2107 218.092 65.6669C218.092 65.6669 220.151 66.1672 220.143 65.6669C220.143 65.6669 217.049 64.1518 217.549 62.6008C217.549 62.6008 220.644 64.116 221.123 63.0869C221.123 63.0869 219.579 63.0869 219.564 61.0428C219.564 61.0428 222.152 63.0797 222.645 60.4996C222.645 60.4996 220.587 60.4996 220.579 59.4919C220.579 59.4919 222.638 59.985 222.631 58.9559C222.631 58.9559 219.057 58.477 219.014 56.9332C219.014 56.9332 221.594 57.941 222.095 56.9332C222.095 56.9332 220.551 56.4329 220.544 55.4038C220.544 55.4038 222.609 56.4186 223.109 55.4038C222.906 55.4106 222.703 55.3759 222.513 55.3017C222.323 55.2275 222.15 55.1155 222.005 54.9724C221.86 54.8293 221.746 54.6581 221.669 54.4693C221.592 54.2805 221.555 54.0781 221.559 53.8743C221.83 53.8783 222.1 53.8272 222.351 53.724C222.602 53.6208 222.83 53.4676 223.021 53.2739C223.211 53.0801 223.36 52.8498 223.459 52.5967C223.558 52.3436 223.604 52.0732 223.595 51.8016H222.566C222.566 51.8016 223.595 51.8016 223.545 46.6558" fill="#180733"/>
<path d="M224.403 93.3687H222.859V139.246H224.403V93.3687Z" fill="#180733"/>
<g opacity="0.8">
<path opacity="0.8" d="M204.698 132.993V107.206C204.698 107.206 208.8 111.301 210.165 111.301C211.53 111.301 209.451 111.301 209.451 109.936C209.451 109.936 210.165 110.651 214.232 110.651C214.232 110.651 212.181 110.651 213.517 109.279C213.517 109.279 216.247 110.651 216.926 110.651C216.926 110.651 214.196 109.279 216.247 107.914C216.247 107.914 216.926 110.651 219.664 107.199C219.664 107.199 217.613 107.914 218.291 106.484C218.291 106.484 221.708 107.199 223.759 105.119C223.759 105.119 220.343 106.484 221.708 105.119C222.949 104.981 224.13 104.509 225.124 103.754C225.124 103.754 223.073 104.469 223.759 103.039C223.759 103.039 225.124 103.754 225.124 102.325C225.124 102.325 223.759 103.039 224.409 101.61C224.409 101.61 227.147 101.61 227.147 99.566C227.147 99.566 226.432 100.931 225.774 100.245C225.774 100.245 228.512 98.2009 228.512 96.8287C228.512 96.8287 223.73 100.931 223.73 99.566C223.73 99.566 225.095 98.8513 223.73 97.5148C223.73 97.5148 219.635 100.931 218.949 99.566C219.129 99.5699 219.309 99.5372 219.476 99.47C219.643 99.4028 219.795 99.3024 219.923 99.1748C220.051 99.0473 220.151 98.8953 220.218 98.7279C220.285 98.5605 220.318 98.3812 220.314 98.2009C220.314 98.2009 216.898 100.931 216.219 99.566C216.219 100.245 217.584 99.566 217.584 98.2009C217.584 98.2009 211.437 100.245 211.437 98.8799C211.437 98.8799 212.116 98.8799 212.116 97.5148C212.116 97.5148 205.97 98.8799 206.656 95.4636C208.096 96.3145 209.811 96.5708 211.437 96.1783C211.437 96.1783 210.072 95.4636 212.116 94.1271C212.116 94.1271 214.168 96.8572 215.533 94.8418C215.533 94.8418 212.803 93.4767 214.168 92.7906C214.168 92.7906 217.584 94.8418 218.949 92.7906C218.949 92.7906 214.854 92.7906 216.219 91.4255C216.219 91.4255 220.314 92.1402 220.314 90.0604C220.314 90.0604 217.584 90.7751 218.263 89.3457C218.263 89.3457 222.365 89.3457 222.365 87.9806C222.365 87.9806 220.314 88.6953 220.314 87.3016C220.314 87.3016 222.365 85.9365 221.679 85.2504C221.679 85.2504 217.584 88.6667 217.584 87.3016V85.9365C217.584 85.9365 218.263 87.3016 214.854 88.6667V87.4088C214.854 87.4088 212.116 90.8251 209.386 89.4529C209.386 89.4529 205.291 89.4529 205.97 87.4088C206.427 87.816 206.985 88.0936 207.586 88.213C208.186 88.3324 208.808 88.2892 209.386 88.0878C209.386 88.0878 206.656 87.4088 208.021 86.7227C208.635 87.1077 209.344 87.312 210.069 87.312C210.793 87.312 211.503 87.1077 212.116 86.7227C212.116 86.7227 208.707 86.008 210.072 85.3576C210.072 86.0723 216.219 86.0723 216.219 86.0723C216.219 86.0723 214.854 85.3576 216.219 84.7073C216.219 84.7073 220.314 85.4219 220.314 82.656C220.314 82.656 214.854 84.7073 214.168 83.335C214.168 83.335 218.949 82.656 218.263 80.6048C218.263 80.6048 216.898 81.9699 216.219 81.3195C216.219 81.3195 218.949 80.6048 218.949 78.5894C218.949 78.5894 215.533 81.3195 213.489 81.3195C213.489 81.3195 216.219 78.5894 214.203 78.5894C214.203 78.5894 213.489 81.3195 208.057 79.9545L206.692 78.5894H210.108C210.108 78.5894 206.692 75.852 206.692 73.808C206.692 73.808 209.422 76.5382 211.473 76.5382C211.473 76.5382 208.743 75.8235 209.422 74.487C211.601 75.3034 213.953 75.5495 216.255 75.2017C216.255 75.2017 212.152 75.2017 213.524 73.8366C213.524 73.8366 216.255 74.5155 217.62 73.1219C217.62 73.1219 215.568 73.1219 216.255 72.4429C216.255 72.4429 220.35 71.7282 219.671 67.6615C219.007 68.4805 218.176 69.1479 217.233 69.6189C216.29 70.0898 215.257 70.3533 214.203 70.3917L215.568 69.677C215.568 69.677 212.838 69.677 211.473 68.998C211.473 68.998 215.568 69.677 216.255 67.6329C216.255 67.6329 212.152 67.6329 212.152 66.9182C212.639 66.3513 212.895 65.6212 212.867 64.8742C212.867 64.8742 211.502 66.2392 208.772 65.5531C208.772 65.5531 210.816 65.5531 210.816 64.188C210.816 64.188 207.407 66.2392 206.034 64.188C206.034 64.188 208.085 64.188 208.085 62.8229C208.085 62.8229 206.034 63.5019 206.034 61.4579C206.034 61.4579 208.085 62.823 208.772 61.4579C208.591 61.4618 208.412 61.4291 208.245 61.3619C208.077 61.2947 207.925 61.1943 207.798 61.0667C207.67 60.9392 207.57 60.7871 207.502 60.6198C207.435 60.4524 207.403 60.2731 207.407 60.0928C207.407 60.0928 211.502 60.7717 212.181 58.7277C212.181 58.7277 208.772 59.4424 208.772 58.7277C208.772 58.7277 210.137 59.4424 210.137 57.3555C210.137 57.3555 206.72 57.3555 206.72 55.9904C206.72 55.9904 210.816 55.2757 210.816 53.2602C210.816 53.2602 204.669 55.3114 204.669 53.2602C204.669 53.2602 212.181 51.8951 212.181 50.53C212.181 50.53 210.137 51.2447 210.137 49.8153C210.137 49.8153 214.232 49.8153 214.232 47.0851C214.232 47.0851 211.502 48.4502 211.502 47.7998C211.502 47.7998 212.867 47.7998 212.867 45.7486C212.867 45.7486 207.407 50.53 204.669 45.0339C204.669 45.0339 211.502 45.0339 211.502 42.9827C211.502 42.9827 208.772 43.6974 208.772 42.9827C208.772 42.9827 212.867 40.9315 212.181 38.8875C212.181 38.8875 208.085 40.9315 207.407 39.6022C207.407 39.6022 209.451 39.6022 209.451 36.872C209.451 36.872 206.034 39.6022 205.355 36.1573C205.355 36.1573 208.085 36.1573 208.085 34.7922C208.085 34.7922 205.355 35.5069 205.355 34.0775C205.355 34.0775 210.137 33.3628 210.137 31.3473C210.137 31.3473 206.72 32.7124 206.034 31.3473C206.034 31.3473 208.085 30.6326 208.085 29.2961C208.085 29.2961 205.355 30.6612 204.669 29.2961C204.94 29.3019 205.21 29.2529 205.461 29.1519C205.713 29.0509 205.941 28.9 206.133 28.7083C206.324 28.5167 206.475 28.2882 206.576 28.0367C206.677 27.7852 206.726 27.5159 206.72 27.2449C206.72 27.2449 203.99 27.2449 203.99 24.5147H205.355C205.355 24.5147 203.99 24.5147 203.99 17.6821" fill="#180733"/>
<path opacity="0.8" d="M204.562 132.885L204.269 107.106C204.269 107.106 200.202 111.244 198.837 111.251C197.472 111.258 199.552 111.251 199.509 109.879C199.509 109.879 198.83 110.594 194.735 110.594C194.735 110.594 196.786 110.594 195.407 109.221C195.407 109.221 192.684 110.608 192.005 110.615C192.005 110.615 194.721 109.229 192.662 107.878C192.662 107.878 192.005 110.615 189.239 107.227C189.239 107.227 191.297 107.892 190.604 106.513C190.604 106.513 187.195 107.227 185.129 105.19C185.129 105.19 188.553 106.527 187.173 105.19C185.933 105.06 184.75 104.599 183.75 103.854C183.75 103.854 185.801 104.519 185.108 103.139C185.108 103.139 183.75 103.854 183.736 102.467C183.736 102.467 185.108 103.139 184.415 101.753C184.415 101.753 181.684 101.753 181.663 99.7301C181.663 99.7301 182.378 101.088 183.035 100.402C183.035 100.402 180.284 98.3793 180.276 97.0142C180.276 97.0142 185.093 101.067 185.079 99.7015C185.079 99.7015 183.707 99.0297 185.079 97.6503C185.079 97.6503 189.21 101.031 189.882 99.6586C189.702 99.6644 189.522 99.6337 189.354 99.5682C189.186 99.5027 189.033 99.4039 188.904 99.2777C188.775 99.1515 188.673 99.0005 188.604 98.8338C188.535 98.6671 188.501 98.4882 188.503 98.3078C188.503 98.3078 191.94 101.009 192.612 99.6372C192.612 100.316 191.247 99.6372 191.233 98.2792C191.233 98.2792 197.401 100.273 197.386 98.9082C197.386 98.9082 196.672 98.9082 196.672 97.5503C196.672 97.5503 202.825 98.8582 202.111 95.449C200.674 96.3039 198.96 96.5605 197.336 96.1637C197.336 96.1637 198.701 95.449 196.622 94.1197C196.622 94.1197 194.599 96.8713 193.213 94.8344C193.213 94.8344 195.936 93.405 194.563 92.776C194.563 92.776 191.168 94.8487 189.782 92.8117C189.782 92.8117 193.884 92.776 192.505 91.4252C192.505 91.4252 188.41 92.1399 188.395 90.0959C188.395 90.0959 191.133 90.7534 190.439 89.3812C190.439 89.3812 186.337 89.4169 186.33 88.0518C186.33 88.0518 188.381 88.7165 188.367 87.3371C188.367 87.3371 186.308 85.9863 186.987 85.3002C186.987 85.3002 191.111 88.6808 191.104 87.3085V85.9434C191.104 85.9434 190.432 87.3157 193.856 88.6522V87.2871C193.856 87.2871 196.615 90.6748 199.338 89.2882C199.338 89.2882 203.433 89.2525 202.732 87.2085C202.279 87.6204 201.724 87.9039 201.125 88.0296C200.526 88.1552 199.904 88.1185 199.323 87.9232C199.323 87.9232 202.046 87.2085 200.674 86.5438C200.061 86.9296 199.351 87.1343 198.626 87.1343C197.902 87.1343 197.192 86.9296 196.579 86.5438C196.579 86.5438 199.988 85.8291 198.616 85.1572C198.616 85.872 192.476 85.872 192.476 85.872C192.476 85.872 193.834 85.1573 192.476 84.5069C192.476 84.5069 188.388 85.2216 188.36 82.4914C188.36 82.4914 193.841 84.4926 194.513 83.1203C194.513 83.1203 189.725 82.4771 190.389 80.4259C190.389 80.4259 191.769 81.7767 192.448 81.0906C192.448 81.0906 189.71 80.433 189.689 78.3818C189.689 78.3818 193.134 81.0834 195.178 81.062C195.178 81.062 192.426 78.3604 194.463 78.339C194.463 78.339 195.178 81.062 200.624 79.654L201.975 78.2746H198.566C198.566 78.2746 201.953 75.5159 201.932 73.4647C201.932 73.4647 199.23 76.2163 197.179 76.2377C197.179 76.2377 199.902 75.523 199.209 74.1722C197.032 74.9878 194.682 75.2338 192.383 74.8869C192.383 74.8869 196.486 74.8869 195.107 73.4933C195.107 73.4933 192.383 74.2079 191.004 72.85C191.004 72.85 193.048 72.85 192.362 72.1353C192.362 72.1353 188.26 71.4849 188.903 67.3825C189.572 68.1964 190.409 68.857 191.356 69.3194C192.303 69.7818 193.338 70.0353 194.392 70.0627L193.02 69.398C193.02 69.398 195.75 69.398 197.115 68.6833C197.115 68.6833 193.02 69.398 192.319 67.3611C192.319 67.3611 196.414 67.3253 196.407 66.6464C195.924 66.077 195.67 65.3486 195.693 64.6023C195.693 64.6023 197.072 65.9603 199.802 65.2527C199.802 65.2527 197.751 65.2527 197.737 63.9019C197.737 63.9019 201.167 65.9245 202.518 63.859C202.518 63.859 200.467 63.859 200.46 62.5154C200.46 62.5154 202.511 63.18 202.497 61.1288C202.497 61.1288 200.46 62.5154 199.759 61.1288C199.94 61.1308 200.119 61.0963 200.286 61.0274C200.453 60.9586 200.605 60.8567 200.732 60.7279C200.858 60.5991 200.958 60.4461 201.024 60.278C201.09 60.1099 201.122 59.9301 201.117 59.7495C201.117 59.7495 197.022 60.4642 196.322 58.4272C196.322 58.4272 199.745 59.0776 199.738 58.3915C199.738 58.3915 198.38 59.1062 198.358 57.0407C198.358 57.0407 201.775 57.0407 201.76 55.6113C201.76 55.6113 197.658 54.9609 197.644 52.9169C197.644 52.9169 203.804 54.9109 203.79 52.8597C203.79 52.8597 196.264 51.5589 196.25 50.1938C196.25 50.1938 198.308 50.8585 198.294 49.4791C198.294 49.4791 194.199 49.4791 194.17 46.7847C194.17 46.7847 196.915 48.1283 196.908 47.4422C196.908 47.4422 195.542 47.4422 195.528 45.4053C195.528 45.4053 201.031 50.1367 203.712 44.6477C203.712 44.6477 196.886 44.712 196.865 42.6608C196.865 42.6608 199.602 43.3184 199.602 42.6608C199.602 42.6608 195.485 40.6454 196.15 38.5942C196.15 38.5942 200.267 40.6025 200.931 39.2302C200.931 39.2302 198.887 39.2302 198.859 36.5215C198.859 36.5215 202.296 39.2231 202.954 35.8068C202.954 35.8068 200.224 35.8068 200.21 34.4632C200.21 34.4632 202.947 35.1207 202.933 33.7485C202.933 33.7485 198.151 33.1124 198.13 31.0612C198.13 31.0612 201.553 32.3977 202.225 31.0254C202.225 31.0254 200.174 30.3607 200.159 28.9957C200.159 28.9957 202.904 30.3393 203.576 28.9957C203.079 29.0046 202.597 28.8291 202.222 28.503C201.847 28.177 201.606 27.7235 201.546 27.2303C201.546 27.2303 204.276 27.2303 204.248 24.4716H202.883C202.883 24.4716 204.248 24.4716 204.19 17.6318" fill="#180733"/>
<path opacity="0.8" d="M205.384 84.4775H203.333V133.535H205.384V84.4775Z" fill="#180733"/>
</g>
<path d="M45.025 139.247V114.054C45.025 114.054 48.1125 117.141 49.1417 117.141C50.1709 117.141 48.6271 117.141 48.6271 116.112C48.6271 116.112 49.1417 116.627 52.2006 116.627C52.2006 116.627 50.664 116.627 51.6932 115.597C52.5098 116.03 53.3699 116.375 54.259 116.627C54.259 116.627 52.2006 115.597 53.7444 114.568C53.7444 114.568 54.259 116.627 56.3174 114.054C56.3174 114.054 54.7736 114.568 55.2882 113.539C55.2882 113.539 57.8611 114.054 59.4049 112.51C59.4049 112.51 56.8319 113.539 57.8611 112.51C58.7961 112.406 59.6854 112.05 60.4341 111.481C60.4341 111.481 58.8903 111.995 59.4049 110.966C59.4049 110.966 60.4341 111.481 60.4341 110.451C60.4341 110.451 59.4049 110.966 59.9195 109.944C59.9195 109.944 61.9707 109.944 61.9707 108.4C61.9707 108.4 61.4561 109.429 60.9415 108.915C60.9415 108.915 62.9999 107.371 62.9999 106.342C62.9999 106.342 59.4263 109.429 59.4263 108.4C59.4263 108.4 60.4555 107.886 59.4263 106.856C59.4263 106.856 56.3388 109.429 55.8528 108.4C55.9888 108.403 56.1239 108.379 56.2501 108.328C56.3763 108.277 56.4909 108.201 56.587 108.105C56.6832 108.009 56.7589 107.895 56.8096 107.768C56.8603 107.642 56.8849 107.507 56.882 107.371C56.882 107.371 54.309 109.429 53.7944 108.4C53.7944 108.915 54.8236 108.4 54.8236 107.371C54.8236 107.371 50.1995 108.915 50.1995 107.886C50.1995 107.886 50.7141 107.886 50.7141 106.856C50.7141 106.856 46.0828 107.886 46.5974 105.313C47.6768 105.941 48.958 106.126 50.1709 105.827C50.1709 105.827 49.1417 105.313 50.6855 104.284C50.6855 104.284 52.2221 106.342 53.2513 104.798C53.2513 104.798 51.2001 103.769 52.2221 103.254C52.2221 103.254 54.795 104.798 55.7956 103.254C55.7956 103.254 52.7081 103.254 53.7373 102.225C53.7373 102.225 56.8248 102.74 56.8248 101.203C56.8248 101.203 54.7664 101.711 55.281 100.689C55.281 100.689 58.3686 100.689 58.3686 99.6594C58.3686 99.6594 56.8248 100.174 56.8248 99.1448C56.8248 99.1448 58.3686 98.1156 57.854 97.6011C57.854 97.6011 54.7664 100.174 54.7664 99.1448V98.1156C54.7664 98.1156 55.281 99.1448 52.7081 100.174V99.1448C52.7081 99.1448 50.6569 101.711 48.5985 100.689C48.5985 100.689 45.511 100.689 46.0256 99.1448C46.3696 99.4522 46.7896 99.662 47.242 99.7525C47.6944 99.843 48.1627 99.8108 48.5985 99.6594C48.5985 99.6594 46.5402 99.1448 47.5694 98.6302C48.0318 98.9208 48.5669 99.075 49.1131 99.075C49.6593 99.075 50.1944 98.9208 50.6569 98.6302C50.6569 98.6302 48.0839 98.1156 49.1131 97.6011C49.1131 98.1156 53.7373 98.1156 53.7373 98.1156C53.7373 98.1156 52.7081 97.6011 53.7373 97.0865C53.7373 97.0865 56.8248 97.6011 56.8248 95.5427C56.8248 95.5427 52.7081 97.0865 52.1935 96.0573C52.1935 96.0573 55.767 95.5427 55.281 93.9989C55.281 93.9989 54.2519 95.0281 53.7373 94.5135C53.7373 94.5135 55.7956 93.9989 55.7956 92.4623C55.7956 92.4623 53.2227 94.5135 51.6861 94.5135C51.6861 94.5135 53.7373 92.4623 52.1935 92.4623C52.1935 92.4623 51.6861 94.5135 47.5694 93.4844L46.5402 92.4623H49.1131C49.1131 92.4623 46.5402 90.404 46.5402 88.8888C46.5402 88.8888 48.5985 90.9471 50.1137 90.9471C50.1137 90.9471 48.0554 90.4326 48.5699 89.4034C50.2108 90.0111 51.9799 90.1882 53.7087 89.918C53.7087 89.918 50.6283 89.918 51.6575 88.8888C51.6575 88.8888 53.7087 89.4034 54.7379 88.3742C54.7379 88.3742 53.1941 88.3742 53.7087 87.8596C53.7087 87.8596 56.7962 87.345 56.2816 84.2861C55.7775 84.8918 55.1505 85.3835 54.442 85.7285C53.7335 86.0735 52.9597 86.264 52.1721 86.2873L53.2012 85.7727C52.1523 85.7816 51.1099 85.6074 50.1209 85.2581C50.1209 85.2581 53.2012 85.7727 53.6944 84.2289C53.6944 84.2289 50.614 84.2289 50.614 83.7215C50.972 83.289 51.1555 82.7385 51.1286 82.1777C51.1286 82.1777 50.0994 83.2069 48.0411 82.6923C48.0411 82.6923 49.5848 82.6923 49.5848 81.6631C49.5848 81.6631 47.0119 83.2069 46.0113 81.6631C46.0113 81.6631 47.5551 81.6631 47.5551 80.6339C47.5551 80.6339 46.0113 81.1485 46.0113 79.6048C46.0113 79.6048 47.5551 80.6339 48.0696 79.6048C47.9337 79.6077 47.7986 79.5831 47.6724 79.5324C47.5462 79.4817 47.4316 79.406 47.3354 79.3098C47.2392 79.2137 47.1635 79.0991 47.1129 78.9729C47.0622 78.8467 47.0375 78.7115 47.0405 78.5756C47.0405 78.5756 50.128 79.0902 50.614 77.5464C50.614 77.5464 48.0411 78.061 48.0411 77.5464C48.0411 77.5464 49.0702 78.061 49.0702 76.5172C49.0702 76.5172 46.4973 76.5172 46.4973 75.4881C46.4973 75.4881 49.5848 74.9806 49.5848 73.4369C49.5848 73.4369 44.9535 74.9806 44.9535 73.4369C44.9535 73.4369 50.614 72.4077 50.614 71.3785C50.614 71.3785 49.0702 71.8931 49.0702 70.8639C49.0702 70.8639 52.1506 70.8639 52.1506 68.8056C52.1506 68.8056 50.0994 69.8347 50.0994 69.3202C50.0994 69.3202 51.1286 69.3202 51.1286 67.7764C51.1286 67.7764 47.0119 71.3499 44.9535 67.2618C44.9535 67.2618 50.0994 67.2618 50.0994 65.7252C50.0994 65.7252 48.0411 66.2398 48.0411 65.7252C48.0411 65.7252 51.1286 64.1814 50.614 62.6376C50.614 62.6376 47.5265 64.1814 47.0405 63.1522C47.0405 63.1522 48.5842 63.1522 48.5842 61.0939C48.5842 61.0939 46.0113 63.1522 45.4967 60.5793C45.4967 60.5793 47.5551 60.5793 47.5551 59.5501C47.5551 59.5501 45.4967 60.0647 45.4967 59.0355C45.4967 59.0355 49.0702 58.5209 49.0702 56.9843C49.0702 56.9843 46.4973 58.0135 45.9827 56.9843C45.9827 56.9843 47.5265 56.4697 47.5265 55.4406C47.5265 55.4406 45.4681 56.4697 44.9535 55.4406C45.1573 55.4445 45.3598 55.4072 45.5489 55.331C45.7379 55.2547 45.9097 55.1412 46.0538 54.997C46.1979 54.8529 46.3115 54.6812 46.3877 54.4921C46.4639 54.3031 46.5012 54.1006 46.4973 53.8968C46.2254 53.9026 45.9551 53.8534 45.7027 53.752C45.4504 53.6507 45.2211 53.4993 45.0288 53.3069C44.8365 53.1146 44.6851 52.8854 44.5837 52.633C44.4823 52.3806 44.4331 52.1104 44.4389 51.8384H45.4681C45.4681 51.8384 44.4389 51.8384 44.4389 46.6997" fill="#180733"/>
<path d="M44.8919 139.168L44.6703 113.974C44.6703 113.974 41.6114 117.09 40.5822 117.098C39.5531 117.105 41.0968 117.098 41.0897 116.061C41.0897 116.061 40.5751 116.583 37.5161 116.612C37.5161 116.612 39.0528 116.612 38.0164 115.575C37.2038 116.016 36.3459 116.369 35.4578 116.626C35.4578 116.626 37.5018 115.582 35.9509 114.568C35.9509 114.568 35.4578 116.626 33.378 114.074C33.378 114.074 34.9218 114.575 34.4 113.553C34.4 113.553 31.8342 114.089 30.2762 112.559C30.2762 112.559 32.8563 113.567 31.8199 112.559C30.8846 112.468 29.9922 112.122 29.2398 111.559C29.2398 111.559 30.7908 112.059 30.2619 111.03C30.2619 111.03 29.2398 111.559 29.2327 110.529C29.2327 110.529 30.2619 111.03 29.7401 110.008C29.7401 110.008 27.6818 110.008 27.6746 108.485C27.6746 108.485 28.1964 109.507 28.7038 108.993C28.7038 108.993 26.6312 107.463 26.624 106.434C26.624 106.434 30.2547 109.493 30.2404 108.464C30.2404 108.464 29.2113 107.956 30.2404 106.92C30.2404 106.92 33.3494 109.465 33.8568 108.428C33.7215 108.432 33.5868 108.409 33.4607 108.359C33.3347 108.31 33.2199 108.236 33.1231 108.141C33.0264 108.046 32.9498 107.933 32.8978 107.808C32.8458 107.683 32.8195 107.549 32.8205 107.413C32.8205 107.413 35.4078 109.443 35.9152 108.414C35.9152 108.928 34.886 108.414 34.8717 107.392C34.8717 107.392 39.5173 108.893 39.503 107.864C39.503 107.864 38.9956 107.864 38.9813 106.842C38.9813 106.842 43.6197 107.828 43.0837 105.262C42.0087 105.902 40.7266 106.096 39.5102 105.805C39.5102 105.805 40.5322 105.283 38.9813 104.269C38.9813 104.269 37.459 106.341 36.4155 104.805C36.4155 104.805 38.4596 103.761 37.4304 103.254C37.4304 103.254 34.8717 104.819 33.8568 103.289C33.8568 103.289 36.9444 103.289 35.9081 102.239C35.9081 102.239 32.8277 102.782 32.8134 101.238C32.8134 101.238 34.8717 101.739 34.35 100.709C34.35 100.709 31.2696 100.709 31.2553 99.7088C31.2553 99.7088 32.8062 100.209 32.7919 99.187C32.7919 99.187 31.241 98.1722 31.7556 97.6504C31.7556 97.6504 34.8574 100.195 34.8503 99.1656C34.8503 97.6218 34.8503 98.1364 34.8503 98.1364C34.8503 98.1364 34.3428 99.1728 36.9229 100.173V99.1299C36.9229 99.1299 39.0027 101.689 41.0468 100.638C41.0468 100.638 44.1343 100.638 43.6054 99.0727C43.2646 99.3831 42.8469 99.5965 42.3957 99.6908C41.9444 99.7851 41.4762 99.7567 41.0396 99.6087C41.0396 99.6087 43.0908 99.0798 42.0617 98.5724C41.5989 98.8622 41.0639 99.0158 40.5179 99.0158C39.9719 99.0158 39.4369 98.8622 38.9741 98.5724C38.9741 98.5724 41.5399 98.0364 40.5108 97.5289C40.5108 98.0435 35.8866 98.0864 35.8866 98.0864C35.8866 98.0864 36.9086 97.5647 35.8866 97.0572C35.8866 97.0572 32.8134 97.6004 32.7919 95.542C32.7919 95.542 36.9158 97.0501 37.4232 96.0137C37.4232 96.0137 33.8497 95.5349 34.3214 93.984C34.3214 93.984 35.3577 95.006 35.8652 94.4843C35.8652 94.4843 33.8068 93.9911 33.7925 92.4474C33.7925 92.4474 36.3798 94.4843 37.9235 94.47C37.9235 94.47 35.8509 92.4331 37.3946 92.4188C37.3946 92.4188 37.9235 94.47 42.0259 93.4051L43.048 92.3688H40.475C40.475 92.3688 42.8836 90.339 42.8836 88.7952C42.8836 88.7952 40.8467 90.8679 39.3101 90.8822C39.3101 90.8822 41.3684 90.3533 40.8395 89.3313C39.2049 89.9531 37.438 90.145 35.7079 89.8887C35.7079 89.8887 38.7883 89.8887 37.752 88.8381C37.752 88.8381 35.7008 89.3741 34.6645 88.3521C34.6645 88.3521 36.2082 88.3521 35.6865 87.8304C35.6865 87.8304 32.599 87.3444 33.085 84.2568C33.5885 84.8696 34.2181 85.3668 34.9309 85.7146C35.6437 86.0624 36.4231 86.2526 37.216 86.2723L36.1796 85.772C37.2301 85.7701 38.2723 85.5864 39.26 85.2288C39.26 85.2288 36.1796 85.772 35.6865 84.2354C35.6865 84.2354 38.7669 84.2354 38.7669 83.6922C38.4054 83.2637 38.2168 82.7158 38.238 82.1556C38.238 82.1556 39.2743 83.1705 41.3255 82.6416C41.3255 82.6416 39.7818 82.6416 39.7746 81.6267C39.7746 81.6267 42.3547 83.1419 43.3481 81.591C43.3481 81.591 41.8115 81.591 41.7972 80.5761C41.7972 80.5761 43.3481 81.0764 43.3338 79.5398C43.3338 79.5398 41.7972 80.5761 41.2755 79.5398C41.4115 79.5418 41.5464 79.5162 41.6723 79.4646C41.7981 79.4131 41.9122 79.3366 42.0077 79.2398C42.1032 79.1429 42.1781 79.0278 42.2279 78.9012C42.2777 78.7747 42.3014 78.6394 42.2975 78.5035C42.2975 78.5035 39.2171 79.0466 38.724 77.51C38.724 77.51 41.2969 77.996 41.2969 77.51C41.2969 77.51 40.2678 78.0389 40.2535 76.4951C40.2535 76.4951 42.8264 76.4951 42.8193 75.4445C42.8193 75.4445 39.7317 74.9585 39.7174 73.4147C39.7174 73.4147 44.3559 74.9156 44.3416 73.3719C44.3416 73.3719 38.674 72.3927 38.6668 71.3635C38.6668 71.3635 40.2177 71.8638 40.2034 70.8347C40.2034 70.8347 37.1231 70.8347 37.1016 68.8049C37.1016 68.8049 39.1671 69.8198 39.1671 69.3052C39.1671 69.3052 38.1379 69.3052 38.1236 67.7686C38.1236 67.7686 42.2689 71.3421 44.2844 67.204C44.2844 67.204 39.1457 67.2468 39.1314 65.7031C39.1314 65.7031 41.1897 66.2034 41.1897 65.7031C41.1897 65.7031 38.0879 64.1879 38.5882 62.637C38.5882 62.637 41.69 64.1522 42.1975 63.123C42.1975 63.123 40.6537 63.123 40.6323 61.0789C40.6323 61.0789 43.2195 63.1158 43.7126 60.5357C43.7126 60.5357 41.6543 60.5357 41.6471 59.528C41.6471 59.528 43.7126 60.0212 43.6983 58.992C43.6983 58.992 40.1248 58.5131 40.0819 56.9694C40.0819 56.9694 42.662 57.9771 43.1695 56.9694C43.1695 56.9694 41.6186 56.4691 41.6114 55.4399C41.6114 55.4399 43.6769 56.4548 44.1843 55.4399C43.9806 55.4457 43.7777 55.4103 43.588 55.3358C43.3982 55.2614 43.2254 55.1494 43.08 55.0066C42.9345 54.8638 42.8193 54.6931 42.7414 54.5048C42.6634 54.3164 42.6243 54.1143 42.6263 53.9104C42.8979 53.9144 43.1675 53.8633 43.4188 53.7601C43.6701 53.6569 43.8979 53.5038 44.0883 53.31C44.2787 53.1163 44.4279 52.8859 44.5267 52.6328C44.6255 52.3798 44.6719 52.1093 44.6632 51.8378H43.5983C43.5983 51.8378 44.6275 51.8378 44.5846 46.6919" fill="#180733"/>
<path d="M45.5057 93.3687H43.9619V139.246H45.5057V93.3687Z" fill="#180733"/>
<g opacity="0.8">
<path opacity="0.8" d="M25.8056 140.676V107.206C25.8056 107.206 29.9009 111.302 31.266 111.302C32.6311 111.302 30.5513 111.302 30.5513 109.936C30.5513 109.936 31.266 110.651 35.3326 110.651C35.3326 110.651 33.2814 110.651 34.6179 109.279C34.6179 109.279 37.3481 110.651 38.0342 110.651C38.0342 110.651 35.3041 109.279 37.3195 107.914C37.3195 107.914 38.0342 110.651 40.7358 107.199C40.7358 107.199 38.6846 107.914 39.3707 106.484C39.3707 106.484 42.787 107.199 44.8311 105.119C44.8311 105.119 41.4219 106.484 42.787 105.119C44.0262 104.982 45.2046 104.51 46.1962 103.754C46.1962 103.754 44.1521 104.469 44.8311 103.04C44.8311 103.04 46.1962 103.754 46.1962 102.325C46.1962 102.325 44.8311 103.04 45.5172 101.61C45.5172 101.61 48.2474 101.61 48.2474 99.5661C48.2474 99.5661 47.5327 100.931 46.8823 100.245C46.8823 100.245 49.6125 98.201 49.6125 96.8288C49.6125 96.8288 44.8311 100.931 44.8311 99.5661C44.8311 99.5661 46.1962 98.8514 44.8311 97.5149C44.8311 97.5149 40.7358 100.931 40.0497 99.5661C40.2304 99.57 40.4099 99.5374 40.5777 99.4702C40.7455 99.4031 40.898 99.3028 41.0261 99.1754C41.1542 99.0479 41.2553 98.8959 41.3233 98.7285C41.3913 98.5611 41.4249 98.3817 41.4219 98.201C41.4219 98.201 38.0056 100.931 37.3195 99.5661C37.3195 100.245 38.6846 99.5661 38.6846 98.201C38.6846 98.201 32.5381 100.245 32.5381 98.88C32.5381 98.88 33.2528 98.88 33.2528 97.5149C33.2528 97.5149 27.1064 98.88 27.7925 95.4637C29.2292 96.3171 30.9431 96.5737 32.5667 96.1784C32.5667 96.1784 31.2016 95.4637 33.2814 94.1272C33.2814 94.1272 35.3326 96.8574 36.6977 94.8419C36.6977 94.8419 33.9604 93.4768 35.3326 92.7907C35.3326 92.7907 38.7418 94.8419 40.1069 92.7907C40.1069 92.7907 36.0116 92.7907 37.3767 91.4256C37.3767 91.4256 41.4791 92.1403 41.4791 90.0605C41.4791 90.0605 38.7418 90.7752 39.4279 89.3458C39.4279 89.3458 43.5232 89.3458 43.5232 87.9807C43.5232 87.9807 41.4791 88.6954 41.4791 87.3018C41.4791 87.3018 43.5232 85.9367 42.8442 85.2506C42.8442 85.2506 38.7418 88.6668 38.7418 87.3018V85.9367C38.7418 85.9367 39.4565 87.3018 36.0116 88.6668V87.409C36.0116 87.409 33.2814 90.8253 30.5513 89.453C30.5513 89.453 26.4488 89.453 27.135 87.409C27.5919 87.8168 28.1498 88.0949 28.7505 88.2143C29.3513 88.3337 29.9731 88.29 30.5513 88.0879C30.5513 88.0879 27.8211 87.409 29.1862 86.7228C29.7997 87.1079 30.5094 87.3121 31.2338 87.3121C31.9582 87.3121 32.6679 87.1079 33.2814 86.7228C33.2814 86.7228 29.8651 86.0081 31.2302 85.3578C31.2302 86.0725 37.3767 86.0725 37.3767 86.0725C37.3767 86.0725 36.0116 85.3578 37.3767 84.7074C37.3767 84.7074 41.4791 85.4221 41.4791 82.6562C41.4791 82.6562 36.0116 84.7074 35.3326 83.3351C35.3326 83.3351 40.1069 82.6562 39.4279 80.605C39.4279 80.605 38.0628 81.9701 37.3767 81.3197C37.3767 81.3197 40.1069 80.605 40.1069 78.5895C40.1069 78.5895 36.6977 81.3197 34.6465 81.3197C34.6465 81.3197 37.3767 78.5895 35.3612 78.5895C35.3612 78.5895 34.6465 81.3197 29.2148 79.9546L27.8711 78.5323H31.2803C31.2803 78.5323 27.8711 75.795 27.8711 73.7509C27.8711 73.7509 30.6013 76.4811 32.6453 76.4811C32.6453 76.4811 29.9152 75.7664 30.6013 74.4299C32.7782 75.2467 35.1279 75.4928 37.4267 75.1446C37.4267 75.1446 33.3315 75.1446 34.6966 73.7795C34.6966 73.7795 37.4267 74.4585 38.7918 73.0648C38.7918 73.0648 36.7478 73.0648 37.4267 72.3858C37.4267 72.3858 41.5291 71.6711 40.843 67.6045C40.1802 68.4226 39.35 69.0895 38.4083 69.5604C37.4665 70.0313 36.4349 70.2953 35.3827 70.3346L36.7478 69.6199C36.7478 69.6199 34.0104 69.6199 32.6453 68.941C32.6453 68.941 36.7478 69.6199 37.4267 67.5759C37.4267 67.5759 33.3315 67.5759 33.3315 66.8612C33.8176 66.2935 34.0726 65.564 34.0462 64.8171C34.0462 64.8171 32.6811 66.1822 29.9509 65.4961C29.9509 65.4961 32.0021 65.4961 32.0021 64.131C32.0021 64.131 28.5858 66.1822 27.2207 64.131C27.2207 64.131 29.2719 64.131 29.2719 62.7659C29.2719 62.7659 27.2207 63.4449 27.2207 61.4008C27.2207 61.4008 29.2719 62.7659 29.9509 61.4008C29.7706 61.4047 29.5913 61.3721 29.4239 61.3048C29.2565 61.2376 29.1045 61.1372 28.977 61.0097C28.8494 60.8821 28.749 60.7301 28.6818 60.5627C28.6146 60.3953 28.5819 60.2161 28.5858 60.0357C28.5858 60.0357 32.6811 60.7147 33.3672 58.6706C33.3672 58.6706 29.9509 59.3853 29.9509 58.6706C29.9509 58.6706 31.316 59.3853 31.316 57.2984C31.316 57.2984 27.9068 57.2984 27.9068 55.9333C27.9068 55.9333 32.0021 55.2186 32.0021 53.2031C32.0021 53.2031 25.8556 55.2543 25.8556 53.2031C25.8556 53.2031 33.3672 51.838 33.3672 50.473C33.3672 50.473 31.316 51.1877 31.316 49.7583C31.316 49.7583 35.4184 49.7583 35.4184 47.0281C35.4184 47.0281 32.6811 48.3932 32.6811 47.7428C32.6811 47.7428 34.0462 47.7428 34.0462 45.6916C34.0462 45.6916 28.5858 50.473 25.8556 44.9769C25.8556 44.9769 32.6811 44.9769 32.6811 42.9257C32.6811 42.9257 29.9509 43.6404 29.9509 42.9257C29.9509 42.9257 34.0462 40.8745 33.3672 38.8304C33.3672 38.8304 29.2719 40.8745 28.5858 39.5451C28.5858 39.5451 30.637 39.5451 30.637 36.8149C30.637 36.8149 27.2207 39.5451 26.5346 36.1002C26.5346 36.1002 29.2719 36.1002 29.2719 34.7351C29.2719 34.7351 26.5346 35.4498 26.5346 34.0204C26.5346 34.0204 31.316 33.3057 31.316 31.2903C31.316 31.2903 27.9068 32.6553 27.2207 31.2903C27.2207 31.2903 29.2719 30.5756 29.2719 29.2391C29.2719 29.2391 26.5346 30.6041 25.8556 29.2391C26.3762 29.2413 26.8772 29.0414 27.2532 28.6814C27.6292 28.3214 27.8507 27.8295 27.8711 27.3093C27.8711 27.3093 25.1338 27.3093 25.1338 24.5792H26.4989C26.4989 24.5792 25.1338 24.5792 25.1338 17.7466" fill="#180733"/>
<path opacity="0.8" d="M25.6718 140.568L25.3716 107.105C25.3716 107.105 21.3121 111.244 19.947 111.251C18.5819 111.258 20.6259 111.251 20.6188 109.878C20.6188 109.878 19.9041 110.593 15.8446 110.593C15.8446 110.593 17.8886 110.593 16.5092 109.221C16.5092 109.221 13.7933 110.607 13.1072 110.615C13.1072 110.615 15.8303 109.228 13.7719 107.877C13.7719 107.877 13.1072 110.615 10.3485 107.227C10.3485 107.227 12.3997 107.892 11.7064 106.512C11.7064 106.512 8.29726 107.227 6.23176 105.19C6.23176 105.19 9.66235 106.527 8.28296 105.19C7.04038 105.06 5.85558 104.598 4.85238 103.854C4.85238 103.854 6.91073 104.518 6.21747 103.139C6.21747 103.139 4.85238 103.854 4.84523 102.467C4.84523 102.467 6.21747 103.139 5.51705 101.752C5.51705 101.752 2.78688 101.752 2.77258 99.7297C2.77258 99.7297 3.48729 101.088 4.14482 100.401C4.14482 100.401 1.3932 98.3789 1.37891 97.0138C1.37891 97.0138 6.19602 101.066 6.18173 99.7011C6.18173 99.7011 4.80949 99.0292 6.18173 97.6499C6.18173 97.6499 10.3056 101.03 10.9774 99.6582C10.7971 99.664 10.6175 99.6332 10.4494 99.5678C10.2813 99.5023 10.1282 99.4035 9.99934 99.2773C9.87046 99.1511 9.76846 99.0001 9.69949 98.8334C9.63051 98.6667 9.596 98.4878 9.59802 98.3074C9.59802 98.3074 13.0429 101.009 13.7076 99.6367C13.7076 100.316 12.3425 99.6367 12.3353 98.2788C12.3353 98.2788 18.4961 100.273 18.4818 98.9077C18.4818 98.9077 17.8028 98.9078 17.7671 97.5498C17.7671 97.5498 23.9279 98.8577 23.2132 95.4486C21.7764 96.302 20.0626 96.5585 18.4389 96.1633C18.4389 96.1633 19.7969 95.4486 17.7242 94.1192C17.7242 94.1192 15.7016 96.8708 14.3151 94.8339C14.3151 94.8339 17.031 93.4045 15.6659 92.7756C15.6659 92.7756 12.2639 94.8482 10.8845 92.8113C10.8845 92.8113 14.9798 92.7756 13.6004 91.4248C13.6004 91.4248 9.51226 92.1395 9.49082 90.0954C9.49082 90.0954 12.2281 90.753 11.5349 89.3807C11.5349 89.3807 7.43961 89.4164 7.42532 88.0514C7.42532 88.0514 9.48367 88.716 9.46938 87.3367C9.46938 87.3367 7.40388 85.9859 8.08285 85.2998C8.08285 85.2998 12.2138 88.6803 12.1996 87.3081V85.943C12.1996 85.943 11.5277 87.3152 14.9583 88.6517V87.2866C14.9583 87.2866 17.7242 90.6743 20.4401 89.2878C20.4401 89.2878 24.5354 89.2521 23.835 87.208C23.3823 87.6206 22.8274 87.9045 22.2278 88.0302C21.6283 88.1559 21.0061 88.1188 20.4258 87.9227C20.4258 87.9227 23.156 87.208 21.7838 86.5433C21.1705 86.9292 20.4607 87.1339 19.7361 87.1339C19.0116 87.1339 18.3018 86.9292 17.6885 86.5433C17.6885 86.5433 21.0905 85.8286 19.7183 85.1568C19.7183 85.8715 13.5789 85.8715 13.5789 85.8715C13.5789 85.8715 14.944 85.1568 13.5789 84.5064C13.5789 84.5064 9.48367 85.2211 9.46223 82.491C9.46223 82.491 14.944 84.4921 15.6158 83.1199C15.6158 83.1199 10.8273 82.4767 11.492 80.4255C11.492 80.4255 12.8714 81.7763 13.5432 81.0901C13.5432 81.0901 10.8059 80.4326 10.7916 78.3814C10.7916 78.3814 14.2293 81.083 16.2805 81.0615C16.2805 81.0615 13.5218 78.36 15.5658 78.3385C15.5658 78.3385 16.2805 81.0615 21.7194 79.6536L23.0774 78.2742H19.6611C19.6611 78.2742 23.0488 75.5154 23.0345 73.4642C23.0345 73.4642 20.3258 76.2158 18.2746 76.2373C18.2746 76.2373 21.0047 75.5226 20.3043 74.1718C18.1296 74.9871 15.7826 75.2331 13.486 74.8865C13.486 74.8865 17.5813 74.8865 16.2019 73.4928C16.2019 73.4928 13.4789 74.2075 12.0995 72.8496C12.0995 72.8496 14.1507 72.8496 13.4574 72.1349C13.4574 72.1349 9.35502 71.4845 10.0054 67.3821C10.6749 68.196 11.5114 68.8566 12.4585 69.319C13.4055 69.7814 14.4408 70.0349 15.4943 70.0622L14.1221 69.3975C14.1221 69.3975 16.8523 69.3975 18.2102 68.6828C18.2102 68.6828 14.1221 69.3975 13.4146 67.3606C13.4146 67.3606 17.517 67.3249 17.5098 66.6459C17.0268 66.0765 16.7721 65.3482 16.7951 64.6019C16.7951 64.6019 18.1745 65.9598 20.8975 65.2522C20.8975 65.2522 18.8463 65.2522 18.8392 63.9015C18.8392 63.9015 22.2698 65.9241 23.6134 63.8586C23.6134 63.8586 21.5693 63.8586 21.5551 62.5149C21.5551 62.5149 23.6134 63.1796 23.592 61.1284C23.592 61.1284 21.5551 62.5149 20.8618 61.1284C21.1815 61.1388 21.4944 61.0342 21.7436 60.8336C21.9928 60.6329 22.1617 60.3495 22.2197 60.0349C22.2197 60.0349 18.1316 60.7496 17.4312 58.7127C17.4312 58.7127 20.8475 59.3631 20.8403 58.677C20.8403 58.677 19.4824 59.3917 19.4681 57.3262C19.4681 57.3262 22.8773 57.3262 22.8701 55.8968C22.8701 55.8968 18.7677 55.2464 18.7463 53.2023C18.7463 53.2023 24.9142 55.1963 24.8927 53.1451C24.8927 53.1451 17.3669 51.8444 17.3597 50.4793C17.3597 50.4793 19.4109 51.1439 19.3966 49.7646C19.3966 49.7646 15.3014 49.7646 15.2799 47.0701C15.2799 47.0701 18.0244 48.4138 18.0173 47.7277C18.0173 47.7277 16.6522 47.7277 16.6307 45.6907C16.6307 45.6907 22.134 50.4221 24.8213 44.9332C24.8213 44.9332 17.9887 44.9975 17.9744 42.9463C17.9744 42.9463 20.7117 43.6038 20.7046 42.9463C20.7046 42.9463 16.5878 40.9308 17.2525 38.8796C17.2525 38.8796 21.3692 40.8879 22.0411 39.5157C22.0411 39.5157 19.9898 39.5157 19.9684 36.807C19.9684 36.807 23.4061 39.5085 24.0565 36.0922C24.0565 36.0922 21.3263 36.0922 21.3121 34.7486C21.3121 34.7486 24.0494 35.4061 24.0422 34.0339C24.0422 34.0339 19.2537 33.3978 19.2323 31.3466C19.2323 31.3466 22.6628 32.6831 23.3347 31.3109C23.3347 31.3109 21.2763 30.6462 21.2692 29.2811C21.2692 29.2811 24.0065 30.6247 24.6783 29.2811C24.408 29.2888 24.1389 29.2419 23.8872 29.143C23.6354 29.0442 23.4063 28.8956 23.2134 28.706C23.0205 28.5165 22.8679 28.2899 22.7647 28.04C22.6615 27.79 22.6098 27.5217 22.6128 27.2513C22.6128 27.2513 25.343 27.2513 25.3216 24.4926H23.9565C23.9565 24.4926 25.3216 24.4926 25.2572 17.6528" fill="#180733"/>
<path opacity="0.8" d="M26.4926 84.3711H24.4414V140.676H26.4926V84.3711Z" fill="#180733"/>
</g>
<path d="M134.75 104.748L135.05 104.24V101.66H137.659L137.68 100.781L142.84 100.946L142.583 104.097L137.63 103.354L134.75 104.748Z" fill="#180733"/>
<path d="M137.68 120.314C137.68 120.314 138.394 125.367 144.998 125.367C151.602 125.367 151.838 120.971 151.838 120.971L151.659 109.808C151.659 109.808 144.512 108.793 142.754 120.099L137.68 120.314Z" fill="black"/>
<path d="M158.864 121.635C158.864 121.635 159.522 126.681 165.668 126.681C171.815 126.681 172.036 122.293 172.036 122.293L171.872 111.122C171.872 111.122 165.232 110.107 163.581 121.414L158.864 121.635Z" fill="black"/>
<path d="M132.142 116.912L131.37 120.207L142.419 120.936L146.851 112.746L151.175 109.837L152.776 102.754L150.138 102.425L142.348 104.291L139.275 116.698L132.142 116.912Z" fill="#46395C"/>
<path d="M173.572 109.229L166.768 92.1971L154.911 88.4663L137.68 100.774L138.008 101.431L139.002 100.774L142.733 101.102L142.947 101.76L145.363 102.196L148.107 100.766V98.4579L157.105 93.3049L161.858 94.5485L163.531 101.588L169.07 102.853L170.056 105.812L162.044 104.826C162.044 104.826 162.816 102.961 159.85 102.853C156.884 102.746 156.662 102.189 156.662 102.189L154.254 102.632L153.16 102.41L151.073 110.201V114.353L171.485 115.296C171.485 115.296 171.485 125.502 175.216 126.381C178.947 127.261 187.509 128.025 187.509 128.025C187.509 128.025 180.483 123.859 181.034 116.175C181.363 115.296 180.047 111.78 180.047 111.78L180.376 109.7L193.684 107.806L194.563 106.484L173.572 109.229Z" fill="#010101"/>
<path d="M152.825 103.14L151.517 102.704C151.517 102.704 150.202 110.272 148.558 111.044C146.914 111.816 144.935 112.91 144.935 112.91L141.633 120.786H143.498L146.357 113.767C146.357 113.767 150.645 111.788 150.967 110.908C151.288 110.029 152.825 103.14 152.825 103.14Z" fill="url(#paint5_linear)"/>
<path d="M137.68 103.139L142.404 103.797L143.061 104.897L147.35 103.139L150.309 103.575C150.309 103.575 149.651 107.971 148.993 107.971H146.685L142.625 108.957L139.552 120.264H137.029L137.358 117.297L137.908 116.747L138.459 106.977L137.68 103.139Z" fill="#180733"/>
<path d="M182.136 127.725C184.047 128.367 186.097 128.481 188.068 128.054C188.068 128.054 182.679 124.359 182.679 119.356C182.736 116.292 183.776 113.328 185.645 110.901H185.495C184.844 110.815 182.164 110.543 180.156 111.694C177.855 113.009 177.74 117.726 177.855 120.27C177.88 121.774 178.286 123.246 179.034 124.549C179.783 125.853 180.85 126.946 182.136 127.725V127.725Z" fill="#6B617D"/>
<path d="M137.903 103.139L133.621 105.333L132.857 109.286L132.199 116.969H137.467L137.903 116.747L138.674 106.984L137.903 103.139Z" fill="#180733"/>
<path d="M137.68 103.139L133.292 105.555L132.742 110.822L132.306 116.969H132.67L133.07 111.151L137.466 110.601V116.969L137.902 116.747L138.652 106.977L137.68 103.139ZM133.728 110.493L133.07 110.715L133.185 109.286L133.842 106.763L137.244 104.897L137.795 107.091L137.351 109.507L133.728 110.493Z" fill="#46395C"/>
<path d="M137.353 101.052V99.8445L154.691 86.3438L155.242 87.3372L168.521 91.947L171.816 96.5569L192.013 102.703L194.315 106.541L173.574 109.393L166.327 92.383L154.584 88.6522L137.353 101.052Z" fill="#180733"/>
<path d="M167.755 95.4565L191.898 102.482L194.206 106.32L193.549 106.542L191.462 103.14H190.147L192.012 106.87L191.133 107.199L190.69 106.106L182.792 104.126L184.436 107.971L183.228 108.185L183.007 107.642L172.143 105.441L171.378 103.468L182.242 105.777L181.47 103.797L170.435 101.403L169.184 99.3017L189.925 104.24L189.268 102.704L168.52 97.1004L167.755 95.4565Z" fill="#46395C"/>
<path d="M184.372 112.294L183.886 112.03L183.671 112.687L184 113.016L183.336 112.687L183.007 113.459L183.671 113.788H182.792V114.446L183.228 114.66H182.571V115.653L182.792 115.868L182.242 116.089V117.076L182.9 117.297H182.021V118.612H182.678L182.021 119.163V119.82L182.792 120.042L182.021 120.478L182.571 121.357H183.228L182.678 121.686L182.9 122.786L183.45 122.565L183.007 123.222L183.45 124.101L184.107 123.772L183.557 124.43L184.215 125.416L184.765 124.98L184.215 125.638L184.872 126.41L185.423 125.859L185.094 126.624L185.751 127.174L186.194 126.624L185.866 127.396L186.745 127.832L186.959 127.282L186.852 127.939L187.617 128.054L187.731 127.503V128.161H188.496V127.61L188.717 128.161L189.375 128.054L189.268 127.503L189.482 127.939L189.811 127.503L189.704 127.067L189.925 127.503L190.475 126.953L190.361 126.517L190.69 126.846L191.133 126.188L190.911 125.745L191.133 125.967L191.676 125.416L191.355 125.088L191.676 125.202L191.791 124.537L191.569 124.323L191.791 124.208L192.012 123.551L191.669 123.572L192.012 123.444L192.119 122.893L191.791 122.672L192.227 122.457V121.471L191.791 121.135L192.227 121.028L192.012 120.149H191.791L192.012 119.82V118.941H191.676L191.898 118.505L191.791 117.404L191.462 117.297L191.676 117.076L191.462 116.418H190.804L191.133 115.868L190.911 115.103H190.361L190.69 114.66L190.361 114.117H189.811L190.032 113.674L189.596 113.016L189.375 113.566V112.795L188.939 112.251V112.687L188.603 112.03L188.06 111.587L188.067 112.366L187.731 111.48L187.288 111.151V111.808L186.959 111.151L186.409 110.929L186.302 111.587L186.08 110.929L185.537 111.151V111.701L185.094 111.151L184.658 111.372L184.872 111.915L184.543 111.587L184.215 111.701L184.372 112.294Z" fill="#6B617D"/>
<path d="M163.144 101.824L161.714 95.1273C161.617 94.9341 161.478 94.7647 161.307 94.6313C161.137 94.4979 160.939 94.4037 160.728 94.3554L157.548 93.4835C157.33 93.358 157.084 93.292 156.833 93.292C156.582 93.292 156.336 93.358 156.118 93.4835C155.354 93.9195 153.374 95.2345 153.374 95.2345L152.388 95.7849C152.388 95.7849 152.059 95.8921 151.952 96.7711C151.747 97.808 151.489 98.8338 151.18 99.8444L163.144 101.824Z" fill="#46395C"/>
<path d="M155.57 97.7654L156.013 95.0209C156.013 95.0209 156.227 94.5778 155.684 94.9066C155.141 95.2353 152.611 96.5575 152.611 96.5575C152.521 96.6202 152.446 96.7009 152.389 96.7945C152.332 96.888 152.296 96.9923 152.282 97.1007C152.168 97.5438 151.732 99.4092 151.732 99.4092C151.732 99.4092 151.624 99.6308 151.953 99.5164C152.282 99.4021 155.57 97.7654 155.57 97.7654Z" fill="#6B617D"/>
<path d="M159.522 98.422C159.522 98.422 160.18 98.6364 160.18 97.8717V96.0063C160.18 96.0063 160.18 95.6775 159.744 95.5632C159.308 95.4488 157.764 95.1272 157.764 95.1272C157.764 95.1272 156.778 94.7984 156.778 95.3488C156.778 95.8991 156.564 97.8717 156.564 97.8717C156.564 97.8717 156.449 98.2004 157 98.3077C157.838 98.3916 158.68 98.4298 159.522 98.422V98.422Z" fill="#6B617D"/>
<path d="M163.497 101.824L162.489 98.4224L155.571 98.6368L154.477 98.7511L153.927 100.395L163.497 101.824Z" fill="#180733"/>
<path d="M138.338 98.6362L135.487 100.866L134.829 101.381L134.607 103.36L138.56 100.838L138.338 98.6362Z" stroke="white" stroke-width="0.2" stroke-miterlimit="10"/>
<path d="M135.431 104.29V100.988" stroke="white" stroke-width="0.2" stroke-miterlimit="10"/>
<path d="M136.416 103.833L136.659 99.9517" stroke="white" stroke-width="0.2" stroke-miterlimit="10"/>
<path d="M137.631 103.082L137.709 99.1294" stroke="white" stroke-width="0.2" stroke-miterlimit="10"/>
<path d="M139.11 103.354L139.275 98.6943" stroke="white" stroke-width="0.2" stroke-miterlimit="10"/>
<path d="M138.396 98.6943L142.126 99.1303C142.126 99.1303 142.677 99.1303 142.569 100.667" stroke="white" stroke-width="0.2" stroke-miterlimit="10"/>
<path d="M161.608 107.971C161.608 107.971 156.777 107.313 153.489 110.379C150.201 113.446 149.587 118.391 149.587 118.391C149.587 118.391 148.658 122.215 151.952 126.074C152.956 127.21 154.189 128.121 155.57 128.745C156.951 129.37 158.448 129.695 159.964 129.698C159.964 129.698 152.281 123.223 153.596 118.263C154.911 113.303 161.608 107.971 161.608 107.971Z" fill="#6B617D"/>
<path d="M152.166 118.392C152.166 118.392 150.958 119.385 150.415 119.271C150.765 119.366 151.132 119.386 151.49 119.329C151.849 119.273 152.191 119.141 152.495 118.942L152.609 118.613L152.166 118.392Z" fill="#46395C"/>
<path d="M150.194 117.297C150.723 117.501 151.309 117.501 151.838 117.297C152.824 116.968 153.003 116.89 153.003 116.89L152.717 116.668C152.262 116.666 151.812 116.769 151.402 116.968C151.02 117.142 150.612 117.253 150.194 117.297V117.297Z" fill="#46395C"/>
<path d="M150.961 115.325C151.34 115.339 151.717 115.263 152.061 115.104C152.826 114.882 153.048 114.989 153.048 114.989L153.419 115.204C152.994 115.221 152.573 115.298 152.168 115.432C151.664 115.556 151.137 115.556 150.632 115.432L150.961 115.325Z" fill="#46395C"/>
<path d="M151.18 113.789C151.406 113.885 151.649 113.935 151.894 113.935C152.14 113.935 152.383 113.885 152.609 113.789C153.022 113.712 153.44 113.662 153.86 113.638L153.595 113.453L153.638 113.345C153.219 113.285 152.791 113.321 152.388 113.453C151.996 113.601 151.592 113.713 151.18 113.789V113.789Z" fill="#46395C"/>
<path d="M150.302 121.136C150.938 121.085 151.547 120.857 152.06 120.478C152.232 120.327 152.449 120.239 152.678 120.227C152.906 120.216 153.132 120.281 153.318 120.414L153.003 120.678C152.564 121.024 152.054 121.268 151.51 121.393C151.097 121.363 150.691 121.276 150.302 121.136V121.136Z" fill="#46395C"/>
<path d="M151.896 112.002C152.354 112.077 152.823 112.047 153.268 111.916C153.685 111.784 154.126 111.743 154.561 111.795L154.476 111.916L154.69 112.145C154.211 112.131 153.732 112.167 153.261 112.252C152.854 112.279 152.447 112.24 152.053 112.138L151.896 112.002Z" fill="#46395C"/>
<path d="M153.047 110.715C153.047 110.715 154.476 110.272 155.026 110.494C155.577 110.715 155.613 110.572 155.613 110.572L155.763 111.123C155.34 111.024 154.909 110.96 154.476 110.93C154.04 110.988 153.598 110.988 153.161 110.93C152.947 110.822 153.047 110.715 153.047 110.715Z" fill="#46395C"/>
<path d="M154.378 109.614C155.107 109.5 155.85 109.5 156.579 109.614C156.696 109.661 156.8 109.735 156.883 109.829C156.966 109.923 157.026 110.036 157.058 110.157C156.724 109.925 156.321 109.812 155.915 109.836C155.395 109.824 154.879 109.75 154.378 109.614V109.614Z" fill="#46395C"/>
<path d="M156.013 108.849C156.013 108.849 157.657 108.428 157.985 109.185Z" fill="#46395C"/>
<path d="M157.657 108.3C157.657 108.3 158.758 108.186 158.972 108.407C159.119 108.592 159.209 108.815 159.23 109.05C158.888 108.78 158.507 108.564 158.1 108.407L157.657 108.3Z" fill="#46395C"/>
<path d="M150.853 123.001C151.356 122.966 151.845 122.817 152.282 122.565C152.537 122.353 152.858 122.237 153.19 122.236C153.19 122.236 152.825 123.115 152.282 123.222C151.795 123.254 151.307 123.179 150.853 123.001Z" fill="#46395C"/>
<path d="M151.623 124.759C152.127 124.726 152.616 124.577 153.052 124.323C153.288 124.115 153.583 123.985 153.896 123.952C153.896 123.952 153.603 124.874 152.831 124.981C152.415 125.061 151.984 124.982 151.623 124.759V124.759Z" fill="#46395C"/>
<path d="M152.826 126.296C153.039 126.325 153.256 126.311 153.464 126.255C153.671 126.198 153.865 126.1 154.034 125.967C154.157 125.841 154.305 125.742 154.469 125.677C154.633 125.612 154.808 125.581 154.985 125.588C154.985 125.588 154.27 126.518 153.491 126.518C152.712 126.518 152.826 126.296 152.826 126.296Z" fill="#46395C"/>
<path d="M153.927 127.725C153.927 127.725 155.013 127.604 155.356 127.168C155.699 126.732 155.992 126.846 155.992 126.846C155.992 126.846 155.799 127.725 155.142 127.832C154.734 127.896 154.317 127.859 153.927 127.725Z" fill="#46395C"/>
<path d="M160.402 109.286L160.18 108.628H159.087L159.308 109.614L158.644 108.628L157.986 108.957V109.836L157.436 109.286L156.893 109.836L157.107 110.601L156.228 110.165L155.57 110.715L155.885 111.373L155.027 111.151L154.477 111.916L154.949 112.416H153.977L153.598 113.459L154.255 113.895L153.376 114.117L153.047 114.996L153.819 115.432L152.719 115.868V116.747L153.598 117.19L152.611 117.519V118.613L153.598 118.834L152.497 119.384V120.371L153.376 120.592L152.497 121.25L152.826 122.458H153.705L153.047 123.115L153.491 124.323L154.362 123.994L153.705 124.873L154.477 125.967L155.242 125.417L154.584 126.41L155.57 127.396L156.121 126.953L155.792 127.725L156.778 128.383L157.328 127.725L157.107 128.819L158.1 129.147L158.758 128.383L158.644 129.369L159.851 129.698L160.073 128.933L160.18 129.698H161.388V128.933L161.717 129.698H163.039V128.819L163.253 129.369L164.354 129.262V128.49L164.79 129.147L165.783 128.711L165.562 127.832L166.219 128.383L167.099 127.832L166.77 126.953L167.313 127.396L167.978 126.517L167.427 125.967L168.192 126.074L168.742 125.309L168.414 124.209L169.071 124.537L169.4 123.551L168.964 122.894L169.4 123.222L169.729 122.015L169.4 121.357L169.95 121.579V120.478L169.4 119.935L169.95 120.042V118.727L169.293 118.398L169.95 118.284L169.729 116.969L169.185 117.076L169.514 116.526L169.293 115.432L168.521 115.761L169.071 115.103L168.742 114.117L168.192 114.331L168.521 113.345L167.863 112.58L167.313 112.909L167.642 112.252L166.984 111.373L166.441 111.809L166.655 111.151L165.891 110.379L165.562 110.822L165.669 110.05L164.683 109.507L164.354 110.05V109.286L163.475 108.957V109.614L163.253 108.628H162.489V109.286L162.267 108.299H161.388V108.957L161.059 108.299L160.509 108.514L160.402 109.286Z" fill="#6B617D"/>
<path d="M160.402 109.064L160.18 108.407H159.087L159.308 109.393L158.644 108.407L157.986 108.736V109.615L157.436 109.064L156.893 109.615L157.107 110.379L156.228 109.944L155.57 110.494L155.885 111.159L155.027 110.93L154.477 111.702L154.949 112.202H153.977L153.598 113.238L154.255 113.674L153.376 113.896L153.047 114.775L153.819 115.211L152.719 115.654V116.526L153.598 116.969L152.611 117.298V118.398L153.598 118.613L152.497 119.163V120.15L153.376 120.371L152.497 121.029L152.826 122.236H153.705L153.047 122.894L153.491 124.102L154.362 123.773L153.705 124.652L154.477 125.746L155.242 125.202L154.584 126.189L155.57 127.175L156.121 126.739L155.792 127.504L156.778 128.161L157.328 127.504L157.107 128.604L158.1 128.933L158.758 128.161L158.644 129.148L159.851 129.476L160.073 128.712L160.18 129.476H161.388V128.712L161.717 129.476H163.039V128.604L163.253 129.148L164.354 129.04V128.269L164.79 128.933L165.783 128.49L165.562 127.611L166.219 128.161L167.099 127.611L166.77 126.739L167.313 127.175L167.978 126.296L167.427 125.746L168.192 125.86L168.742 125.088L168.414 123.995L169.071 124.323L169.4 123.33L168.964 122.672L169.4 123.001L169.729 121.793L169.4 121.136L169.95 121.357V120.257L169.4 119.714L169.95 119.821V118.506L169.293 118.177L169.95 118.063L169.729 116.748L169.185 116.855L169.514 116.312L169.293 115.211L168.521 115.54L169.071 114.882L168.742 113.896L168.192 114.117L168.521 113.124L167.863 112.359L167.313 112.688L167.642 112.03L166.984 111.151L166.441 111.587L166.655 110.93L165.891 110.165L165.562 110.601L165.669 109.836L164.683 109.286L164.354 109.836V109.064L163.475 108.736V109.393L163.253 108.407H162.489V109.064L162.267 108.078H161.388V108.736L161.059 108.078L160.509 108.3L160.402 109.064Z" fill="#180733"/>
<path d="M161.387 113.345C161.387 113.345 157.099 113.452 157.22 118.612C157.342 123.772 161.716 124.208 161.716 124.208C161.716 124.208 166.218 123.994 166.111 118.726C166.004 113.459 161.387 113.345 161.387 113.345Z" fill="#46395C"/>
<path d="M160.728 116.197C160.178 116.197 158.863 116.526 158.863 118.727C158.856 119.009 158.904 119.289 159.006 119.552C159.107 119.815 159.259 120.055 159.453 120.259C159.647 120.463 159.88 120.627 160.137 120.741C160.394 120.856 160.672 120.918 160.953 120.925C161.235 120.932 161.515 120.884 161.778 120.782C162.041 120.681 162.281 120.529 162.485 120.335C162.689 120.141 162.853 119.908 162.967 119.651C163.082 119.394 163.144 119.116 163.151 118.835C163.178 118.499 163.135 118.163 163.025 117.845C162.916 117.527 162.742 117.235 162.515 116.988C162.287 116.74 162.011 116.542 161.704 116.406C161.397 116.27 161.064 116.199 160.728 116.197Z" fill="#6B617D"/>
<path d="M160.787 118.942C160.937 118.942 161.059 118.82 161.059 118.67C161.059 118.52 160.937 118.398 160.787 118.398C160.637 118.398 160.516 118.52 160.516 118.67C160.516 118.82 160.637 118.942 160.787 118.942Z" fill="#46395C"/>
<path d="M145.312 102.539V97.6003L147.299 96.3067L149.372 94.963C149.372 94.963 150.03 94.6343 150.03 95.2918V96.8284C150.029 97.0419 149.979 97.2522 149.883 97.4432C149.788 97.6341 149.649 97.8004 149.479 97.9291C148.929 98.2578 145.527 99.9017 145.527 99.9017" stroke="white" stroke-width="0.2" stroke-miterlimit="10"/>
<path d="M147.288 101.659V96.3921" stroke="white" stroke-width="0.2" stroke-miterlimit="10"/>
<path d="M149.152 100.123L149.217 95.063" stroke="white" stroke-width="0.2" stroke-miterlimit="10"/>
<path d="M150.687 97.707L168.354 101.231" stroke="white" stroke-width="0.2" stroke-miterlimit="10"/>
<path d="M165.397 98.1362V103.196" stroke="white" stroke-width="0.2" stroke-miterlimit="10"/>
<path d="M163.202 97.6001L163.309 102.867" stroke="white" stroke-width="0.2" stroke-miterlimit="10"/>
<path d="M160.671 102.425L160.785 97.1074" stroke="white" stroke-width="0.2" stroke-miterlimit="10"/>
<path d="M157.056 101.659L157.306 96.3276" stroke="white" stroke-width="0.2" stroke-miterlimit="10"/>
<path d="M155.297 101.438L155.54 95.9346" stroke="white" stroke-width="0.2" stroke-miterlimit="10"/>
<path d="M154.419 101.331L154.719 95.7495" stroke="white" stroke-width="0.2" stroke-miterlimit="10"/>
<path d="M150.687 100.56V94.8564L166.932 98.4729L168.354 100.996V104.183" stroke="white" stroke-width="0.2" stroke-miterlimit="10"/>
<path d="M147.887 109.179V110.022L148.659 110.051V108.957L147.887 109.179Z" fill="white"/>
<path d="M147.672 109.393L147.122 109.507V110.165L147.672 110.051V109.393Z" fill="white"/>
<path d="M144.42 104.076L145.035 101.932L150.302 99.5166L169.07 102.704L170.171 105.992L150.302 102.704L144.692 103.962" fill="#46395C"/>
<path d="M182.792 111.258C182.792 111.258 184.986 111.587 185.315 111.258C185.644 110.93 182.792 111.258 182.792 111.258Z" fill="#46395C"/>
<path d="M181.801 111.702C181.801 111.702 184.002 111.373 184.216 111.702C184.431 112.031 184.216 112.138 184.216 112.138C183.762 111.947 183.279 111.836 182.787 111.809C182.455 111.819 182.123 111.783 181.801 111.702V111.702Z" fill="#46395C"/>
<path d="M180.483 112.58C181.32 112.339 182.186 112.216 183.056 112.216C183.771 112.359 183.885 112.58 183.885 112.58L183.671 112.688C183.671 112.688 182.57 112.58 182.02 112.58H180.483Z" fill="#46395C"/>
<path d="M180.049 113.346C180.705 113.401 181.365 113.401 182.021 113.346C182.494 113.268 182.972 113.232 183.451 113.239L183.672 113.789L182.465 113.675L180.049 113.346Z" fill="#46395C"/>
<path d="M179.826 114.552C180.475 114.397 181.134 114.287 181.799 114.224C182.316 114.256 182.83 114.33 183.335 114.445L182.571 114.552C182.571 114.552 181.692 114.66 181.363 114.66C181.034 114.66 179.826 114.552 179.826 114.552Z" fill="#46395C"/>
<path d="M180.049 115.654C180.049 115.654 181.585 115.761 181.8 115.539C182.014 115.318 182.679 115.654 182.679 115.654L181.8 116.09C181.438 116.027 181.068 116.027 180.706 116.09C180.634 116.106 180.56 116.108 180.487 116.095C180.415 116.082 180.345 116.054 180.284 116.013C180.222 115.972 180.17 115.92 180.129 115.858C180.089 115.796 180.062 115.727 180.049 115.654V115.654Z" fill="#46395C"/>
<path d="M180.049 117.212C180.403 117.336 180.788 117.336 181.142 117.212C181.542 117.077 181.966 117.031 182.386 117.076L181.257 117.541C180.706 117.734 180.049 117.212 180.049 117.212Z" fill="#46395C"/>
<path d="M180.263 118.834C180.715 118.722 181.157 118.573 181.586 118.391C181.951 118.288 182.342 118.329 182.679 118.505C182.104 118.82 181.468 119.007 180.814 119.055C179.935 119.055 180.263 118.834 180.263 118.834Z" fill="#46395C"/>
<path d="M179.826 120.371C180.423 120.332 181.013 120.221 181.584 120.042C181.939 119.921 182.323 119.921 182.678 120.042C182.171 120.413 181.555 120.607 180.927 120.593C180.552 120.565 180.182 120.491 179.826 120.371V120.371Z" fill="#46395C"/>
<path d="M180.264 121.801C180.264 121.801 181.586 121.908 182.022 121.465C182.402 121.192 182.873 121.075 183.337 121.136C183.337 121.136 182.022 122.344 180.928 122.237C179.835 122.129 180.264 121.801 180.264 121.801Z" fill="#46395C"/>
<path d="M180.154 123.337C180.154 123.337 182.241 123.337 182.792 122.787C183.342 122.237 183.335 122.458 183.335 122.458C183.335 122.458 182.241 124.209 180.812 123.773C179.383 123.337 180.154 123.337 180.154 123.337Z" fill="#46395C"/>
<path d="M180.278 124.666C180.278 124.666 182.636 124.895 183.537 123.894C184.438 122.894 183.337 124.652 183.337 124.652C183.074 124.851 182.768 124.985 182.444 125.042C182.12 125.099 181.786 125.078 181.472 124.981C181.077 124.844 180.673 124.734 180.264 124.652" fill="#46395C"/>
<path d="M181.914 125.746C182.544 125.813 183.181 125.74 183.779 125.531C184.33 125.203 184.659 124.981 184.659 124.981C184.55 125.302 184.343 125.58 184.067 125.777C183.791 125.973 183.461 126.077 183.122 126.074C181.914 126.074 181.914 125.746 181.914 125.746Z" fill="#46395C"/>
<path d="M183.229 126.954C183.747 126.904 184.241 126.713 184.659 126.403C184.9 126.168 185.12 125.912 185.316 125.639C185.29 125.901 185.208 126.154 185.075 126.381C184.941 126.608 184.761 126.803 184.545 126.954C184.338 127.048 184.114 127.096 183.887 127.096C183.66 127.096 183.436 127.048 183.229 126.954V126.954Z" fill="#46395C"/>
<path d="M182.021 109.286L182.242 110.93L182.9 110.88V109.064L182.021 109.286Z" fill="#010101"/>
<path d="M184.265 112.181L183.779 111.916L183.558 112.581L183.887 112.91L183.229 112.581L182.9 113.346L183.558 113.674H182.679V114.332L183.122 114.554H182.464V115.54L182.679 115.761L182.136 115.983V116.969L182.793 117.191H181.914V118.506H182.572L181.914 119.056V119.714L182.679 119.935L181.914 120.371L182.464 121.25H183.122L182.572 121.579L182.793 122.673L183.336 122.458L182.9 123.116L183.336 123.995L184.001 123.666L183.451 124.324L184.108 125.31L184.659 124.874L184.108 125.531L184.766 126.296L185.316 125.746L184.987 126.518L185.645 127.068L186.081 126.518L185.752 127.282L186.631 127.726L186.853 127.175L186.745 127.833L187.51 127.94L187.617 127.397V128.054H188.389V127.504L188.604 128.054L189.268 127.94L189.154 127.397L189.376 127.833L189.704 127.397L189.597 126.954L189.812 127.397L190.362 126.846L190.255 126.41L190.583 126.739L191.019 126.075L190.805 125.639L191.019 125.86L191.57 125.31L191.241 124.981L191.57 125.088L191.677 124.431L191.463 124.209L191.677 124.102L191.899 123.444L191.555 123.459L191.899 123.33L192.013 122.787L191.677 122.565L192.12 122.344V121.358L191.677 121.029L192.12 120.922L191.899 120.042H191.677L191.899 119.714V118.835H191.57L191.791 118.399L191.677 117.298L191.355 117.191L191.57 116.969L191.355 116.312H190.691L191.019 115.761L190.805 114.997H190.255L190.583 114.554L190.255 114.003H189.704L189.926 113.567L189.483 112.91L189.268 113.46V112.688L188.825 112.138V112.581L188.496 111.916L187.946 111.48L187.953 112.259L187.617 111.373L187.181 111.044V111.702L186.853 111.044L186.302 110.823L186.195 111.48L185.974 110.823L185.423 111.044V111.587L184.987 111.044L184.544 111.259L184.766 111.809L184.437 111.48L184.108 111.587L184.265 112.181Z" fill="#180733"/>
<path d="M186.959 114.989C186.959 114.989 184.765 115.104 185.094 119.277C185.423 123.451 188.06 123.78 188.06 123.78C188.06 123.78 190.919 123.673 190.254 119.492C189.59 115.311 187.51 114.989 187.51 114.989H186.959Z" fill="#46395C"/>
<path d="M186.737 121.579C186.737 121.579 188.167 121.801 188.06 119.385C187.952 116.969 186.301 116.969 186.301 116.969L185.865 117.298C185.741 118.174 185.777 119.065 185.973 119.928C186.055 120.543 186.322 121.119 186.737 121.579V121.579Z" fill="#6B617D"/>
<path d="M186.909 119.713C186.999 119.713 187.073 119.566 187.073 119.384C187.073 119.202 186.999 119.055 186.909 119.055C186.818 119.055 186.744 119.202 186.744 119.384C186.744 119.566 186.818 119.713 186.909 119.713Z" fill="#180733"/>
<path d="M146.022 104.897C146.022 104.897 146.022 103.689 146.68 103.689C147.338 103.689 147.123 105.118 147.123 105.118C147.123 105.118 146.902 106.441 146.466 106.441C146.03 106.441 146.022 104.904 146.022 104.904" fill="white"/>
<path d="M145.585 105.226C145.585 105.226 145.692 104.347 145.149 104.347C144.606 104.347 144.599 105.883 144.599 105.883C144.599 105.883 144.599 107.091 145.149 106.977C145.699 106.862 145.585 105.226 145.585 105.226" fill="white"/>
<path d="M144.155 105.99C144.155 105.99 144.269 104.897 143.719 104.897C143.169 104.897 143.169 106.434 143.169 106.434C143.169 106.434 143.061 107.527 143.612 107.527C144.162 107.527 144.155 105.99 144.155 105.99Z" fill="white"/>
<path d="M150.415 100.065V103.031L170.277 106.433L169.183 103.031L150.415 100.065Z" fill="#180733"/>
<g opacity="0.4">
<path opacity="0.4" d="M162.689 50.215L160.495 50.4795L160.938 54.2603L157.172 54.7034L156.729 50.9226L148.938 51.8517L148.624 49.1644L155.221 36.4427L158.794 36.021L160.159 47.4563L162.354 47.1918L162.689 50.215ZM156.371 47.928L156 44.8333C155.943 44.3187 155.871 43.5683 155.8 42.582C155.728 41.5957 155.692 41.0239 155.692 40.8596H155.592C155.365 41.5984 155.073 42.3158 154.72 43.0037L151.976 48.4497L156.371 47.928Z" fill="white"/>
<path opacity="0.4" d="M176.125 43.2024C176.507 46.39 176.268 48.8104 175.411 50.4638C174.546 52.1219 173.031 53.0725 170.858 53.3226C169.934 53.4871 168.982 53.4083 168.098 53.0937C167.213 52.7792 166.425 52.2399 165.812 51.5287C164.554 50.0707 163.742 47.8003 163.375 44.7175C162.999 41.5014 163.237 39.0666 164.09 37.4133C164.947 35.7694 166.463 34.8117 168.621 34.5544C169.551 34.3944 170.506 34.4789 171.393 34.7997C172.28 35.1205 173.069 35.6665 173.681 36.3841C174.949 37.8564 175.763 40.1291 176.125 43.2024ZM167.242 44.2601C167.35 45.8963 167.739 47.5016 168.392 49.0058C168.568 49.4121 168.87 49.7506 169.254 49.9703C169.638 50.1901 170.083 50.2793 170.522 50.2245C170.961 50.1697 171.371 49.9739 171.689 49.6665C172.007 49.3591 172.217 48.9567 172.287 48.5198C172.585 46.9145 172.597 45.2693 172.323 43.6598C172.21 42.0212 171.811 40.4151 171.144 38.9141C170.973 38.5066 170.674 38.1658 170.292 37.9431C169.91 37.7204 169.467 37.6279 169.028 37.6796C168.589 37.7312 168.179 37.9242 167.859 38.2294C167.539 38.5346 167.328 38.9355 167.256 39.3715C166.972 40.9883 166.967 42.6418 167.242 44.2601V44.2601Z" fill="white"/>
<path opacity="0.4" d="M191.856 46.7554L189.662 47.0127L190.113 50.7935L186.339 51.2438L185.896 47.463L178.105 48.3849L177.791 45.7048L184.395 32.9759L187.968 32.5542L189.326 43.9895L191.521 43.7322L191.856 46.7554ZM185.538 44.4683L185.167 41.3737C185.11 40.8591 185.038 40.1086 184.967 39.1223C184.895 38.136 184.859 37.5571 184.859 37.3999H184.767C184.534 38.1378 184.239 38.8549 183.887 39.544L181.143 45.0258L185.538 44.4683Z" fill="white"/>
</g>
<rect x="1.43164" y="12.8662" width="15.0088" height="127.932" fill="#B3B3B3"/>
<rect x="226.56" y="12.8647" width="15.0088" height="127.932" fill="#B3B3B3"/>
<rect x="13.5791" y="133.65" width="220.129" height="14.2941" fill="#B3B3B3"/>
<defs>
<linearGradient id="paint0_linear" x1="22.5547" y1="22.2421" x2="87.8574" y2="22.2421" gradientUnits="userSpaceOnUse">
<stop stop-color="#75C2E8"/>
<stop offset="0.2" stop-color="#7CC5E9"/>
<stop offset="0.47" stop-color="#8ECDEC"/>
<stop offset="0.8" stop-color="#ADDBF1"/>
<stop offset="1" stop-color="#C3E5F4"/>
</linearGradient>
<linearGradient id="paint1_linear" x1="2296.79" y1="1295.38" x2="3553.93" y2="1295.38" gradientUnits="userSpaceOnUse">
<stop stop-color="#75C2E8"/>
<stop offset="0.2" stop-color="#7CC5E9"/>
<stop offset="0.47" stop-color="#8ECDEC"/>
<stop offset="0.8" stop-color="#ADDBF1"/>
<stop offset="1" stop-color="#C3E5F4"/>
</linearGradient>
<linearGradient id="paint2_linear" x1="42.5319" y1="43.1611" x2="226.797" y2="43.1611" gradientUnits="userSpaceOnUse">
<stop stop-color="#75C2E8"/>
<stop offset="0.16" stop-color="#7CC5E9"/>
<stop offset="0.38" stop-color="#8ECDEC"/>
<stop offset="0.64" stop-color="#ADDBF2"/>
<stop offset="0.92" stop-color="#D7EEF9"/>
<stop offset="1" stop-color="#E3F3FB"/>
</linearGradient>
<linearGradient id="paint3_linear" x1="110.38" y1="29.8657" x2="260.97" y2="4.00682" gradientUnits="userSpaceOnUse">
<stop stop-color="#CFEAF7"/>
<stop offset="0.39" stop-color="#D6EDF8"/>
<stop offset="0.93" stop-color="#E8F6FB"/>
<stop offset="1" stop-color="#EBF7FC"/>
</linearGradient>
<linearGradient id="paint4_linear" x1="131.169" y1="109.971" x2="154.111" y2="116.682" gradientUnits="userSpaceOnUse">
<stop offset="0.19" stop-color="#768D44"/>
<stop offset="0.26" stop-color="#7D954D"/>
<stop offset="0.38" stop-color="#92AA67"/>
<stop offset="0.52" stop-color="#B2CC90"/>
<stop offset="0.69" stop-color="#DFFBC9"/>
<stop offset="0.7" stop-color="#E3FFCE"/>
</linearGradient>
<linearGradient id="paint5_linear" x1="142.183" y1="114.275" x2="153.518" y2="108.914" gradientUnits="userSpaceOnUse">
<stop offset="0.05" stop-color="#6B617D"/>
<stop offset="0.13" stop-color="#625875"/>
<stop offset="0.27" stop-color="#4B3E60"/>
<stop offset="0.44" stop-color="#25153F"/>
<stop offset="0.49" stop-color="#180733"/>
<stop offset="0.6" stop-color="#36274E"/>
<stop offset="0.76" stop-color="#6B617D"/>
</linearGradient>
</defs>
</svg>
