<svg width="24" height="24" viewBox="0 0 24 24" fill="none" xmlns="http://www.w3.org/2000/svg">
<path d="M21.1784 8.88289L8.55161 21.5069L4.20485 21.9877C2.94506 22.1271 1.8728 21.0647 2.01224 19.7955L2.49307 15.4497L15.1198 2.82566C16.2209 1.72478 18 1.72478 19.0963 2.82566L21.1736 4.90242C22.2747 6.0033 22.2747 7.78682 21.1784 8.88289ZM16.4277 10.3684L13.634 7.5753L4.70011 16.5121L4.3491 19.6513L7.48896 19.3004L16.4277 10.3684ZM19.5435 6.53692L17.4663 4.46015C17.2692 4.26305 16.947 4.26305 16.7547 4.46015L15.2689 5.94561L18.0626 8.73867L19.5483 7.25321C19.7407 7.0513 19.7407 6.73402 19.5435 6.53692Z" fill="#3C3636"/>
</svg>
