<svg width="24" height="24" viewBox="0 0 24 24" fill="none" xmlns="http://www.w3.org/2000/svg">
<g clip-path="url(#clip0)">
<path d="M23.2284 10.9899L11.3702 23.5109L7.28803 23.9877C6.10493 24.126 5.09793 23.0722 5.22888 21.8135L5.68045 17.5031L17.5386 4.98213C18.5727 3.89024 20.2435 3.89024 21.2731 4.98213L23.2239 7.04194C24.258 8.13383 24.258 9.90279 23.2284 10.9899ZM18.7669 12.4633L16.1433 9.69299L7.75315 18.5569L7.4235 21.6704L10.3722 21.3224L18.7669 12.4633ZM21.6931 8.66309L19.7423 6.60328C19.5571 6.40778 19.2546 6.40778 19.074 6.60328L17.6786 8.07661L20.3022 10.8469L21.6976 9.37353C21.8782 9.17327 21.8782 8.85858 21.6931 8.66309Z" fill="#FBFAFA"/>
</g>
<g clip-path="url(#clip1)">
<path d="M10.5598 5.32799V5.08018C10.5598 4.70417 10.252 4.3976 9.87578 4.3976H6.02562V0.55758C6.02562 0.181575 5.7178 -0.125 5.34162 -0.125H5.09317C4.71698 -0.125 4.40916 0.181575 4.40916 0.55758V4.3976H0.559006C0.182818 4.3976 -0.125 4.70417 -0.125 5.08018V5.32799C-0.125 5.70399 0.182818 6.01057 0.559006 6.01057H4.40916V9.85058C4.40916 10.2266 4.71698 10.5332 5.09317 10.5332H5.34162C5.7178 10.5332 6.02562 10.2266 6.02562 9.85058V6.01057H9.87578C10.252 6.01057 10.5598 5.70399 10.5598 5.32799Z" fill="#FBFAFA" stroke="white" stroke-width="0.25" stroke-linejoin="round"/>
</g>
<defs>
<clipPath id="clip0">
<rect width="18.7826" height="19.8367" fill="white" transform="translate(5.21739 4.16321)"/>
</clipPath>
<clipPath id="clip1">
<rect width="10.4348" height="10.4082" fill="white"/>
</clipPath>
</defs>
</svg>
