<svg width="307" height="194" viewBox="0 0 307 194" fill="none" xmlns="http://www.w3.org/2000/svg">
<path d="M42.1831 101.573L44.9342 84.3158H81.6152L84.3663 100.341C79.3227 102.806 67.9515 107.737 62.8162 107.737C57.6808 107.737 46.9211 103.628 42.1831 101.573Z" fill="#DED9D9"/>
<g filter="url(#filter0_d)">
<path d="M40.7209 79.2538L39.3389 56.5883H37.4961V53.8684H91.3969V56.5883H90.0148L88.172 78.8005C84.1794 84.5424 73.8906 96.0263 64.6768 96.0263C55.463 96.0263 44.8671 84.8446 40.7209 79.2538Z" fill="#F4F0F0"/>
<path d="M40.7209 79.2538L39.3389 56.5883H37.4961V53.8684H91.3969V56.5883H90.0148L88.172 78.8005C84.1794 84.5424 73.8906 96.0263 64.6768 96.0263C55.463 96.0263 44.8671 84.8446 40.7209 79.2538Z" stroke="#C4C4C4"/>
</g>
<path d="M58.5879 23.4211C58.5879 22.1276 59.6365 21.079 60.93 21.079H67.9633C69.2568 21.079 70.3054 22.1276 70.3054 23.4211C70.3054 24.7146 69.2568 25.7632 67.9633 25.7632H64.4467H60.93C59.6365 25.7632 58.5879 24.7146 58.5879 23.4211Z" fill="#A09595"/>
<rect x="35.1528" y="51.5262" width="58.5878" height="4.68421" rx="2.34211" fill="#6B6363"/>
<rect x="37.4966" y="46.842" width="56.2443" height="4.68421" rx="2.3421" fill="#CCC2C3"/>
<path d="M89.0536 46.8421C89.0536 47.7483 64.4467 46.8421 64.4467 46.8421H39.8398C39.8398 32.342 50.8567 23.421 64.4467 23.421C78.0367 23.421 89.0536 31.8888 89.0536 46.8421Z" fill="#6B6363"/>
<rect x="58.5879" y="23.421" width="11.7176" height="23.4211" fill="#A09595"/>
<rect x="51.5576" y="42.1578" width="28.1221" height="4.68421" rx="2" fill="#A09595"/>
<ellipse cx="65.6187" cy="44.5" rx="9.37404" ry="9.36842" fill="#85786C"/>
<mask id="mask0" mask-type="alpha" maskUnits="userSpaceOnUse" x="58" y="37" width="15" height="15">
<ellipse cx="65.6184" cy="44.4999" rx="7.03053" ry="7.02631" fill="#C4C4C4"/>
</mask>
<g mask="url(#mask0)">
<ellipse cx="65.6184" cy="44.4999" rx="7.03053" ry="7.02631" fill="#DED9D9"/>
<path d="M58.5879 49.3526L63.2749 38.0497C64.681 37.0064 66.9855 37.615 67.9619 38.0497L62.1032 51.5263C60.697 51.5263 59.1738 50.0772 58.5879 49.3526Z" fill="white"/>
<path d="M70.3057 38.4774L69.0274 37.4736L65.6187 51.5263H66.8969L70.3057 38.4774Z" fill="white"/>
</g>
<path d="M10.1625 116.874C3.88023 119.835 0.769887 130.753 0 135.842H128.879C129.249 126.959 122.258 119.496 118.717 116.874L91.0006 104.383L87.7671 98.3684C82.3779 100.373 70.2137 104.383 64.6705 104.383C59.1273 104.383 46.6551 100.373 41.1119 98.3684L38.3404 104.383C31.5654 107.313 16.4448 113.913 10.1625 116.874Z" fill="#6B6363"/>
<path d="M220.183 101.494L222.934 84.2368H259.615L262.366 100.262C257.323 102.727 245.952 107.658 240.816 107.658C235.681 107.658 224.921 103.549 220.183 101.494Z" fill="#DED9D9"/>
<g filter="url(#filter1_d)">
<path d="M218.721 79.1748L217.339 56.5093H215.496V53.7894H269.397V56.5093H268.015L266.172 78.7215C262.179 84.4635 251.891 95.9473 242.677 95.9473C233.463 95.9473 222.867 84.7657 218.721 79.1748Z" fill="#F4F0F0"/>
<path d="M218.721 79.1748L217.339 56.5093H215.496V53.7894H269.397V56.5093H268.015L266.172 78.7215C262.179 84.4635 251.891 95.9473 242.677 95.9473C233.463 95.9473 222.867 84.7657 218.721 79.1748Z" stroke="#C4C4C4"/>
</g>
<path d="M236.588 23.3421C236.588 22.0486 237.636 21 238.93 21H245.963C247.257 21 248.305 22.0486 248.305 23.3421C248.305 24.6356 247.257 25.6842 245.963 25.6842H242.447H238.93C237.636 25.6842 236.588 24.6356 236.588 23.3421Z" fill="#A09595"/>
<rect x="213.153" y="51.4473" width="58.5878" height="4.68421" rx="2.34211" fill="#6B6363"/>
<rect x="215.497" y="46.7631" width="56.2443" height="4.68421" rx="2.3421" fill="#CCC2C3"/>
<path d="M267.054 46.7631C267.054 47.6693 242.447 46.7631 242.447 46.7631H217.84C217.84 32.263 228.857 23.342 242.447 23.342C256.037 23.342 267.054 31.8099 267.054 46.7631Z" fill="#6B6363"/>
<rect x="236.588" y="23.342" width="11.7176" height="23.4211" fill="#A09595"/>
<rect x="229.558" y="42.0789" width="28.1221" height="4.68421" rx="2" fill="#A09595"/>
<ellipse cx="243.619" cy="44.421" rx="9.37404" ry="9.36842" fill="#85786C"/>
<mask id="mask1" mask-type="alpha" maskUnits="userSpaceOnUse" x="236" y="37" width="15" height="15">
<ellipse cx="243.618" cy="44.421" rx="7.03053" ry="7.02631" fill="#C4C4C4"/>
</mask>
<g mask="url(#mask1)">
<ellipse cx="243.618" cy="44.421" rx="7.03053" ry="7.02631" fill="#DED9D9"/>
<path d="M236.588 49.2736L241.275 37.9707C242.681 36.9274 244.985 37.536 245.962 37.9707L240.103 51.4473C238.697 51.4473 237.174 49.9982 236.588 49.2736Z" fill="white"/>
<path d="M248.306 38.3984L247.027 37.3947L243.619 51.4473H244.897L248.306 38.3984Z" fill="white"/>
</g>
<path d="M188.163 116.795C181.88 119.756 178.77 130.674 178 135.763H306.879C307.249 126.88 300.258 119.417 296.717 116.795L269.001 104.304L265.767 98.2894C260.378 100.294 248.214 104.304 242.67 104.304C237.127 104.304 224.655 100.294 219.112 98.2894L216.34 104.304C209.565 107.234 194.445 113.834 188.163 116.795Z" fill="#6B6363"/>
<path d="M126.333 105.257L129.909 82.3832H177.593L181.169 103.623C174.612 106.891 159.831 113.426 153.155 113.426C146.479 113.426 132.492 107.98 126.333 105.257Z" fill="#DED9D9"/>
<g filter="url(#filter2_d)">
<path d="M123.352 75.8163L121.564 45.9674H119.18V42.3855H188.917V45.9674H187.129L184.745 75.2194C179.579 82.7811 166.267 97.9046 154.347 97.9046C142.426 97.9046 128.717 83.1791 123.352 75.8163Z" fill="#F4F0F0"/>
<path d="M123.352 75.8163L121.564 45.9674H119.18V42.3855H188.917V45.9674H187.129L184.745 75.2194C179.579 82.7811 166.267 97.9046 154.347 97.9046C142.426 97.9046 128.717 83.1791 123.352 75.8163Z" stroke="#C4C4C4"/>
</g>
<path d="M147.791 3.58188C147.791 1.60366 149.395 0 151.373 0H157.322C159.3 0 160.904 1.60366 160.904 3.58188C160.904 5.56009 159.3 7.16375 157.322 7.16375H154.347H151.373C149.395 7.16375 147.791 5.56009 147.791 3.58188Z" fill="#CCC2C3"/>
<rect x="115.604" y="40.5946" width="77.4854" height="5.96979" rx="2.9849" fill="#A09595"/>
<rect x="117.989" y="33.4305" width="72.717" height="7.16375" rx="3.58187" fill="#6B6363"/>
<path d="M187.129 34.0277C187.129 35.2217 154.347 33.4308 154.347 33.4308L121.565 34.0277C121.565 14.9244 136.242 3.58179 154.347 3.58179C172.452 3.58179 187.129 14.3274 187.129 34.0277Z" fill="#A09595"/>
<rect x="147.791" y="3.58179" width="13.1129" height="29.849" fill="#CCC2C3"/>
<rect x="137.431" y="27.4613" width="35.2787" height="8.35771" rx="2" fill="#CCC2C3"/>
<ellipse cx="154.943" cy="31.043" rx="11.9208" ry="11.9396" fill="#6B6363"/>
<mask id="mask2" mask-type="alpha" maskUnits="userSpaceOnUse" x="146" y="22" width="18" height="18">
<ellipse cx="154.943" cy="31.0429" rx="8.34458" ry="8.35771" fill="#C4C4C4"/>
</mask>
<g mask="url(#mask2)">
<ellipse cx="154.943" cy="32.237" rx="9.53666" ry="9.55167" fill="#DED9D9"/>
<path d="M147.791 38.2065L152.559 22.685C153.99 21.2523 156.334 22.088 157.328 22.685L151.367 41.1914C149.937 41.1914 148.387 39.2015 147.791 38.2065Z" fill="white"/>
<path d="M161.499 24.4762L159.711 23.2822L154.943 39.9976H156.731L161.499 24.4762Z" fill="white"/>
</g>
<path d="M83.4181 125.366C75.3119 129.186 71.2986 143.275 70.3052 149.842H236.601C237.078 138.38 228.057 128.749 223.488 125.366L187.725 109.247L183.553 101.486C176.599 104.073 160.903 109.247 153.751 109.247C146.598 109.247 130.505 104.073 123.353 101.486L119.777 109.247C111.035 113.028 91.5242 121.545 83.4181 125.366Z" fill="#A09595"/>
<g filter="url(#filter3_d)">
<ellipse cx="219.484" cy="139.785" rx="38.3026" ry="38.2147" fill="#5E46A1"/>
</g>
<path fill-rule="evenodd" clip-rule="evenodd" d="M238.635 158.128L198.8 123.735L201.87 120.196L241.705 154.589L238.635 158.128Z" fill="white"/>
<path fill-rule="evenodd" clip-rule="evenodd" d="M240.647 122.493L203.397 159.657L200.08 156.348L237.33 119.183L240.647 122.493Z" fill="white"/>
<defs>
<filter id="filter0_d" x="35.4961" y="51.8684" width="57.9008" height="46.1579" filterUnits="userSpaceOnUse" color-interpolation-filters="sRGB">
<feFlood flood-opacity="0" result="BackgroundImageFix"/>
<feColorMatrix in="SourceAlpha" type="matrix" values="0 0 0 0 0 0 0 0 0 0 0 0 0 0 0 0 0 0 127 0"/>
<feOffset/>
<feGaussianBlur stdDeviation="1"/>
<feColorMatrix type="matrix" values="0 0 0 0 0 0 0 0 0 0 0 0 0 0 0 0 0 0 0.25 0"/>
<feBlend mode="normal" in2="BackgroundImageFix" result="effect1_dropShadow"/>
<feBlend mode="normal" in="SourceGraphic" in2="effect1_dropShadow" result="shape"/>
</filter>
<filter id="filter1_d" x="213.496" y="51.7894" width="57.9008" height="46.1579" filterUnits="userSpaceOnUse" color-interpolation-filters="sRGB">
<feFlood flood-opacity="0" result="BackgroundImageFix"/>
<feColorMatrix in="SourceAlpha" type="matrix" values="0 0 0 0 0 0 0 0 0 0 0 0 0 0 0 0 0 0 127 0"/>
<feOffset/>
<feGaussianBlur stdDeviation="1"/>
<feColorMatrix type="matrix" values="0 0 0 0 0 0 0 0 0 0 0 0 0 0 0 0 0 0 0.25 0"/>
<feBlend mode="normal" in2="BackgroundImageFix" result="effect1_dropShadow"/>
<feBlend mode="normal" in="SourceGraphic" in2="effect1_dropShadow" result="shape"/>
</filter>
<filter id="filter2_d" x="117.18" y="40.3855" width="73.7368" height="59.5191" filterUnits="userSpaceOnUse" color-interpolation-filters="sRGB">
<feFlood flood-opacity="0" result="BackgroundImageFix"/>
<feColorMatrix in="SourceAlpha" type="matrix" values="0 0 0 0 0 0 0 0 0 0 0 0 0 0 0 0 0 0 127 0"/>
<feOffset/>
<feGaussianBlur stdDeviation="1"/>
<feColorMatrix type="matrix" values="0 0 0 0 0 0 0 0 0 0 0 0 0 0 0 0 0 0 0.25 0"/>
<feBlend mode="normal" in2="BackgroundImageFix" result="effect1_dropShadow"/>
<feBlend mode="normal" in="SourceGraphic" in2="effect1_dropShadow" result="shape"/>
</filter>
<filter id="filter3_d" x="165.181" y="85.5706" width="108.605" height="108.429" filterUnits="userSpaceOnUse" color-interpolation-filters="sRGB">
<feFlood flood-opacity="0" result="BackgroundImageFix"/>
<feColorMatrix in="SourceAlpha" type="matrix" values="0 0 0 0 0 0 0 0 0 0 0 0 0 0 0 0 0 0 127 0"/>
<feOffset/>
<feGaussianBlur stdDeviation="8"/>
<feColorMatrix type="matrix" values="0 0 0 0 0 0 0 0 0 0 0 0 0 0 0 0 0 0 0.25 0"/>
<feBlend mode="normal" in2="BackgroundImageFix" result="effect1_dropShadow"/>
<feBlend mode="normal" in="SourceGraphic" in2="effect1_dropShadow" result="shape"/>
</filter>
</defs>
</svg>
