<svg width="64" height="64" viewBox="0 0 24 24" fill="none" xmlns="http://www.w3.org/2000/svg">
<path d="M12 0C5.37321 0 0 5.37321 0 12C0 18.6268 5.37321 24 12 24C18.6268 24 24 18.6268 24 12C24 5.37321 18.6268 0 12 0ZM12 21.9643C6.49821 21.9643 2.03571 17.5018 2.03571 12C2.03571 6.49821 6.49821 2.03571 12 2.03571C17.5018 2.03571 21.9643 6.49821 21.9643 12C21.9643 17.5018 17.5018 21.9643 12 21.9643Z" fill="#FCBA19"/>
<path d="M10.5 17.5C10.5 17.8978 10.658 18.2794 10.9393 18.5607C11.2206 18.842 11.6022 19 12 19C12.3978 19 12.7794 18.842 13.0607 18.5607C13.342 18.2794 13.5 17.8978 13.5 17.5C13.5 17.1022 13.342 16.7206 13.0607 16.4393C12.7794 16.158 12.3978 16 12 16C11.6022 16 11.2206 16.158 10.9393 16.4393C10.658 16.7206 10.5 17.1022 10.5 17.5V17.5ZM11.25 14H12.75C12.8875 14 13 13.8875 13 13.75V5.25C13 5.1125 12.8875 5 12.75 5H11.25C11.1125 5 11 5.1125 11 5.25V13.75C11 13.8875 11.1125 14 11.25 14Z" fill="#FCBA19"/>
</svg>
