<svg width="24" height="24" viewBox="0 0 24 24" fill="none" xmlns="http://www.w3.org/2000/svg">
<path d="M16 4.94118V2H4V22H16V19.4706" stroke="#5E46A1" stroke-width="2" stroke-linecap="round" stroke-linejoin="round"/>
<path d="M20.2619 12.1934L20.2622 12.1937C20.3425 12.2718 20.3426 12.4021 20.2623 12.4803L20.2619 12.4806L16.533 16.117L16.5329 16.1171C16.4537 16.1944 16.3267 16.1928 16.2494 16.1135L16.2493 16.1134C16.1719 16.0341 16.1735 15.9071 16.2528 15.8298L16.2529 15.8298L18.7489 13.3957L19.6287 12.5377H18.3998H11.7006C11.5898 12.5377 11.5 12.4479 11.5 12.337C11.5 12.2262 11.5898 12.1364 11.7006 12.1364H18.3998H19.6287L18.7489 11.2784L16.2529 8.84428L16.2528 8.84426C16.1735 8.76693 16.1719 8.63991 16.2493 8.56061L16.2494 8.56052C16.3266 8.48126 16.4536 8.47961 16.533 8.557L16.533 8.55703L20.2619 12.1934Z" fill="#5E46A1" stroke="#5E46A1"/>
</svg>
