<svg width="120" height="44" viewBox="0 0 402 135" fill="none" xmlns="http://www.w3.org/2000/svg">
<path d="M233.088 83.4446C232.603 88.8412 231.07 93.6094 228.491 97.7493C225.95 101.889 222.362 105.123 217.727 107.452C213.093 109.781 207.524 110.945 201.021 110.945C194.331 110.945 188.5 109.393 183.529 106.288C178.558 103.146 174.727 98.6918 172.036 92.9256C169.345 87.1594 168 80.4136 168 72.6883V66.3122C168 58.5869 169.364 51.8412 172.093 46.0749C174.858 40.3087 178.764 35.8546 183.81 32.7128C188.893 29.5709 194.817 28 201.581 28C207.972 28 213.429 29.1828 217.952 31.5485C222.474 33.8771 225.987 37.1484 228.491 41.3621C231.033 45.539 232.584 50.3811 233.144 55.8886H218.68C218.045 50.492 216.419 46.4446 213.803 43.7463C211.224 41.011 207.15 39.6434 201.581 39.6434C195.34 39.6434 190.612 41.9351 187.398 46.5185C184.221 51.0649 182.632 57.6259 182.632 66.2013V72.6883C182.632 81.1159 184.109 87.6584 187.061 92.3157C190.051 96.973 194.704 99.3017 201.021 99.3017C204.908 99.3017 208.066 98.7103 210.495 97.5275C212.962 96.3077 214.812 94.552 216.045 92.2603C217.316 89.9316 218.176 86.993 218.624 83.4446H233.088Z" fill="url(#paint0_linear)"/>
<path d="M241.778 79.2862C241.778 73.4461 242.899 68.2158 245.142 63.5954C247.422 58.975 250.692 55.3527 254.953 52.7283C259.213 50.0669 264.222 48.7363 269.977 48.7363C275.808 48.7363 280.854 50.0669 285.114 52.7283C289.412 55.3527 292.683 58.975 294.925 63.5954C297.205 68.2158 298.345 73.4461 298.345 79.2862V80.4506C298.345 86.2907 297.205 91.521 294.925 96.1414C292.683 100.762 289.431 104.384 285.17 107.009C280.91 109.633 275.883 110.945 270.09 110.945C264.296 110.945 259.251 109.633 254.953 107.009C250.692 104.384 247.422 100.762 245.142 96.1414C242.899 91.521 241.778 86.2907 241.778 80.4506V79.2862ZM255.738 80.4506C255.738 86.1429 256.934 90.8002 259.326 94.4226C261.718 98.045 265.306 99.8562 270.09 99.8562C273.266 99.8562 275.92 99.006 278.05 97.3057C280.218 95.5685 281.807 93.2398 282.816 90.3197C283.862 87.3996 284.386 84.1099 284.386 80.4506V79.2862C284.386 75.6638 283.862 72.3926 282.816 69.4725C281.807 66.5155 280.218 64.1683 278.05 62.4311C275.883 60.6938 273.192 59.8252 269.977 59.8252C266.801 59.8252 264.147 60.6938 262.017 62.4311C259.886 64.1683 258.298 66.5155 257.251 69.4725C256.242 72.3926 255.738 75.6638 255.738 79.2862V80.4506Z" fill="url(#paint1_linear)"/>
<path d="M336.972 48.7363C337.757 48.7363 338.635 48.8102 339.607 48.958C340.616 49.1059 341.364 49.2722 341.849 49.457L341.737 62.4865C339.869 62.1908 338.019 62.043 336.187 62.043C329.946 62.043 325.76 64.3532 323.629 68.9735V109.836H309.67V49.8452H322.956L323.349 56.6094C324.881 54.0959 326.787 52.1554 329.067 50.7877C331.347 49.4201 333.982 48.7363 336.972 48.7363Z" fill="url(#paint2_linear)"/>
<path d="M401.556 84.1654H362.032C362.294 87.2333 363.097 89.9501 364.443 92.3157C365.788 94.6813 367.601 96.5295 369.881 97.8602C372.198 99.1908 374.889 99.8562 377.954 99.8562C384.233 99.8562 389.278 97.4166 393.09 92.5375L400.547 99.6898C398.342 102.906 395.277 105.585 391.353 107.729C387.428 109.873 382.682 110.945 377.113 110.945C371.207 110.945 366.05 109.688 361.639 107.175C357.229 104.624 353.847 101.15 351.492 96.7513C349.138 92.3527 347.96 87.4181 347.96 81.9476V79.6743C347.96 73.5015 349.156 68.0864 351.548 63.4291C353.94 58.7348 357.229 55.1124 361.415 52.5619C365.601 50.0115 370.31 48.7363 375.543 48.7363C381.261 48.7363 386.064 49.9745 389.951 52.4511C393.838 54.9276 396.735 58.4021 398.641 62.8746C400.584 67.3102 401.556 72.4665 401.556 78.3437V84.1654ZM387.765 73.1319C387.578 69.2508 386.512 66.0719 384.569 63.5954C382.625 61.0819 379.598 59.8252 375.487 59.8252C371.824 59.8252 368.872 61.0819 366.629 63.5954C364.387 66.1089 362.948 69.6389 362.312 74.1853H387.765V73.1319Z" fill="url(#paint3_linear)"/>
<path d="M56.8675 1.71436L70.3565 23.423L36.851 64.2561L13.2925 27.7734C24.082 10.8673 40.3112 5.13435 56.8675 1.71436Z" fill="#E5E4E4"/>
<path d="M56.5405 1.71402L94.7577 63.2132H135.069C130.881 8.48974 79.052 -2.68337 56.5405 1.71402Z" fill="#BCB8B8"/>
<path d="M36.851 64.2562L13.2925 27.7736C-7.12482 54.875 0.204681 86.1458 7.5338 98.6542L36.851 64.2562Z" fill="#938D8D"/>
<path d="M7.53418 98.654L36.8515 64.2561L64.0746 108.556L45.2278 131.488C24.8104 125.755 11.5479 106.757 7.53418 98.654Z" fill="#AEAAAA"/>
<path d="M45.2275 131.488L64.0744 108.557L79.5755 133.866C71.7227 135.951 54.6509 134.616 45.2275 131.488Z" fill="white"/>
<path d="M79.5758 133.866L63.8701 108.328L94.758 73.4092H135.069C130.358 121.358 91.0933 130.218 79.5758 133.866Z" fill="#E5E4E4"/>
<defs>
<linearGradient id="paint0_linear" x1="229.713" y1="39.355" x2="534.244" y2="181.02" gradientUnits="userSpaceOnUse">
<stop stop-color="white"/>
<stop offset="1" stop-color="white"/>
</linearGradient>
<linearGradient id="paint1_linear" x1="229.713" y1="39.355" x2="534.244" y2="181.02" gradientUnits="userSpaceOnUse">
<stop stop-color="white"/>
<stop offset="1" stop-color="white"/>
</linearGradient>
<linearGradient id="paint2_linear" x1="229.713" y1="39.355" x2="534.244" y2="181.02" gradientUnits="userSpaceOnUse">
<stop stop-color="white"/>
<stop offset="1" stop-color="white"/>
</linearGradient>
<linearGradient id="paint3_linear" x1="229.713" y1="39.355" x2="534.244" y2="181.02" gradientUnits="userSpaceOnUse">
<stop stop-color="white"/>
<stop offset="1" stop-color="white"/>
</linearGradient>
</defs>
</svg>
