<svg xmlns="http://www.w3.org/2000/svg" viewBox="0 0 131.89 182.88"><defs><style>.cls-1{fill:#dc4a3d;}.cls-2{fill:#f5b54c;}.cls-3{fill:#fdd05b;}.cls-4{fill:#dee45c;}.cls-5{fill:#666766;}.cls-6{fill:#fff;}</style></defs><title>Asset 4</title><g id="Layer_2" data-name="Layer 2"><g id="Layer_6" data-name="Layer 6"><ellipse class="cls-1" cx="65.87" cy="63.71" rx="41.98" ry="37.22"/></g><g id="Layer_3" data-name="Layer 3"><path class="cls-1" d="M125.7,63.71c0,44.69-59.58,119.17-59.58,119.17S6.53,108.4,6.53,63.71,21.43,4.12,66.12,4.12,125.7,19,125.7,63.71ZM66.12,33.91a29.8,29.8,0,1,0,29.79,29.8A29.79,29.79,0,0,0,66.12,33.91Z"/></g><g id="Layer_8" data-name="Layer 8"><polyline class="cls-2" points="41.91 63.71 53.91 0 77.91 0 89.91 63.71"/><path class="cls-3" d="M122.5,67.31c0-42.47-14.16-56.63-56.63-56.63S9.24,24.84,9.24,67.31"/><path class="cls-3" d="M130,67.31c-.05-14-1.11-29.44-8.55-41.78C115,14.76,104,8.37,91.92,5.65c-15.25-3.44-32-3.36-47.35-.9-12.38,2-24.17,7.1-31.88,17.31C3.09,34.77,1.8,52,1.74,67.31c0,9.65,15,9.66,15,0,.05-11.17.59-23.85,6.07-33.46,4.4-7.72,11.77-11.65,21-13.74,12.5-2.82,26.73-2.83,39.37-.9,5,.77,10.44,2.07,14.61,4.21a26.37,26.37,0,0,1,9.06,7.21c7.57,10,8.1,24.34,8.14,36.68,0,9.65,15,9.67,15,0Z"/><polyline class="cls-2" points="30.48 66.31 48.18 2.6 83.57 2.6 101.27 66.31"/><path class="cls-2" d="M7.24,67.31s14.59,9.76,58.43,9.76,58.91-9.76,58.91-9.76Z"/><path class="cls-2" d="M3.46,73.78c10.17,6.72,25,8.22,36.62,9.5C64.93,86,92.44,85.87,116.6,78.57c3.94-1.2,8.26-2.55,11.76-4.79,6.15-3.92,3.87-14-3.78-14H7.24c-9.65,0-9.66,15,0,15H124.58l-3.79-14a9.23,9.23,0,0,1-1.75.94,8.65,8.65,0,0,0-.93.43c-1.12.54,1.54-.6.21-.09-1.13.44-2.26.87-3.42,1.26a114.89,114.89,0,0,1-25,5.06c-23,2.34-48.21,2.53-70.55-4.22-1.54-.47-3.05-1-4.56-1.54-2.4-.88.36.35-1.49-.62A23.86,23.86,0,0,1,11,60.83C3,55.5-4.57,68.48,3.46,73.78Z"/><circle class="cls-4" cx="65.91" cy="54.46" r="22.61"/><path class="cls-5" d="M86,54.46c-.33,10.94-8.9,20.11-20.11,20.11a20.11,20.11,0,0,1-.69-40.2C76.7,34,85.68,43.25,86,54.46c.09,3.21,5.09,3.22,5,0-.69-22.83-29.66-34.09-44.57-15.83C32.08,56.24,47.73,82.73,70,79.21c12.24-1.93,20.68-12.62,21-24.75C91.11,51.24,86.11,51.25,86,54.46Z"/><path class="cls-6" d="M65.91,42c0-1.42-6.42-2.35-10,.6s-4.16,7.89-2.9,9.07,2.51-3.58,5.41-5.89S65.91,43.42,65.91,42Z"/></g></g></svg>