<svg width="45" height="45" viewBox="0 0 45 45" fill="none" xmlns="http://www.w3.org/2000/svg">
<circle cx="22.5" cy="22.5" r="22.5" fill="white"/>
<path d="M31.1215 27.8969C30.6794 26.8496 30.0378 25.8984 29.2325 25.0961C28.4296 24.2915 27.4785 23.65 26.4317 23.207C26.4223 23.2023 26.4129 23.2 26.4036 23.1953C27.8637 22.1406 28.8129 20.4227 28.8129 18.4844C28.8129 15.2734 26.2114 12.6719 23.0004 12.6719C19.7895 12.6719 17.1879 15.2734 17.1879 18.4844C17.1879 20.4227 18.1371 22.1406 19.5973 23.1977C19.5879 23.2023 19.5786 23.2047 19.5692 23.2094C18.5192 23.6523 17.577 24.2875 16.7684 25.0984C15.9638 25.9013 15.3223 26.8524 14.8793 27.8992C14.4441 28.924 14.2094 30.0228 14.1879 31.1359C14.1873 31.161 14.1917 31.1858 14.2008 31.2091C14.21 31.2324 14.2237 31.2537 14.2412 31.2716C14.2586 31.2895 14.2795 31.3037 14.3026 31.3134C14.3256 31.3231 14.3504 31.3281 14.3754 31.3281H15.7817C15.8848 31.3281 15.9668 31.2461 15.9692 31.1453C16.016 29.3359 16.7426 27.6414 18.027 26.357C19.3559 25.0281 21.1207 24.2969 23.0004 24.2969C24.8801 24.2969 26.645 25.0281 27.9739 26.357C29.2582 27.6414 29.9848 29.3359 30.0317 31.1453C30.034 31.2484 30.1161 31.3281 30.2192 31.3281H31.6254C31.6504 31.3281 31.6752 31.3231 31.6983 31.3134C31.7213 31.3037 31.7422 31.2895 31.7597 31.2716C31.7772 31.2537 31.7909 31.2324 31.8 31.2091C31.8092 31.1858 31.8136 31.161 31.8129 31.1359C31.7895 30.0156 31.5575 28.9258 31.1215 27.8969ZM23.0004 22.5156C21.9246 22.5156 20.9121 22.0961 20.1504 21.3344C19.3887 20.5727 18.9692 19.5602 18.9692 18.4844C18.9692 17.4086 19.3887 16.3961 20.1504 15.6344C20.9121 14.8727 21.9246 14.4531 23.0004 14.4531C24.0762 14.4531 25.0887 14.8727 25.8504 15.6344C26.6121 16.3961 27.0317 17.4086 27.0317 18.4844C27.0317 19.5602 26.6121 20.5727 25.8504 21.3344C25.0887 22.0961 24.0762 22.5156 23.0004 22.5156Z" fill="#333333"/>
</svg>
