<svg width="20" height="20" viewBox="0 0 20 20" fill="none" xmlns="http://www.w3.org/2000/svg">
<path d="M17.3172 14.4038C16.7306 13.8167 16.0451 13.3375 15.2922 12.9882C16.354 12.1281 17.0313 10.8156 17.0313 9.34369C17.0313 6.74681 14.8657 4.61635 12.2688 4.65619C9.71178 4.69603 7.65162 6.77963 7.65162 9.34369C7.65162 10.8156 8.33131 12.1281 9.39068 12.9882C8.63765 13.3373 7.95214 13.8165 7.36568 14.4038C6.086 15.6859 5.35943 17.3781 5.31256 19.1828C5.31193 19.2078 5.31632 19.2327 5.32546 19.2559C5.33461 19.2792 5.34832 19.3005 5.36579 19.3184C5.38326 19.3363 5.40415 19.3505 5.42721 19.3602C5.45027 19.3699 5.47504 19.3749 5.50006 19.3749H6.81256C6.91334 19.3749 6.99772 19.2953 7.00006 19.1945C7.04459 17.8351 7.59537 16.5624 8.56334 15.5968C9.05867 15.0989 9.64784 14.7041 10.2968 14.4353C10.9457 14.1666 11.6414 14.0292 12.3438 14.0312C13.7712 14.0312 15.1141 14.5867 16.1243 15.5968C17.0899 16.5624 17.6407 17.8351 17.6876 19.1945C17.6899 19.2953 17.7743 19.3749 17.8751 19.3749H19.1876C19.2126 19.3749 19.2374 19.3699 19.2604 19.3602C19.2835 19.3505 19.3044 19.3363 19.3218 19.3184C19.3393 19.3005 19.353 19.2792 19.3622 19.2559C19.3713 19.2327 19.3757 19.2078 19.3751 19.1828C19.3282 17.3781 18.6016 15.6859 17.3172 14.4038ZM12.3438 12.3437C11.5422 12.3437 10.7876 12.032 10.2227 11.4648C9.93925 11.1835 9.71533 10.8481 9.56433 10.4784C9.41332 10.1088 9.33833 9.71249 9.34381 9.31322C9.35084 8.54447 9.65787 7.8015 10.1946 7.25072C10.7571 6.67416 11.5094 6.35306 12.3133 6.34369C13.1079 6.33666 13.879 6.64603 14.4462 7.2015C15.0274 7.77103 15.3462 8.53275 15.3462 9.34369C15.3462 10.1453 15.0344 10.8976 14.4672 11.4648C14.189 11.7444 13.858 11.966 13.4935 12.1169C13.1291 12.2678 12.7383 12.3448 12.3438 12.3437ZM6.47272 9.96244C6.45162 9.75853 6.4399 9.55228 6.4399 9.34369C6.4399 8.97103 6.47506 8.60775 6.54068 8.25385C6.55709 8.16947 6.51256 8.08275 6.43522 8.0476C6.11647 7.90463 5.8235 7.70775 5.57037 7.45931C5.27211 7.17011 5.0374 6.82191 4.88123 6.43693C4.72506 6.05195 4.65085 5.63864 4.66334 5.22338C4.68443 4.47103 4.98678 3.75619 5.51412 3.21713C6.09303 2.62416 6.87115 2.30072 7.6985 2.3101C8.44615 2.31713 9.16803 2.60541 9.71412 3.11635C9.89928 3.28978 10.0587 3.48197 10.1922 3.68822C10.2391 3.76088 10.3305 3.79135 10.4102 3.76322C10.8227 3.62025 11.2587 3.51947 11.7063 3.4726C11.8376 3.45853 11.9126 3.31791 11.854 3.20072C11.0922 1.69369 9.536 0.653065 7.736 0.62494C5.13678 0.585096 2.97115 2.71556 2.97115 5.3101C2.97115 6.78197 3.6485 8.09447 4.71021 8.95463C3.9649 9.29916 3.27818 9.77494 2.68287 10.3703C1.3985 11.6523 0.671934 13.3445 0.625059 15.1515C0.624433 15.1765 0.628821 15.2014 0.637963 15.2247C0.647105 15.248 0.660817 15.2692 0.678291 15.2871C0.695764 15.305 0.716646 15.3193 0.739706 15.329C0.762766 15.3387 0.787536 15.3437 0.812559 15.3437H2.1274C2.22818 15.3437 2.31256 15.264 2.3149 15.1632C2.35943 13.8038 2.91022 12.5312 3.87818 11.5656C4.56725 10.8765 5.411 10.3984 6.33209 10.1663C6.4235 10.1429 6.48443 10.0562 6.47272 9.96244V9.96244Z" fill="white"/>
</svg>
