<svg width="24" height="24" viewBox="0 0 24 24" fill="none" xmlns="http://www.w3.org/2000/svg">
<path d="M16.0625 4.8125V4.3125V4.125C16.0625 3.95198 15.923 3.8125 15.75 3.8125H15.5625H15.0625H8.4375H8.25C8.07698 3.8125 7.9375 3.95198 7.9375 4.125V4.3125V5.5H7.25V4.125C7.25 3.5738 7.6988 3.125 8.25 3.125H15.75C16.3012 3.125 16.75 3.5738 16.75 4.125V5.5H16.0625V4.8125ZM8.4375 6.5H8.9375H15.0625H15.5625H17.25H17.75H20.25C20.3887 6.5 20.5 6.6113 20.5 6.75V7.1875H19.3969H18.9199L18.8974 7.66391L18.3185 19.9217L18.3185 19.9219C18.2935 20.4568 17.8548 20.875 17.3203 20.875H6.67969C6.1476 20.875 5.70647 20.4545 5.68148 19.9219L5.68147 19.9217L5.10257 7.66391L5.08007 7.1875H4.60312H3.5V6.75C3.5 6.6113 3.6113 6.5 3.75 6.5H6.25H6.75H8.4375ZM17.1398 20.1875H17.6168L17.6393 19.7111L18.2065 7.71111L18.2312 7.1875H17.707H6.29297H5.76878L5.79353 7.71111L6.36071 19.7111L6.38323 20.1875H6.86016H17.1398Z" fill="#3C3636" stroke="#5E46A1"/>
<line x1="9.75" y1="7" x2="9.75" y2="20" stroke="#5E46A1" stroke-width="1.5"/>
<line x1="14.75" y1="7" x2="14.75" y2="20" stroke="#5E46A1" stroke-width="1.5"/>
</svg>
