<svg width="80" height="72" viewBox="0 0 80 72" fill="none" xmlns="http://www.w3.org/2000/svg">
<path d="M36.1989 50.625C36.1989 51.5201 36.5935 52.3785 37.2957 53.0115C37.998 53.6444 38.9505 54 39.9436 54C40.9368 54 41.8893 53.6444 42.5915 53.0115C43.2938 52.3785 43.6883 51.5201 43.6883 50.625C43.6883 49.7299 43.2938 48.8715 42.5915 48.2385C41.8893 47.6056 40.9368 47.25 39.9436 47.25C38.9505 47.25 37.998 47.6056 37.2957 48.2385C36.5935 48.8715 36.1989 49.7299 36.1989 50.625ZM37.4472 29.25V42.1875C37.4472 42.4969 37.728 42.75 38.0713 42.75H41.816C42.1592 42.75 42.4401 42.4969 42.4401 42.1875V29.25C42.4401 28.9406 42.1592 28.6875 41.816 28.6875H38.0713C37.728 28.6875 37.4472 28.9406 37.4472 29.25ZM74.5586 60.1875L42.1046 9.5625C41.6209 8.81016 40.7862 8.4375 39.9436 8.4375C39.1011 8.4375 38.2585 8.81016 37.7826 9.5625L5.32865 60.1875C4.36907 61.6922 5.57049 63.5625 7.48965 63.5625H72.3976C74.3168 63.5625 75.5182 61.6922 74.5586 60.1875ZM13.4343 58.2258L39.9436 16.868L66.4529 58.2258H13.4343Z" fill="#4D4646"/>
</svg>
